%TF.GenerationSoftware,KiCad,Pcbnew,7.0.1*%
%TF.CreationDate,2023-04-17T16:28:37-05:00*%
%TF.ProjectId,MechCirc,4d656368-4369-4726-932e-6b696361645f,rev?*%
%TF.SameCoordinates,Original*%
%TF.FileFunction,Copper,L1,Top*%
%TF.FilePolarity,Positive*%
%FSLAX46Y46*%
G04 Gerber Fmt 4.6, Leading zero omitted, Abs format (unit mm)*
G04 Created by KiCad (PCBNEW 7.0.1) date 2023-04-17 16:28:37*
%MOMM*%
%LPD*%
G01*
G04 APERTURE LIST*
%TA.AperFunction,ComponentPad*%
%ADD10C,1.600000*%
%TD*%
%TA.AperFunction,ComponentPad*%
%ADD11O,1.600000X1.600000*%
%TD*%
%TA.AperFunction,ComponentPad*%
%ADD12C,1.700000*%
%TD*%
%TA.AperFunction,ComponentPad*%
%ADD13R,1.800000X1.800000*%
%TD*%
%TA.AperFunction,ComponentPad*%
%ADD14C,1.800000*%
%TD*%
%TA.AperFunction,ComponentPad*%
%ADD15R,1.700000X1.700000*%
%TD*%
%TA.AperFunction,ComponentPad*%
%ADD16O,1.700000X1.700000*%
%TD*%
%TA.AperFunction,ComponentPad*%
%ADD17R,1.600000X1.600000*%
%TD*%
%TA.AperFunction,ComponentPad*%
%ADD18R,1.050000X1.500000*%
%TD*%
%TA.AperFunction,ComponentPad*%
%ADD19O,1.050000X1.500000*%
%TD*%
%TA.AperFunction,ViaPad*%
%ADD20C,0.800000*%
%TD*%
%TA.AperFunction,Conductor*%
%ADD21C,0.250000*%
%TD*%
%TA.AperFunction,Profile*%
%ADD22C,0.100000*%
%TD*%
G04 APERTURE END LIST*
D10*
%TO.P,R4,1*%
%TO.N,/YELLOW*%
X147262530Y-120983024D03*
D11*
%TO.P,R4,2*%
%TO.N,Net-(D3-K)*%
X154882530Y-120983024D03*
%TD*%
D10*
%TO.P,C4,1*%
%TO.N,GND*%
X161183757Y-93282140D03*
%TO.P,C4,2*%
%TO.N,+3.3V*%
X163683757Y-93282140D03*
%TD*%
%TO.P,R2,1*%
%TO.N,+3.3V*%
X127000000Y-119380000D03*
D11*
%TO.P,R2,2*%
%TO.N,Net-(U2-\u002AMCLR)*%
X134620000Y-119380000D03*
%TD*%
D10*
%TO.P,R5,1*%
%TO.N,+3.3V*%
X168782230Y-99796856D03*
D11*
%TO.P,R5,2*%
%TO.N,/USER*%
X168782230Y-92176856D03*
%TD*%
D12*
%TO.P,SW1,1,A*%
%TO.N,+5V*%
X140846981Y-77553563D03*
%TO.P,SW1,2,B*%
%TO.N,/Vin*%
X138306981Y-77553563D03*
%TO.P,SW1,3,C*%
%TO.N,+5V*%
X135766981Y-77553563D03*
%TD*%
D13*
%TO.P,D2,1,K*%
%TO.N,Net-(D2-K)*%
X138423898Y-119385739D03*
D14*
%TO.P,D2,2,A*%
%TO.N,+3.3V*%
X138423898Y-121925739D03*
%TD*%
D15*
%TO.P,SW2,1,1*%
%TO.N,GND*%
X137160000Y-93980000D03*
D16*
%TO.P,SW2,2,2*%
%TO.N,Net-(U2-\u002AMCLR)*%
X137160000Y-99060000D03*
%TD*%
D13*
%TO.P,D1,1,K*%
%TO.N,GND*%
X172384298Y-76720048D03*
D14*
%TO.P,D1,2,A*%
%TO.N,Net-(D1-A)*%
X172384298Y-79260048D03*
%TD*%
D15*
%TO.P,J2,1,Pin_1*%
%TO.N,/RTS*%
X130877068Y-81973639D03*
D16*
%TO.P,J2,2,Pin_2*%
%TO.N,/RXD*%
X133417068Y-81973639D03*
%TO.P,J2,3,Pin_3*%
%TO.N,/TXD*%
X135957068Y-81973639D03*
%TO.P,J2,4,Pin_4*%
%TO.N,+5V*%
X138497068Y-81973639D03*
%TO.P,J2,5,Pin_5*%
%TO.N,/CTS*%
X141037068Y-81973639D03*
%TO.P,J2,6,Pin_6*%
%TO.N,GND*%
X143577068Y-81973639D03*
%TD*%
D17*
%TO.P,U2,1,\u002AMCLR*%
%TO.N,Net-(U2-\u002AMCLR)*%
X147320000Y-83820000D03*
D11*
%TO.P,U2,2,VREF+/CVREF+/AN0/C3INC/RPA0/CTED1/RA0*%
%TO.N,/A0*%
X147320000Y-86360000D03*
%TO.P,U2,3,VREF-/CVREF-/AN1/RPA1/CTED2/RA1*%
%TO.N,/A1*%
X147320000Y-88900000D03*
%TO.P,U2,4,PGED1/AN2/C1IND/C2INB/C3IND/RPB0/RB0*%
%TO.N,/B0*%
X147320000Y-91440000D03*
%TO.P,U2,5,PGEC1/AN3/C1INC/C2INA/RPB1/CTED12/RB1*%
%TO.N,/B1*%
X147320000Y-93980000D03*
%TO.P,U2,6,AN4/C1INB/C2IND/RPB2/SDA2/CTED13/RB2*%
%TO.N,/B2*%
X147320000Y-96520000D03*
%TO.P,U2,7,AN5/C1INA/C2INC/RTCC/RPB3/SCL2/RB3*%
%TO.N,/RXD*%
X147320000Y-99060000D03*
%TO.P,U2,8,VSS*%
%TO.N,GND*%
X147320000Y-101600000D03*
%TO.P,U2,9,OSC1/CLKI/RPA2/RA2*%
%TO.N,/TXD*%
X147320000Y-104140000D03*
%TO.P,U2,10,OSC2/CLKO/RPA3/PMA0/RA3*%
%TO.N,/A3*%
X147320000Y-106680000D03*
%TO.P,U2,11,SOSCI/RPB4/RB4*%
%TO.N,/GREEN*%
X147320000Y-109220000D03*
%TO.P,U2,12,SOSCO/RPA4/T1CK/CTED9/PMA1/RA4*%
%TO.N,/USER*%
X147320000Y-111760000D03*
%TO.P,U2,13,VDD*%
%TO.N,+3.3V*%
X147320000Y-114300000D03*
%TO.P,U2,14,PGED3/RPB5/PMD7/RB5*%
%TO.N,/YELLOW*%
X147320000Y-116840000D03*
%TO.P,U2,15,PGEC3/RPB6/PMD6/RB6*%
%TO.N,/B6*%
X154940000Y-116840000D03*
%TO.P,U2,16,TDI/RPB7/CTED3/PMD5/INT0/RB7*%
%TO.N,/B7*%
X154940000Y-114300000D03*
%TO.P,U2,17,TCK/RPB8/SCL1/CTED10/PMD4/RB8*%
%TO.N,/B8*%
X154940000Y-111760000D03*
%TO.P,U2,18,TDO/RPB9/SDA1/CTED4/PMD3/RB9*%
%TO.N,/B9*%
X154940000Y-109220000D03*
%TO.P,U2,19,VSS*%
%TO.N,GND*%
X154940000Y-106680000D03*
%TO.P,U2,20,VCAP*%
%TO.N,Net-(U2-VCAP)*%
X154940000Y-104140000D03*
%TO.P,U2,21,PGED2/RPB10/CTED11/PMD2/RB10*%
%TO.N,/B10*%
X154940000Y-101600000D03*
%TO.P,U2,22,PGEC2/TMS/RPB11/PMD1/RB11*%
%TO.N,/B11*%
X154940000Y-99060000D03*
%TO.P,U2,23,AN12/PMD0/RB12*%
%TO.N,/B12*%
X154940000Y-96520000D03*
%TO.P,U2,24,AN11/RPB13/CTPLS/PMRD/RB13*%
%TO.N,/B13*%
X154940000Y-93980000D03*
%TO.P,U2,25,CVREFOUT/AN10/C3INB/RPB14/SCK1/CTED5/PMWR/RB14*%
%TO.N,/B14*%
X154940000Y-91440000D03*
%TO.P,U2,26,AN9/C3INA/RPB15/SCK2/CTED6/PMCS1/RB15*%
%TO.N,/B15*%
X154940000Y-88900000D03*
%TO.P,U2,27,AVSS*%
%TO.N,GND*%
X154940000Y-86360000D03*
%TO.P,U2,28,AVDD*%
%TO.N,+3.3V*%
X154940000Y-83820000D03*
%TD*%
D10*
%TO.P,C1,1*%
%TO.N,GND*%
X164083952Y-112565539D03*
%TO.P,C1,2*%
%TO.N,/Vin*%
X169083952Y-112565539D03*
%TD*%
D18*
%TO.P,U1,1,VOUT*%
%TO.N,+3.3V*%
X153407105Y-77565043D03*
D19*
%TO.P,U1,2,GND*%
%TO.N,GND*%
X152137105Y-77565043D03*
%TO.P,U1,3,VIN*%
%TO.N,/Vin*%
X150867105Y-77565043D03*
%TD*%
D10*
%TO.P,R1,1*%
%TO.N,+3.3V*%
X159914297Y-77268337D03*
D11*
%TO.P,R1,2*%
%TO.N,Net-(D1-A)*%
X167534297Y-77268337D03*
%TD*%
D10*
%TO.P,C5,1*%
%TO.N,GND*%
X165100000Y-104140000D03*
%TO.P,C5,2*%
%TO.N,Net-(U2-VCAP)*%
X160100000Y-104140000D03*
%TD*%
%TO.P,R3,1*%
%TO.N,/GREEN*%
X137160000Y-106680000D03*
D11*
%TO.P,R3,2*%
%TO.N,Net-(D2-K)*%
X137160000Y-114300000D03*
%TD*%
D15*
%TO.P,J3,1,Pin_1*%
%TO.N,/A0*%
X129540000Y-86360000D03*
D16*
%TO.P,J3,2,Pin_2*%
%TO.N,/A1*%
X129540000Y-88900000D03*
%TO.P,J3,3,Pin_3*%
%TO.N,/B0*%
X129540000Y-91440000D03*
%TO.P,J3,4,Pin_4*%
%TO.N,/B1*%
X129540000Y-93980000D03*
%TO.P,J3,5,Pin_5*%
%TO.N,/B2*%
X129540000Y-96520000D03*
%TO.P,J3,6,Pin_6*%
%TO.N,/A3*%
X129540000Y-99060000D03*
%TO.P,J3,7,Pin_7*%
%TO.N,/GREEN*%
X129540000Y-101600000D03*
%TO.P,J3,8,Pin_8*%
%TO.N,/YELLOW*%
X129540000Y-104140000D03*
%TO.P,J3,9,Pin_9*%
%TO.N,/B6*%
X129540000Y-106680000D03*
%TO.P,J3,10,Pin_10*%
%TO.N,/Vin*%
X129540000Y-109220000D03*
%TO.P,J3,11,Pin_11*%
%TO.N,+3.3V*%
X129540000Y-111760000D03*
%TO.P,J3,12,Pin_12*%
%TO.N,GND*%
X129540000Y-114300000D03*
%TD*%
D10*
%TO.P,C2,1*%
%TO.N,GND*%
X172640000Y-121920000D03*
%TO.P,C2,2*%
%TO.N,+3.3V*%
X167640000Y-121920000D03*
%TD*%
D13*
%TO.P,D3,1,K*%
%TO.N,Net-(D3-K)*%
X163567105Y-120174783D03*
D14*
%TO.P,D3,2,A*%
%TO.N,+3.3V*%
X163567105Y-122714783D03*
%TD*%
D10*
%TO.P,C3,1*%
%TO.N,GND*%
X160100000Y-99060000D03*
%TO.P,C3,2*%
%TO.N,+3.3V*%
X165100000Y-99060000D03*
%TD*%
D15*
%TO.P,J4,1,Pin_1*%
%TO.N,/B15*%
X172720000Y-88900000D03*
D16*
%TO.P,J4,2,Pin_2*%
%TO.N,/B14*%
X172720000Y-91440000D03*
%TO.P,J4,3,Pin_3*%
%TO.N,/B13*%
X172720000Y-93980000D03*
%TO.P,J4,4,Pin_4*%
%TO.N,/B12*%
X172720000Y-96520000D03*
%TO.P,J4,5,Pin_5*%
%TO.N,/B11*%
X172720000Y-99060000D03*
%TO.P,J4,6,Pin_6*%
%TO.N,/B10*%
X172720000Y-101600000D03*
%TO.P,J4,7,Pin_7*%
%TO.N,/B9*%
X172720000Y-104140000D03*
%TO.P,J4,8,Pin_8*%
%TO.N,/B8*%
X172720000Y-106680000D03*
%TO.P,J4,9,Pin_9*%
%TO.N,/B7*%
X172720000Y-109220000D03*
%TO.P,J4,10,Pin_10*%
%TO.N,/Vin*%
X172720000Y-111760000D03*
%TO.P,J4,11,Pin_11*%
%TO.N,+3.3V*%
X172720000Y-114300000D03*
%TO.P,J4,12,Pin_12*%
%TO.N,GND*%
X172720000Y-116840000D03*
%TD*%
D15*
%TO.P,J1,1,Pin_1*%
%TO.N,+5V*%
X127000000Y-80091586D03*
D16*
%TO.P,J1,2,Pin_2*%
%TO.N,GND*%
X127000000Y-77551586D03*
%TD*%
D15*
%TO.P,SW3,1,1*%
%TO.N,GND*%
X164492794Y-81254798D03*
D16*
%TO.P,SW3,2,2*%
%TO.N,/USER*%
X164492794Y-86334798D03*
%TD*%
D10*
%TO.P,C7,1*%
%TO.N,+3.3V*%
X142240000Y-119380000D03*
%TO.P,C7,2*%
%TO.N,GND*%
X142240000Y-121880000D03*
%TD*%
D20*
%TO.N,/B6*%
X151124744Y-116839999D03*
%TO.N,+3.3V*%
X149092938Y-84945000D03*
X154940000Y-79097938D03*
%TO.N,/RXD*%
X133410604Y-90038010D03*
X144740545Y-90121935D03*
X144780000Y-99060000D03*
%TO.N,/TXD*%
X125896765Y-95680745D03*
X132080000Y-99060000D03*
%TO.N,/YELLOW*%
X125559500Y-104140000D03*
%TO.N,/B6*%
X137160000Y-109220000D03*
X144780000Y-111760000D03*
%TO.N,Net-(U2-\u002AMCLR)*%
X142240000Y-99060000D03*
%TO.N,/USER*%
X151118882Y-108022807D03*
%TD*%
D21*
%TO.N,/B6*%
X149860000Y-115575255D02*
X149860000Y-114750000D01*
X151124744Y-116839999D02*
X149860000Y-115575255D01*
%TO.N,/Vin*%
X130884061Y-110564061D02*
X129540000Y-109220000D01*
X152400000Y-113167006D02*
X149797055Y-110564061D01*
X172720000Y-111760000D02*
X169889491Y-111760000D01*
X150867105Y-77565043D02*
X148685043Y-77565043D01*
X152400000Y-119380000D02*
X152400000Y-113167006D01*
X139660544Y-76200000D02*
X138306981Y-77553563D01*
X169889491Y-111760000D02*
X169083952Y-112565539D01*
X150867105Y-77565043D02*
X149860000Y-78572148D01*
X149797055Y-110564061D02*
X130884061Y-110564061D01*
X149860000Y-78572148D02*
X149860000Y-110501116D01*
X161138121Y-119380000D02*
X152400000Y-119380000D01*
X167952582Y-112565539D02*
X161138121Y-119380000D01*
X148685043Y-77565043D02*
X147320000Y-76200000D01*
X149860000Y-110501116D02*
X149797055Y-110564061D01*
X147320000Y-76200000D02*
X139660544Y-76200000D01*
X169083952Y-112565539D02*
X167952582Y-112565539D01*
%TO.N,+3.3V*%
X149092938Y-84945000D02*
X133205000Y-84945000D01*
X138423898Y-121925739D02*
X140969637Y-119380000D01*
X154940000Y-81280000D02*
X154940000Y-79097938D01*
X132080000Y-115425000D02*
X130665000Y-115425000D01*
X132080000Y-83820000D02*
X127000000Y-83820000D01*
X165836856Y-99796856D02*
X165100000Y-99060000D01*
X135574748Y-121925739D02*
X132080000Y-118430991D01*
X127000000Y-83820000D02*
X127000000Y-109220000D01*
X132080000Y-118430991D02*
X132080000Y-115425000D01*
X159914297Y-78845703D02*
X154940000Y-83820000D01*
X154940000Y-83820000D02*
X154940000Y-81280000D01*
X166845217Y-122714783D02*
X167640000Y-121920000D01*
X147320000Y-114300000D02*
X142240000Y-119380000D01*
X167640000Y-119380000D02*
X167640000Y-121920000D01*
X140969637Y-119380000D02*
X142240000Y-119380000D01*
X159914297Y-77268337D02*
X159914297Y-78845703D01*
X138423898Y-121925739D02*
X135574748Y-121925739D01*
X129540000Y-111760000D02*
X132080000Y-114300000D01*
X133205000Y-84945000D02*
X132080000Y-83820000D01*
X163567105Y-122714783D02*
X166845217Y-122714783D01*
X132080000Y-114300000D02*
X132080000Y-115425000D01*
X130665000Y-115715000D02*
X127000000Y-119380000D01*
X153407105Y-77565043D02*
X154940000Y-79097938D01*
X168782230Y-99796856D02*
X165836856Y-99796856D01*
X172720000Y-114300000D02*
X167640000Y-119380000D01*
X130665000Y-115425000D02*
X130665000Y-115715000D01*
X127000000Y-109220000D02*
X129540000Y-111760000D01*
%TO.N,Net-(U2-VCAP)*%
X154940000Y-104140000D02*
X160100000Y-104140000D01*
%TO.N,Net-(D1-A)*%
X170392587Y-77268337D02*
X172384298Y-79260048D01*
X167534297Y-77268337D02*
X170392587Y-77268337D01*
%TO.N,Net-(D3-K)*%
X154882530Y-120983024D02*
X162758864Y-120983024D01*
X162758864Y-120983024D02*
X163567105Y-120174783D01*
%TO.N,+5V*%
X140846981Y-79623726D02*
X140846981Y-77553563D01*
X127000000Y-80091586D02*
X129538023Y-77553563D01*
X129538023Y-77553563D02*
X135766981Y-77553563D01*
X138497068Y-81973639D02*
X140846981Y-79623726D01*
%TO.N,/RXD*%
X147320000Y-99060000D02*
X144780000Y-99060000D01*
X144740545Y-90121935D02*
X133494529Y-90121935D01*
X133494529Y-90121935D02*
X133410604Y-90038010D01*
%TO.N,/TXD*%
X125896765Y-84286839D02*
X129799300Y-80384304D01*
X125896765Y-95680745D02*
X125896765Y-84286839D01*
X134137959Y-80154530D02*
X135957068Y-81973639D01*
X143415000Y-100235000D02*
X133255000Y-100235000D01*
X129799300Y-80384304D02*
X129799300Y-80154530D01*
X147320000Y-104140000D02*
X143415000Y-100235000D01*
X129799300Y-80154530D02*
X134137959Y-80154530D01*
X133255000Y-100235000D02*
X132080000Y-99060000D01*
%TO.N,/A0*%
X129540000Y-86360000D02*
X147320000Y-86360000D01*
%TO.N,/A1*%
X129540000Y-88900000D02*
X147320000Y-88900000D01*
%TO.N,/B0*%
X129540000Y-91440000D02*
X147320000Y-91440000D01*
%TO.N,/B1*%
X129540000Y-93980000D02*
X130715000Y-92805000D01*
X130715000Y-92805000D02*
X146145000Y-92805000D01*
X146145000Y-92805000D02*
X147320000Y-93980000D01*
%TO.N,/B2*%
X129540000Y-96520000D02*
X147320000Y-96520000D01*
%TO.N,/A3*%
X147320000Y-106680000D02*
X146195000Y-105555000D01*
X144780000Y-104140000D02*
X134620000Y-104140000D01*
X146195000Y-105555000D02*
X144780000Y-104140000D01*
X134620000Y-104140000D02*
X129540000Y-99060000D01*
%TO.N,/GREEN*%
X139700000Y-109220000D02*
X137160000Y-106680000D01*
X129540000Y-101600000D02*
X134620000Y-106680000D01*
X134620000Y-106680000D02*
X137160000Y-106680000D01*
X147320000Y-109220000D02*
X139700000Y-109220000D01*
%TO.N,/YELLOW*%
X141774009Y-120505000D02*
X139128270Y-123150739D01*
X147320000Y-116840000D02*
X143655000Y-120505000D01*
X143655000Y-120505000D02*
X141774009Y-120505000D01*
X125285000Y-122572133D02*
X125285000Y-104140000D01*
X125679427Y-122966560D02*
X125285000Y-122572133D01*
X147320000Y-120925554D02*
X147262530Y-120983024D01*
X125285000Y-104140000D02*
X125559500Y-104140000D01*
X139128270Y-123150739D02*
X125863606Y-123150739D01*
X147320000Y-116840000D02*
X147320000Y-120925554D01*
X125863606Y-123150739D02*
X125679427Y-122966560D01*
%TO.N,/B6*%
X129540000Y-106680000D02*
X132080000Y-109220000D01*
X148285000Y-113175000D02*
X149860000Y-114750000D01*
X132080000Y-109220000D02*
X137160000Y-109220000D01*
X144780000Y-111760000D02*
X146195000Y-113175000D01*
X146195000Y-113175000D02*
X148285000Y-113175000D01*
%TO.N,/B15*%
X172720000Y-88900000D02*
X154940000Y-88900000D01*
%TO.N,/B14*%
X172720000Y-91440000D02*
X171870000Y-90590000D01*
X155790000Y-90590000D02*
X154940000Y-91440000D01*
X171870000Y-90590000D02*
X155790000Y-90590000D01*
%TO.N,/B13*%
X155790000Y-94830000D02*
X154940000Y-93980000D01*
X172720000Y-93980000D02*
X171870000Y-94830000D01*
X171870000Y-94830000D02*
X155790000Y-94830000D01*
%TO.N,/B12*%
X172720000Y-96520000D02*
X154940000Y-96520000D01*
%TO.N,/B11*%
X156065000Y-97935000D02*
X154940000Y-99060000D01*
X171595000Y-97935000D02*
X156065000Y-97935000D01*
X172720000Y-99060000D02*
X171595000Y-97935000D01*
%TO.N,/B10*%
X172720000Y-101600000D02*
X154940000Y-101600000D01*
%TO.N,/B9*%
X157480000Y-106680000D02*
X154940000Y-109220000D01*
X170180000Y-106680000D02*
X157480000Y-106680000D01*
X172720000Y-104140000D02*
X170180000Y-106680000D01*
%TO.N,/B8*%
X157480000Y-109220000D02*
X170180000Y-109220000D01*
X154940000Y-111760000D02*
X157480000Y-109220000D01*
X170180000Y-109220000D02*
X172720000Y-106680000D01*
%TO.N,/B7*%
X171159385Y-110780615D02*
X158459385Y-110780615D01*
X158459385Y-110780615D02*
X154940000Y-114300000D01*
X172720000Y-109220000D02*
X171159385Y-110780615D01*
%TO.N,Net-(U2-\u002AMCLR)*%
X137160000Y-99060000D02*
X142240000Y-99060000D01*
%TO.N,/USER*%
X153525000Y-92855000D02*
X158605000Y-92855000D01*
X168045374Y-91440000D02*
X168782230Y-92176856D01*
X151118882Y-108022807D02*
X151118882Y-95261118D01*
X151118882Y-95261118D02*
X153525000Y-92855000D01*
X160020000Y-91440000D02*
X168045374Y-91440000D01*
X158605000Y-92855000D02*
X160020000Y-91440000D01*
%TD*%
D22*
X175000000Y-125000000D02*
X125000000Y-125000000D01*
X175000000Y-75000000D02*
X175000000Y-125000000D01*
X125000000Y-75000000D02*
X175000000Y-75000000D01*
X125000000Y-125000000D02*
X125000000Y-75000000D01*
M02*
