M48
; DRILL file {KiCad 7.0.1} date Mon Apr 17 16:28:42 2023
; FORMAT={-:-/ absolute / inch / decimal}
; #@! TF.CreationDate,2023-04-17T16:28:42-05:00
; #@! TF.GenerationSoftware,Kicad,Pcbnew,7.0.1
; #@! TF.FileFunction,Plated,1,2,PTH
FMAT,2
INCH
; #@! TA.AperFunction,Plated,PTH,ViaDrill
T1C0.0157
; #@! TA.AperFunction,Plated,PTH,ComponentDrill
T2C0.0295
; #@! TA.AperFunction,Plated,PTH,ComponentDrill
T3C0.0315
; #@! TA.AperFunction,Plated,PTH,ComponentDrill
T4C0.0354
; #@! TA.AperFunction,Plated,PTH,ComponentDrill
T5C0.0394
%
G90
G05
T1
X4.9433Y-4.1
X4.9566Y-3.767
X5.2Y-3.9
X5.2524Y-3.5448
X5.4Y-4.3
X5.6Y-3.9
X5.6984Y-3.5481
X5.7Y-3.9
X5.7Y-4.4
X5.8698Y-3.3443
X5.9496Y-4.2529
X5.9498Y-4.6
X6.1Y-3.1141
T2
X5.9396Y-3.0537
X5.9896Y-3.0537
X6.0396Y-3.0537
T3
X5.0Y-4.7
X5.3Y-4.7
X5.4Y-4.2
X5.4Y-4.5
X5.6Y-4.7
X5.6Y-4.7984
X5.7977Y-4.7631
X5.8Y-3.3
X5.8Y-3.4
X5.8Y-3.5
X5.8Y-3.6
X5.8Y-3.7
X5.8Y-3.8
X5.8Y-3.9
X5.8Y-4.0
X5.8Y-4.1
X5.8Y-4.2
X5.8Y-4.3
X5.8Y-4.4
X5.8Y-4.5
X5.8Y-4.6
X6.0977Y-4.7631
X6.1Y-3.3
X6.1Y-3.4
X6.1Y-3.5
X6.1Y-3.6
X6.1Y-3.7
X6.1Y-3.8
X6.1Y-3.9
X6.1Y-4.0
X6.1Y-4.1
X6.1Y-4.2
X6.1Y-4.3
X6.1Y-4.4
X6.1Y-4.5
X6.1Y-4.6
X6.2958Y-3.0421
X6.3031Y-3.9
X6.3031Y-4.1
X6.3458Y-3.6725
X6.4442Y-3.6725
X6.46Y-4.4317
X6.5Y-3.9
X6.5Y-4.1
X6.5958Y-3.0421
X6.6Y-4.8
X6.645Y-3.629
X6.645Y-3.929
X6.6568Y-4.4317
X6.7969Y-4.8
T4
X5.4498Y-4.7002
X5.4498Y-4.8002
X6.4396Y-4.7313
X6.4396Y-4.8313
X6.7868Y-3.0205
X6.7868Y-3.1205
T5
X5.0Y-3.0532
X5.0Y-3.1532
X5.1Y-3.4
X5.1Y-3.5
X5.1Y-3.6
X5.1Y-3.7
X5.1Y-3.8
X5.1Y-3.9
X5.1Y-4.0
X5.1Y-4.1
X5.1Y-4.2
X5.1Y-4.3
X5.1Y-4.4
X5.1Y-4.5
X5.1526Y-3.2273
X5.2526Y-3.2273
X5.3452Y-3.0533
X5.3526Y-3.2273
X5.4Y-3.7
X5.4Y-3.9
X5.4452Y-3.0533
X5.4526Y-3.2273
X5.5452Y-3.0533
X5.5526Y-3.2273
X5.6526Y-3.2273
X6.4761Y-3.199
X6.4761Y-3.399
X6.8Y-3.5
X6.8Y-3.6
X6.8Y-3.7
X6.8Y-3.8
X6.8Y-3.9
X6.8Y-4.0
X6.8Y-4.1
X6.8Y-4.2
X6.8Y-4.3
X6.8Y-4.4
X6.8Y-4.5
X6.8Y-4.6
T0
M30
