%TF.GenerationSoftware,KiCad,Pcbnew,7.0.1*%
%TF.CreationDate,2023-04-17T16:28:37-05:00*%
%TF.ProjectId,MechCirc,4d656368-4369-4726-932e-6b696361645f,rev?*%
%TF.SameCoordinates,Original*%
%TF.FileFunction,Copper,L2,Bot*%
%TF.FilePolarity,Positive*%
%FSLAX46Y46*%
G04 Gerber Fmt 4.6, Leading zero omitted, Abs format (unit mm)*
G04 Created by KiCad (PCBNEW 7.0.1) date 2023-04-17 16:28:37*
%MOMM*%
%LPD*%
G01*
G04 APERTURE LIST*
%TA.AperFunction,ComponentPad*%
%ADD10C,1.600000*%
%TD*%
%TA.AperFunction,ComponentPad*%
%ADD11O,1.600000X1.600000*%
%TD*%
%TA.AperFunction,ComponentPad*%
%ADD12C,1.700000*%
%TD*%
%TA.AperFunction,ComponentPad*%
%ADD13R,1.800000X1.800000*%
%TD*%
%TA.AperFunction,ComponentPad*%
%ADD14C,1.800000*%
%TD*%
%TA.AperFunction,ComponentPad*%
%ADD15R,1.700000X1.700000*%
%TD*%
%TA.AperFunction,ComponentPad*%
%ADD16O,1.700000X1.700000*%
%TD*%
%TA.AperFunction,ComponentPad*%
%ADD17R,1.600000X1.600000*%
%TD*%
%TA.AperFunction,ComponentPad*%
%ADD18R,1.050000X1.500000*%
%TD*%
%TA.AperFunction,ComponentPad*%
%ADD19O,1.050000X1.500000*%
%TD*%
%TA.AperFunction,ViaPad*%
%ADD20C,0.800000*%
%TD*%
%TA.AperFunction,Conductor*%
%ADD21C,0.250000*%
%TD*%
%TA.AperFunction,Profile*%
%ADD22C,0.100000*%
%TD*%
G04 APERTURE END LIST*
D10*
%TO.P,R4,1*%
%TO.N,/YELLOW*%
X147262530Y-120983024D03*
D11*
%TO.P,R4,2*%
%TO.N,Net-(D3-K)*%
X154882530Y-120983024D03*
%TD*%
D10*
%TO.P,C4,1*%
%TO.N,GND*%
X161183757Y-93282140D03*
%TO.P,C4,2*%
%TO.N,+3.3V*%
X163683757Y-93282140D03*
%TD*%
%TO.P,R2,1*%
%TO.N,+3.3V*%
X127000000Y-119380000D03*
D11*
%TO.P,R2,2*%
%TO.N,Net-(U2-\u002AMCLR)*%
X134620000Y-119380000D03*
%TD*%
D10*
%TO.P,R5,1*%
%TO.N,+3.3V*%
X168782230Y-99796856D03*
D11*
%TO.P,R5,2*%
%TO.N,/USER*%
X168782230Y-92176856D03*
%TD*%
D12*
%TO.P,SW1,1,A*%
%TO.N,+5V*%
X140846981Y-77553563D03*
%TO.P,SW1,2,B*%
%TO.N,/Vin*%
X138306981Y-77553563D03*
%TO.P,SW1,3,C*%
%TO.N,+5V*%
X135766981Y-77553563D03*
%TD*%
D13*
%TO.P,D2,1,K*%
%TO.N,Net-(D2-K)*%
X138423898Y-119385739D03*
D14*
%TO.P,D2,2,A*%
%TO.N,+3.3V*%
X138423898Y-121925739D03*
%TD*%
D15*
%TO.P,SW2,1,1*%
%TO.N,GND*%
X137160000Y-93980000D03*
D16*
%TO.P,SW2,2,2*%
%TO.N,Net-(U2-\u002AMCLR)*%
X137160000Y-99060000D03*
%TD*%
D13*
%TO.P,D1,1,K*%
%TO.N,GND*%
X172384298Y-76720048D03*
D14*
%TO.P,D1,2,A*%
%TO.N,Net-(D1-A)*%
X172384298Y-79260048D03*
%TD*%
D15*
%TO.P,J2,1,Pin_1*%
%TO.N,/RTS*%
X130877068Y-81973639D03*
D16*
%TO.P,J2,2,Pin_2*%
%TO.N,/RXD*%
X133417068Y-81973639D03*
%TO.P,J2,3,Pin_3*%
%TO.N,/TXD*%
X135957068Y-81973639D03*
%TO.P,J2,4,Pin_4*%
%TO.N,+5V*%
X138497068Y-81973639D03*
%TO.P,J2,5,Pin_5*%
%TO.N,/CTS*%
X141037068Y-81973639D03*
%TO.P,J2,6,Pin_6*%
%TO.N,GND*%
X143577068Y-81973639D03*
%TD*%
D17*
%TO.P,U2,1,\u002AMCLR*%
%TO.N,Net-(U2-\u002AMCLR)*%
X147320000Y-83820000D03*
D11*
%TO.P,U2,2,VREF+/CVREF+/AN0/C3INC/RPA0/CTED1/RA0*%
%TO.N,/A0*%
X147320000Y-86360000D03*
%TO.P,U2,3,VREF-/CVREF-/AN1/RPA1/CTED2/RA1*%
%TO.N,/A1*%
X147320000Y-88900000D03*
%TO.P,U2,4,PGED1/AN2/C1IND/C2INB/C3IND/RPB0/RB0*%
%TO.N,/B0*%
X147320000Y-91440000D03*
%TO.P,U2,5,PGEC1/AN3/C1INC/C2INA/RPB1/CTED12/RB1*%
%TO.N,/B1*%
X147320000Y-93980000D03*
%TO.P,U2,6,AN4/C1INB/C2IND/RPB2/SDA2/CTED13/RB2*%
%TO.N,/B2*%
X147320000Y-96520000D03*
%TO.P,U2,7,AN5/C1INA/C2INC/RTCC/RPB3/SCL2/RB3*%
%TO.N,/RXD*%
X147320000Y-99060000D03*
%TO.P,U2,8,VSS*%
%TO.N,GND*%
X147320000Y-101600000D03*
%TO.P,U2,9,OSC1/CLKI/RPA2/RA2*%
%TO.N,/TXD*%
X147320000Y-104140000D03*
%TO.P,U2,10,OSC2/CLKO/RPA3/PMA0/RA3*%
%TO.N,/A3*%
X147320000Y-106680000D03*
%TO.P,U2,11,SOSCI/RPB4/RB4*%
%TO.N,/GREEN*%
X147320000Y-109220000D03*
%TO.P,U2,12,SOSCO/RPA4/T1CK/CTED9/PMA1/RA4*%
%TO.N,/USER*%
X147320000Y-111760000D03*
%TO.P,U2,13,VDD*%
%TO.N,+3.3V*%
X147320000Y-114300000D03*
%TO.P,U2,14,PGED3/RPB5/PMD7/RB5*%
%TO.N,/YELLOW*%
X147320000Y-116840000D03*
%TO.P,U2,15,PGEC3/RPB6/PMD6/RB6*%
%TO.N,/B6*%
X154940000Y-116840000D03*
%TO.P,U2,16,TDI/RPB7/CTED3/PMD5/INT0/RB7*%
%TO.N,/B7*%
X154940000Y-114300000D03*
%TO.P,U2,17,TCK/RPB8/SCL1/CTED10/PMD4/RB8*%
%TO.N,/B8*%
X154940000Y-111760000D03*
%TO.P,U2,18,TDO/RPB9/SDA1/CTED4/PMD3/RB9*%
%TO.N,/B9*%
X154940000Y-109220000D03*
%TO.P,U2,19,VSS*%
%TO.N,GND*%
X154940000Y-106680000D03*
%TO.P,U2,20,VCAP*%
%TO.N,Net-(U2-VCAP)*%
X154940000Y-104140000D03*
%TO.P,U2,21,PGED2/RPB10/CTED11/PMD2/RB10*%
%TO.N,/B10*%
X154940000Y-101600000D03*
%TO.P,U2,22,PGEC2/TMS/RPB11/PMD1/RB11*%
%TO.N,/B11*%
X154940000Y-99060000D03*
%TO.P,U2,23,AN12/PMD0/RB12*%
%TO.N,/B12*%
X154940000Y-96520000D03*
%TO.P,U2,24,AN11/RPB13/CTPLS/PMRD/RB13*%
%TO.N,/B13*%
X154940000Y-93980000D03*
%TO.P,U2,25,CVREFOUT/AN10/C3INB/RPB14/SCK1/CTED5/PMWR/RB14*%
%TO.N,/B14*%
X154940000Y-91440000D03*
%TO.P,U2,26,AN9/C3INA/RPB15/SCK2/CTED6/PMCS1/RB15*%
%TO.N,/B15*%
X154940000Y-88900000D03*
%TO.P,U2,27,AVSS*%
%TO.N,GND*%
X154940000Y-86360000D03*
%TO.P,U2,28,AVDD*%
%TO.N,+3.3V*%
X154940000Y-83820000D03*
%TD*%
D10*
%TO.P,C1,1*%
%TO.N,GND*%
X164083952Y-112565539D03*
%TO.P,C1,2*%
%TO.N,/Vin*%
X169083952Y-112565539D03*
%TD*%
D18*
%TO.P,U1,1,VOUT*%
%TO.N,+3.3V*%
X153407105Y-77565043D03*
D19*
%TO.P,U1,2,GND*%
%TO.N,GND*%
X152137105Y-77565043D03*
%TO.P,U1,3,VIN*%
%TO.N,/Vin*%
X150867105Y-77565043D03*
%TD*%
D10*
%TO.P,R1,1*%
%TO.N,+3.3V*%
X159914297Y-77268337D03*
D11*
%TO.P,R1,2*%
%TO.N,Net-(D1-A)*%
X167534297Y-77268337D03*
%TD*%
D10*
%TO.P,C5,1*%
%TO.N,GND*%
X165100000Y-104140000D03*
%TO.P,C5,2*%
%TO.N,Net-(U2-VCAP)*%
X160100000Y-104140000D03*
%TD*%
%TO.P,R3,1*%
%TO.N,/GREEN*%
X137160000Y-106680000D03*
D11*
%TO.P,R3,2*%
%TO.N,Net-(D2-K)*%
X137160000Y-114300000D03*
%TD*%
D15*
%TO.P,J3,1,Pin_1*%
%TO.N,/A0*%
X129540000Y-86360000D03*
D16*
%TO.P,J3,2,Pin_2*%
%TO.N,/A1*%
X129540000Y-88900000D03*
%TO.P,J3,3,Pin_3*%
%TO.N,/B0*%
X129540000Y-91440000D03*
%TO.P,J3,4,Pin_4*%
%TO.N,/B1*%
X129540000Y-93980000D03*
%TO.P,J3,5,Pin_5*%
%TO.N,/B2*%
X129540000Y-96520000D03*
%TO.P,J3,6,Pin_6*%
%TO.N,/A3*%
X129540000Y-99060000D03*
%TO.P,J3,7,Pin_7*%
%TO.N,/GREEN*%
X129540000Y-101600000D03*
%TO.P,J3,8,Pin_8*%
%TO.N,/YELLOW*%
X129540000Y-104140000D03*
%TO.P,J3,9,Pin_9*%
%TO.N,/B6*%
X129540000Y-106680000D03*
%TO.P,J3,10,Pin_10*%
%TO.N,/Vin*%
X129540000Y-109220000D03*
%TO.P,J3,11,Pin_11*%
%TO.N,+3.3V*%
X129540000Y-111760000D03*
%TO.P,J3,12,Pin_12*%
%TO.N,GND*%
X129540000Y-114300000D03*
%TD*%
D10*
%TO.P,C2,1*%
%TO.N,GND*%
X172640000Y-121920000D03*
%TO.P,C2,2*%
%TO.N,+3.3V*%
X167640000Y-121920000D03*
%TD*%
D13*
%TO.P,D3,1,K*%
%TO.N,Net-(D3-K)*%
X163567105Y-120174783D03*
D14*
%TO.P,D3,2,A*%
%TO.N,+3.3V*%
X163567105Y-122714783D03*
%TD*%
D10*
%TO.P,C3,1*%
%TO.N,GND*%
X160100000Y-99060000D03*
%TO.P,C3,2*%
%TO.N,+3.3V*%
X165100000Y-99060000D03*
%TD*%
D15*
%TO.P,J4,1,Pin_1*%
%TO.N,/B15*%
X172720000Y-88900000D03*
D16*
%TO.P,J4,2,Pin_2*%
%TO.N,/B14*%
X172720000Y-91440000D03*
%TO.P,J4,3,Pin_3*%
%TO.N,/B13*%
X172720000Y-93980000D03*
%TO.P,J4,4,Pin_4*%
%TO.N,/B12*%
X172720000Y-96520000D03*
%TO.P,J4,5,Pin_5*%
%TO.N,/B11*%
X172720000Y-99060000D03*
%TO.P,J4,6,Pin_6*%
%TO.N,/B10*%
X172720000Y-101600000D03*
%TO.P,J4,7,Pin_7*%
%TO.N,/B9*%
X172720000Y-104140000D03*
%TO.P,J4,8,Pin_8*%
%TO.N,/B8*%
X172720000Y-106680000D03*
%TO.P,J4,9,Pin_9*%
%TO.N,/B7*%
X172720000Y-109220000D03*
%TO.P,J4,10,Pin_10*%
%TO.N,/Vin*%
X172720000Y-111760000D03*
%TO.P,J4,11,Pin_11*%
%TO.N,+3.3V*%
X172720000Y-114300000D03*
%TO.P,J4,12,Pin_12*%
%TO.N,GND*%
X172720000Y-116840000D03*
%TD*%
D15*
%TO.P,J1,1,Pin_1*%
%TO.N,+5V*%
X127000000Y-80091586D03*
D16*
%TO.P,J1,2,Pin_2*%
%TO.N,GND*%
X127000000Y-77551586D03*
%TD*%
D15*
%TO.P,SW3,1,1*%
%TO.N,GND*%
X164492794Y-81254798D03*
D16*
%TO.P,SW3,2,2*%
%TO.N,/USER*%
X164492794Y-86334798D03*
%TD*%
D10*
%TO.P,C7,1*%
%TO.N,+3.3V*%
X142240000Y-119380000D03*
%TO.P,C7,2*%
%TO.N,GND*%
X142240000Y-121880000D03*
%TD*%
D20*
%TO.N,/B6*%
X151124744Y-116839999D03*
%TO.N,+3.3V*%
X149092938Y-84945000D03*
X154940000Y-79097938D03*
%TO.N,/RXD*%
X133410604Y-90038010D03*
X144740545Y-90121935D03*
X144780000Y-99060000D03*
%TO.N,/TXD*%
X125896765Y-95680745D03*
X132080000Y-99060000D03*
%TO.N,/YELLOW*%
X125559500Y-104140000D03*
%TO.N,/B6*%
X137160000Y-109220000D03*
X144780000Y-111760000D03*
%TO.N,Net-(U2-\u002AMCLR)*%
X142240000Y-99060000D03*
%TO.N,/USER*%
X151118882Y-108022807D03*
%TD*%
D21*
%TO.N,/B6*%
X154940000Y-116840000D02*
X151124744Y-116839999D01*
%TO.N,+3.3V*%
X165100000Y-99060000D02*
X165100000Y-94698383D01*
X163683757Y-93282140D02*
X163683757Y-90023757D01*
X168782230Y-110278305D02*
X168782230Y-99796856D01*
X170831676Y-112411676D02*
X170831676Y-112327751D01*
X170831676Y-112327751D02*
X168782230Y-110278305D01*
X154940000Y-79097938D02*
X149092938Y-84945000D01*
X165100000Y-94698383D02*
X163683757Y-93282140D01*
X163683757Y-90023757D02*
X157480000Y-83820000D01*
X157480000Y-83820000D02*
X154940000Y-83820000D01*
X172720000Y-114300000D02*
X170831676Y-112411676D01*
%TO.N,Net-(D2-K)*%
X138423898Y-115563898D02*
X137160000Y-114300000D01*
X138423898Y-119385739D02*
X138423898Y-115563898D01*
%TO.N,/RXD*%
X133417068Y-90031546D02*
X133417068Y-81973639D01*
X144780000Y-99060000D02*
X144780000Y-90161390D01*
X144780000Y-90161390D02*
X144740545Y-90121935D01*
X133410604Y-90038010D02*
X133417068Y-90031546D01*
%TO.N,/TXD*%
X130715000Y-97695000D02*
X126736064Y-97695000D01*
X125896765Y-96855701D02*
X125896765Y-95680745D01*
X132080000Y-99060000D02*
X130715000Y-97695000D01*
X126736064Y-97695000D02*
X125896765Y-96855701D01*
%TO.N,/YELLOW*%
X125559500Y-104140000D02*
X129540000Y-104140000D01*
%TO.N,/B6*%
X137160000Y-109220000D02*
X139700000Y-111760000D01*
X139700000Y-111760000D02*
X144780000Y-111760000D01*
%TO.N,Net-(U2-\u002AMCLR)*%
X134620000Y-101600000D02*
X137160000Y-99060000D01*
X142240000Y-88900000D02*
X147320000Y-83820000D01*
X134620000Y-119380000D02*
X134620000Y-101600000D01*
X142240000Y-99060000D02*
X142240000Y-88900000D01*
%TO.N,/USER*%
X164492794Y-87887420D02*
X168782230Y-92176856D01*
X151057193Y-108022807D02*
X151118882Y-108022807D01*
X147320000Y-111760000D02*
X151057193Y-108022807D01*
X164492794Y-86334798D02*
X164492794Y-87887420D01*
%TD*%
%TA.AperFunction,Conductor*%
%TO.N,GND*%
G36*
X174937500Y-75017113D02*
G01*
X174982887Y-75062500D01*
X174999500Y-75124500D01*
X174999500Y-124875500D01*
X174982887Y-124937500D01*
X174937500Y-124982887D01*
X174875500Y-124999500D01*
X125124500Y-124999500D01*
X125062500Y-124982887D01*
X125017113Y-124937500D01*
X125000500Y-124875500D01*
X125000500Y-119379999D01*
X125694531Y-119379999D01*
X125714364Y-119606689D01*
X125773261Y-119826497D01*
X125869432Y-120032735D01*
X125999953Y-120219140D01*
X126160859Y-120380046D01*
X126347264Y-120510567D01*
X126347265Y-120510567D01*
X126347266Y-120510568D01*
X126553504Y-120606739D01*
X126773308Y-120665635D01*
X127000000Y-120685468D01*
X127226692Y-120665635D01*
X127446496Y-120606739D01*
X127652734Y-120510568D01*
X127839139Y-120380047D01*
X128000047Y-120219139D01*
X128130568Y-120032734D01*
X128226739Y-119826496D01*
X128285635Y-119606692D01*
X128305468Y-119380000D01*
X128305468Y-119379999D01*
X133314531Y-119379999D01*
X133334364Y-119606689D01*
X133393261Y-119826497D01*
X133489432Y-120032735D01*
X133619953Y-120219140D01*
X133780859Y-120380046D01*
X133967264Y-120510567D01*
X133967265Y-120510567D01*
X133967266Y-120510568D01*
X134173504Y-120606739D01*
X134393308Y-120665635D01*
X134620000Y-120685468D01*
X134846692Y-120665635D01*
X135066496Y-120606739D01*
X135272734Y-120510568D01*
X135459139Y-120380047D01*
X135620047Y-120219139D01*
X135750568Y-120032734D01*
X135846739Y-119826496D01*
X135905635Y-119606692D01*
X135925468Y-119380000D01*
X135905635Y-119153308D01*
X135846739Y-118933504D01*
X135750568Y-118727266D01*
X135620047Y-118540861D01*
X135620046Y-118540859D01*
X135459140Y-118379953D01*
X135298377Y-118267387D01*
X135259511Y-118223069D01*
X135245500Y-118165812D01*
X135245500Y-114299999D01*
X135854531Y-114299999D01*
X135874364Y-114526689D01*
X135933261Y-114746497D01*
X136029432Y-114952735D01*
X136159953Y-115139140D01*
X136320859Y-115300046D01*
X136507264Y-115430567D01*
X136507265Y-115430567D01*
X136507266Y-115430568D01*
X136713504Y-115526739D01*
X136933308Y-115585635D01*
X137160000Y-115605468D01*
X137386692Y-115585635D01*
X137455049Y-115567319D01*
X137519235Y-115567319D01*
X137574823Y-115599413D01*
X137762079Y-115786669D01*
X137788959Y-115826897D01*
X137798398Y-115874350D01*
X137798398Y-117861240D01*
X137781785Y-117923240D01*
X137736398Y-117968627D01*
X137674398Y-117985240D01*
X137476026Y-117985240D01*
X137446220Y-117988443D01*
X137416413Y-117991648D01*
X137281567Y-118041943D01*
X137166352Y-118128193D01*
X137080102Y-118243407D01*
X137029807Y-118378255D01*
X137023398Y-118437869D01*
X137023398Y-120333608D01*
X137029807Y-120393222D01*
X137080102Y-120528070D01*
X137166352Y-120643285D01*
X137281567Y-120729535D01*
X137353414Y-120756332D01*
X137361803Y-120759461D01*
X137411339Y-120793476D01*
X137439066Y-120846786D01*
X137438473Y-120906873D01*
X137409700Y-120959626D01*
X137314918Y-121062587D01*
X137187974Y-121256889D01*
X137094742Y-121469435D01*
X137094740Y-121469439D01*
X137094741Y-121469439D01*
X137067938Y-121575283D01*
X137037763Y-121694439D01*
X137018597Y-121925738D01*
X137037763Y-122157038D01*
X137037763Y-122157040D01*
X137037764Y-122157044D01*
X137090762Y-122366326D01*
X137094742Y-122382042D01*
X137178276Y-122572480D01*
X137187974Y-122594588D01*
X137314919Y-122788892D01*
X137472114Y-122959652D01*
X137655272Y-123102209D01*
X137859395Y-123212675D01*
X137896660Y-123225468D01*
X138078913Y-123288036D01*
X138078915Y-123288036D01*
X138078917Y-123288037D01*
X138307849Y-123326239D01*
X138539946Y-123326239D01*
X138539947Y-123326239D01*
X138768879Y-123288037D01*
X138988401Y-123212675D01*
X139192524Y-123102209D01*
X139375682Y-122959652D01*
X139376258Y-122959026D01*
X141514526Y-122959026D01*
X141587515Y-123010133D01*
X141793673Y-123106266D01*
X142013397Y-123165141D01*
X142240000Y-123184966D01*
X142466602Y-123165141D01*
X142686326Y-123106266D01*
X142892480Y-123010134D01*
X142965472Y-122959025D01*
X142721229Y-122714782D01*
X162161804Y-122714782D01*
X162180970Y-122946082D01*
X162180970Y-122946084D01*
X162180971Y-122946088D01*
X162237948Y-123171083D01*
X162237949Y-123171086D01*
X162289249Y-123288037D01*
X162331181Y-123383632D01*
X162458126Y-123577936D01*
X162615321Y-123748696D01*
X162798479Y-123891253D01*
X163002602Y-124001719D01*
X163112363Y-124039400D01*
X163222120Y-124077080D01*
X163222122Y-124077080D01*
X163222124Y-124077081D01*
X163451056Y-124115283D01*
X163683153Y-124115283D01*
X163683154Y-124115283D01*
X163912086Y-124077081D01*
X164131608Y-124001719D01*
X164335731Y-123891253D01*
X164518889Y-123748696D01*
X164676084Y-123577936D01*
X164803029Y-123383632D01*
X164896262Y-123171083D01*
X164953239Y-122946088D01*
X164972405Y-122714783D01*
X164953239Y-122483478D01*
X164896262Y-122258483D01*
X164803029Y-122045934D01*
X164720752Y-121919999D01*
X166334531Y-121919999D01*
X166354364Y-122146689D01*
X166413261Y-122366497D01*
X166509432Y-122572735D01*
X166639953Y-122759140D01*
X166800859Y-122920046D01*
X166987264Y-123050567D01*
X166987265Y-123050567D01*
X166987266Y-123050568D01*
X167193504Y-123146739D01*
X167413308Y-123205635D01*
X167640000Y-123225468D01*
X167866692Y-123205635D01*
X168086496Y-123146739D01*
X168292734Y-123050568D01*
X168366344Y-122999026D01*
X171914526Y-122999026D01*
X171987515Y-123050133D01*
X172193673Y-123146266D01*
X172413397Y-123205141D01*
X172640000Y-123224966D01*
X172866602Y-123205141D01*
X173086326Y-123146266D01*
X173292480Y-123050134D01*
X173365472Y-122999025D01*
X172640001Y-122273553D01*
X172640000Y-122273553D01*
X171914526Y-122999025D01*
X171914526Y-122999026D01*
X168366344Y-122999026D01*
X168479139Y-122920047D01*
X168640047Y-122759139D01*
X168770568Y-122572734D01*
X168866739Y-122366496D01*
X168925635Y-122146692D01*
X168945468Y-121920000D01*
X171335033Y-121920000D01*
X171354858Y-122146602D01*
X171413733Y-122366326D01*
X171509866Y-122572484D01*
X171560972Y-122645471D01*
X171560974Y-122645472D01*
X172286446Y-121920001D01*
X172286446Y-121920000D01*
X172286445Y-121919999D01*
X172993553Y-121919999D01*
X173719025Y-122645472D01*
X173770134Y-122572480D01*
X173866266Y-122366326D01*
X173925141Y-122146602D01*
X173944966Y-121920000D01*
X173925141Y-121693397D01*
X173866266Y-121473673D01*
X173770133Y-121267515D01*
X173719025Y-121194526D01*
X172993553Y-121919998D01*
X172993553Y-121919999D01*
X172286445Y-121919999D01*
X171560973Y-121194526D01*
X171560973Y-121194527D01*
X171509865Y-121267516D01*
X171413733Y-121473672D01*
X171354858Y-121693397D01*
X171335033Y-121920000D01*
X168945468Y-121920000D01*
X168925635Y-121693308D01*
X168866739Y-121473504D01*
X168770568Y-121267266D01*
X168742734Y-121227515D01*
X168640046Y-121080859D01*
X168479140Y-120919953D01*
X168366344Y-120840973D01*
X171914526Y-120840973D01*
X172640000Y-121566446D01*
X172640001Y-121566446D01*
X173365472Y-120840974D01*
X173365471Y-120840972D01*
X173292484Y-120789866D01*
X173086326Y-120693733D01*
X172866602Y-120634858D01*
X172640000Y-120615033D01*
X172413397Y-120634858D01*
X172193672Y-120693733D01*
X171987516Y-120789865D01*
X171914527Y-120840973D01*
X171914526Y-120840973D01*
X168366344Y-120840973D01*
X168292735Y-120789432D01*
X168086497Y-120693261D01*
X167866689Y-120634364D01*
X167640000Y-120614531D01*
X167413310Y-120634364D01*
X167193502Y-120693261D01*
X166987264Y-120789432D01*
X166800859Y-120919953D01*
X166639953Y-121080859D01*
X166509432Y-121267264D01*
X166413261Y-121473502D01*
X166354364Y-121693310D01*
X166334531Y-121919999D01*
X164720752Y-121919999D01*
X164676084Y-121851630D01*
X164581300Y-121748667D01*
X164552529Y-121695917D01*
X164551936Y-121635830D01*
X164579663Y-121582520D01*
X164629197Y-121548505D01*
X164709436Y-121518579D01*
X164824651Y-121432329D01*
X164910901Y-121317114D01*
X164961196Y-121182266D01*
X164967605Y-121122656D01*
X164967604Y-119226911D01*
X164961196Y-119167300D01*
X164910901Y-119032452D01*
X164824651Y-118917237D01*
X164709436Y-118830987D01*
X164574588Y-118780692D01*
X164514978Y-118774283D01*
X164514974Y-118774283D01*
X162619235Y-118774283D01*
X162559620Y-118780692D01*
X162424774Y-118830987D01*
X162309559Y-118917237D01*
X162223309Y-119032451D01*
X162173014Y-119167299D01*
X162166605Y-119226913D01*
X162166605Y-121122652D01*
X162173014Y-121182267D01*
X162177587Y-121194527D01*
X162223309Y-121317114D01*
X162309559Y-121432329D01*
X162424774Y-121518579D01*
X162505010Y-121548505D01*
X162554546Y-121582520D01*
X162582273Y-121635830D01*
X162581680Y-121695917D01*
X162552907Y-121748670D01*
X162458125Y-121851631D01*
X162331181Y-122045933D01*
X162237949Y-122258479D01*
X162180970Y-122483483D01*
X162161804Y-122714782D01*
X142721229Y-122714782D01*
X142240001Y-122233553D01*
X142240000Y-122233553D01*
X141514526Y-122959025D01*
X141514526Y-122959026D01*
X139376258Y-122959026D01*
X139532877Y-122788892D01*
X139659822Y-122594588D01*
X139753055Y-122382039D01*
X139810032Y-122157044D01*
X139829198Y-121925739D01*
X139828722Y-121920000D01*
X139825408Y-121880000D01*
X140935033Y-121880000D01*
X140954858Y-122106602D01*
X141013733Y-122326326D01*
X141109866Y-122532484D01*
X141160972Y-122605471D01*
X141160974Y-122605472D01*
X141886446Y-121880001D01*
X142593553Y-121880001D01*
X143319025Y-122605472D01*
X143370134Y-122532480D01*
X143466266Y-122326326D01*
X143525141Y-122106602D01*
X143544966Y-121880000D01*
X143525141Y-121653397D01*
X143466266Y-121433673D01*
X143370133Y-121227515D01*
X143319025Y-121154526D01*
X142593553Y-121880000D01*
X142593553Y-121880001D01*
X141886446Y-121880001D01*
X141886446Y-121880000D01*
X141160973Y-121154526D01*
X141160973Y-121154527D01*
X141109865Y-121227516D01*
X141013733Y-121433672D01*
X140954858Y-121653397D01*
X140935033Y-121880000D01*
X139825408Y-121880000D01*
X139814526Y-121748670D01*
X139810032Y-121694434D01*
X139753055Y-121469439D01*
X139659822Y-121256890D01*
X139544817Y-121080861D01*
X139532878Y-121062587D01*
X139459635Y-120983024D01*
X139438093Y-120959623D01*
X139409322Y-120906873D01*
X139408729Y-120846786D01*
X139436456Y-120793476D01*
X139485990Y-120759461D01*
X139566229Y-120729535D01*
X139681444Y-120643285D01*
X139767694Y-120528070D01*
X139817989Y-120393222D01*
X139824398Y-120333612D01*
X139824397Y-119379999D01*
X140934531Y-119379999D01*
X140954364Y-119606689D01*
X141013261Y-119826497D01*
X141109432Y-120032735D01*
X141239953Y-120219140D01*
X141400859Y-120380046D01*
X141587264Y-120510567D01*
X141587265Y-120510567D01*
X141587266Y-120510568D01*
X141602975Y-120517893D01*
X141655150Y-120563649D01*
X141674570Y-120630274D01*
X141655151Y-120696899D01*
X141602977Y-120742656D01*
X141587517Y-120749865D01*
X141514527Y-120800973D01*
X141514526Y-120800973D01*
X142240000Y-121526446D01*
X142240001Y-121526446D01*
X142783422Y-120983024D01*
X145957061Y-120983024D01*
X145976894Y-121209713D01*
X146035791Y-121429521D01*
X146131962Y-121635759D01*
X146262483Y-121822164D01*
X146423389Y-121983070D01*
X146609794Y-122113591D01*
X146609795Y-122113591D01*
X146609796Y-122113592D01*
X146816034Y-122209763D01*
X147035838Y-122268659D01*
X147262530Y-122288492D01*
X147489222Y-122268659D01*
X147709026Y-122209763D01*
X147915264Y-122113592D01*
X148101669Y-121983071D01*
X148262577Y-121822163D01*
X148393098Y-121635758D01*
X148489269Y-121429520D01*
X148548165Y-121209716D01*
X148567998Y-120983024D01*
X153577061Y-120983024D01*
X153596894Y-121209713D01*
X153655791Y-121429521D01*
X153751962Y-121635759D01*
X153882483Y-121822164D01*
X154043389Y-121983070D01*
X154229794Y-122113591D01*
X154229795Y-122113591D01*
X154229796Y-122113592D01*
X154436034Y-122209763D01*
X154655838Y-122268659D01*
X154882530Y-122288492D01*
X155109222Y-122268659D01*
X155329026Y-122209763D01*
X155535264Y-122113592D01*
X155721669Y-121983071D01*
X155882577Y-121822163D01*
X156013098Y-121635758D01*
X156109269Y-121429520D01*
X156168165Y-121209716D01*
X156187998Y-120983024D01*
X156168165Y-120756332D01*
X156109269Y-120536528D01*
X156013098Y-120330290D01*
X155882577Y-120143885D01*
X155882576Y-120143883D01*
X155721670Y-119982977D01*
X155535265Y-119852456D01*
X155329027Y-119756285D01*
X155109219Y-119697388D01*
X154882530Y-119677555D01*
X154655840Y-119697388D01*
X154436032Y-119756285D01*
X154229794Y-119852456D01*
X154043389Y-119982977D01*
X153882483Y-120143883D01*
X153751962Y-120330288D01*
X153655791Y-120536526D01*
X153596894Y-120756334D01*
X153577061Y-120983024D01*
X148567998Y-120983024D01*
X148548165Y-120756332D01*
X148489269Y-120536528D01*
X148393098Y-120330290D01*
X148262577Y-120143885D01*
X148262576Y-120143883D01*
X148101670Y-119982977D01*
X147915265Y-119852456D01*
X147709027Y-119756285D01*
X147489219Y-119697388D01*
X147262530Y-119677555D01*
X147035840Y-119697388D01*
X146816032Y-119756285D01*
X146609794Y-119852456D01*
X146423389Y-119982977D01*
X146262483Y-120143883D01*
X146131962Y-120330288D01*
X146035791Y-120536526D01*
X145976894Y-120756334D01*
X145957061Y-120983024D01*
X142783422Y-120983024D01*
X142965472Y-120800974D01*
X142965471Y-120800972D01*
X142892483Y-120749866D01*
X142877023Y-120742657D01*
X142824847Y-120696899D01*
X142805428Y-120630273D01*
X142824849Y-120563647D01*
X142877023Y-120517893D01*
X142892734Y-120510568D01*
X143079139Y-120380047D01*
X143240047Y-120219139D01*
X143370568Y-120032734D01*
X143466739Y-119826496D01*
X143525635Y-119606692D01*
X143545468Y-119380000D01*
X143525635Y-119153308D01*
X143466739Y-118933504D01*
X143370568Y-118727266D01*
X143240047Y-118540861D01*
X143240046Y-118540859D01*
X143079140Y-118379953D01*
X142892735Y-118249432D01*
X142686497Y-118153261D01*
X142466689Y-118094364D01*
X142240000Y-118074531D01*
X142013310Y-118094364D01*
X141793502Y-118153261D01*
X141587264Y-118249432D01*
X141400859Y-118379953D01*
X141239953Y-118540859D01*
X141109432Y-118727264D01*
X141013261Y-118933502D01*
X140954364Y-119153310D01*
X140934531Y-119379999D01*
X139824397Y-119379999D01*
X139824397Y-118437867D01*
X139817989Y-118378256D01*
X139767694Y-118243408D01*
X139681444Y-118128193D01*
X139566229Y-118041943D01*
X139431381Y-117991648D01*
X139371771Y-117985239D01*
X139371767Y-117985239D01*
X139173398Y-117985239D01*
X139111398Y-117968626D01*
X139066011Y-117923239D01*
X139049398Y-117861239D01*
X139049398Y-116839999D01*
X146014531Y-116839999D01*
X146034364Y-117066689D01*
X146093261Y-117286497D01*
X146189432Y-117492735D01*
X146319953Y-117679140D01*
X146480859Y-117840046D01*
X146667264Y-117970567D01*
X146667265Y-117970567D01*
X146667266Y-117970568D01*
X146873504Y-118066739D01*
X147093308Y-118125635D01*
X147320000Y-118145468D01*
X147546692Y-118125635D01*
X147766496Y-118066739D01*
X147972734Y-117970568D01*
X148159139Y-117840047D01*
X148320047Y-117679139D01*
X148450568Y-117492734D01*
X148546739Y-117286496D01*
X148605635Y-117066692D01*
X148625468Y-116840000D01*
X148625468Y-116839998D01*
X150219284Y-116839998D01*
X150239070Y-117028256D01*
X150297564Y-117208283D01*
X150392210Y-117372215D01*
X150518873Y-117512888D01*
X150672013Y-117624150D01*
X150844941Y-117701143D01*
X151030096Y-117740499D01*
X151030098Y-117740499D01*
X151219390Y-117740499D01*
X151219392Y-117740499D01*
X151357792Y-117711081D01*
X151404547Y-117701143D01*
X151577474Y-117624150D01*
X151730615Y-117512887D01*
X151736342Y-117506525D01*
X151778056Y-117476219D01*
X151828491Y-117465499D01*
X153725811Y-117465499D01*
X153783068Y-117479510D01*
X153827386Y-117518376D01*
X153939953Y-117679140D01*
X154100859Y-117840046D01*
X154287264Y-117970567D01*
X154287265Y-117970567D01*
X154287266Y-117970568D01*
X154493504Y-118066739D01*
X154713308Y-118125635D01*
X154940000Y-118145468D01*
X155166692Y-118125635D01*
X155386496Y-118066739D01*
X155592734Y-117970568D01*
X155779139Y-117840047D01*
X155940047Y-117679139D01*
X156070568Y-117492734D01*
X156166739Y-117286496D01*
X156219390Y-117090000D01*
X171389364Y-117090000D01*
X171446569Y-117303492D01*
X171546399Y-117517576D01*
X171681893Y-117711081D01*
X171848918Y-117878106D01*
X172042423Y-118013600D01*
X172256507Y-118113430D01*
X172469999Y-118170635D01*
X172470000Y-118170636D01*
X172470000Y-117090000D01*
X172970000Y-117090000D01*
X172970000Y-118170635D01*
X173183492Y-118113430D01*
X173397576Y-118013600D01*
X173591081Y-117878106D01*
X173758106Y-117711081D01*
X173893600Y-117517576D01*
X173993430Y-117303492D01*
X174050636Y-117090000D01*
X172970000Y-117090000D01*
X172470000Y-117090000D01*
X171389364Y-117090000D01*
X156219390Y-117090000D01*
X156225635Y-117066692D01*
X156245468Y-116840000D01*
X156225635Y-116613308D01*
X156166739Y-116393504D01*
X156070568Y-116187266D01*
X156056456Y-116167112D01*
X155940046Y-116000859D01*
X155779140Y-115839953D01*
X155592732Y-115709430D01*
X155534724Y-115682380D01*
X155482549Y-115636623D01*
X155463130Y-115569997D01*
X155482550Y-115503373D01*
X155534721Y-115457619D01*
X155592734Y-115430568D01*
X155779139Y-115300047D01*
X155940047Y-115139139D01*
X156070568Y-114952734D01*
X156166739Y-114746496D01*
X156225635Y-114526692D01*
X156245468Y-114300000D01*
X156225635Y-114073308D01*
X156166739Y-113853504D01*
X156070568Y-113647266D01*
X156068677Y-113644565D01*
X163358478Y-113644565D01*
X163431467Y-113695672D01*
X163637625Y-113791805D01*
X163857349Y-113850680D01*
X164083952Y-113870505D01*
X164310554Y-113850680D01*
X164530278Y-113791805D01*
X164736432Y-113695673D01*
X164809424Y-113644564D01*
X164083953Y-112919092D01*
X164083952Y-112919092D01*
X163358478Y-113644564D01*
X163358478Y-113644565D01*
X156068677Y-113644565D01*
X156052996Y-113622171D01*
X155940046Y-113460859D01*
X155779140Y-113299953D01*
X155592736Y-113169433D01*
X155534723Y-113142381D01*
X155482548Y-113096623D01*
X155463129Y-113029997D01*
X155482549Y-112963372D01*
X155534721Y-112917619D01*
X155592734Y-112890568D01*
X155779139Y-112760047D01*
X155940047Y-112599139D01*
X155963574Y-112565538D01*
X162778985Y-112565538D01*
X162798810Y-112792141D01*
X162857685Y-113011865D01*
X162953818Y-113218023D01*
X163004924Y-113291010D01*
X163004925Y-113291011D01*
X163730398Y-112565539D01*
X163730398Y-112565538D01*
X164437505Y-112565538D01*
X165162977Y-113291011D01*
X165214086Y-113218019D01*
X165310218Y-113011865D01*
X165369093Y-112792141D01*
X165388918Y-112565538D01*
X165369093Y-112338936D01*
X165310218Y-112119212D01*
X165214085Y-111913054D01*
X165162977Y-111840065D01*
X164437505Y-112565537D01*
X164437505Y-112565538D01*
X163730398Y-112565538D01*
X163730398Y-112565537D01*
X163004925Y-111840066D01*
X162953817Y-111913055D01*
X162857685Y-112119211D01*
X162798810Y-112338936D01*
X162778985Y-112565538D01*
X155963574Y-112565538D01*
X156070568Y-112412734D01*
X156166739Y-112206496D01*
X156225635Y-111986692D01*
X156245468Y-111760000D01*
X156225635Y-111533308D01*
X156213096Y-111486512D01*
X163358478Y-111486512D01*
X164083952Y-112211985D01*
X164083953Y-112211985D01*
X164809424Y-111486513D01*
X164809423Y-111486511D01*
X164736436Y-111435405D01*
X164530278Y-111339272D01*
X164310554Y-111280397D01*
X164083952Y-111260572D01*
X163857349Y-111280397D01*
X163637624Y-111339272D01*
X163431468Y-111435404D01*
X163358479Y-111486512D01*
X163358478Y-111486512D01*
X156213096Y-111486512D01*
X156166739Y-111313504D01*
X156070568Y-111107266D01*
X156060909Y-111093472D01*
X155940046Y-110920859D01*
X155779140Y-110759953D01*
X155592733Y-110629431D01*
X155534725Y-110602382D01*
X155482549Y-110556625D01*
X155463129Y-110490000D01*
X155482549Y-110423375D01*
X155534725Y-110377618D01*
X155592734Y-110350568D01*
X155779139Y-110220047D01*
X155940047Y-110059139D01*
X156070568Y-109872734D01*
X156166739Y-109666496D01*
X156225635Y-109446692D01*
X156245468Y-109220000D01*
X156225635Y-108993308D01*
X156166739Y-108773504D01*
X156070568Y-108567266D01*
X156061995Y-108555023D01*
X155940046Y-108380859D01*
X155779140Y-108219953D01*
X155592736Y-108089433D01*
X155534721Y-108062380D01*
X155534132Y-108062105D01*
X155481958Y-108016348D01*
X155462539Y-107949723D01*
X155481959Y-107883098D01*
X155534135Y-107837342D01*
X155592479Y-107810135D01*
X155778819Y-107679658D01*
X155939658Y-107518819D01*
X156070134Y-107332480D01*
X156166266Y-107126326D01*
X156218872Y-106930000D01*
X153661128Y-106930000D01*
X153713733Y-107126326D01*
X153809865Y-107332480D01*
X153940341Y-107518819D01*
X154101180Y-107679658D01*
X154287519Y-107810134D01*
X154345865Y-107837342D01*
X154398040Y-107883099D01*
X154417460Y-107949723D01*
X154398041Y-108016348D01*
X154345866Y-108062105D01*
X154287267Y-108089430D01*
X154100859Y-108219953D01*
X153939953Y-108380859D01*
X153809432Y-108567264D01*
X153713261Y-108773502D01*
X153654364Y-108993310D01*
X153634531Y-109220000D01*
X153654364Y-109446689D01*
X153713261Y-109666497D01*
X153809432Y-109872735D01*
X153939953Y-110059140D01*
X154100859Y-110220046D01*
X154287263Y-110350566D01*
X154287266Y-110350568D01*
X154345275Y-110377618D01*
X154397450Y-110423375D01*
X154416869Y-110490000D01*
X154397450Y-110556625D01*
X154345275Y-110602382D01*
X154287263Y-110629433D01*
X154100859Y-110759953D01*
X153939953Y-110920859D01*
X153809432Y-111107264D01*
X153713261Y-111313502D01*
X153654365Y-111533307D01*
X153634531Y-111760000D01*
X153654364Y-111986689D01*
X153713261Y-112206497D01*
X153809432Y-112412735D01*
X153939953Y-112599140D01*
X154100859Y-112760046D01*
X154196486Y-112827004D01*
X154287266Y-112890568D01*
X154345275Y-112917618D01*
X154397450Y-112963375D01*
X154416869Y-113030000D01*
X154397450Y-113096625D01*
X154345275Y-113142382D01*
X154287263Y-113169433D01*
X154100859Y-113299953D01*
X153939953Y-113460859D01*
X153809432Y-113647264D01*
X153713261Y-113853502D01*
X153654364Y-114073310D01*
X153634531Y-114299999D01*
X153654364Y-114526689D01*
X153713261Y-114746497D01*
X153809432Y-114952735D01*
X153939953Y-115139140D01*
X154100859Y-115300046D01*
X154253757Y-115407105D01*
X154287266Y-115430568D01*
X154345275Y-115457618D01*
X154397450Y-115503375D01*
X154416869Y-115570000D01*
X154397450Y-115636625D01*
X154345275Y-115682382D01*
X154287263Y-115709433D01*
X154100859Y-115839953D01*
X153939953Y-116000859D01*
X153827388Y-116161622D01*
X153783070Y-116200488D01*
X153725813Y-116214499D01*
X151828491Y-116214499D01*
X151778056Y-116203779D01*
X151736342Y-116173472D01*
X151730615Y-116167111D01*
X151577474Y-116055848D01*
X151577473Y-116055847D01*
X151577471Y-116055846D01*
X151404546Y-115978854D01*
X151219392Y-115939499D01*
X151219390Y-115939499D01*
X151030098Y-115939499D01*
X151030096Y-115939499D01*
X150844941Y-115978854D01*
X150672013Y-116055847D01*
X150518873Y-116167109D01*
X150392210Y-116307782D01*
X150297564Y-116471714D01*
X150239070Y-116651741D01*
X150219284Y-116839998D01*
X148625468Y-116839998D01*
X148605635Y-116613308D01*
X148546739Y-116393504D01*
X148450568Y-116187266D01*
X148436456Y-116167112D01*
X148320046Y-116000859D01*
X148159140Y-115839953D01*
X147972732Y-115709430D01*
X147914724Y-115682380D01*
X147862549Y-115636623D01*
X147843130Y-115569997D01*
X147862550Y-115503373D01*
X147914721Y-115457619D01*
X147972734Y-115430568D01*
X148159139Y-115300047D01*
X148320047Y-115139139D01*
X148450568Y-114952734D01*
X148546739Y-114746496D01*
X148605635Y-114526692D01*
X148625468Y-114300000D01*
X148605635Y-114073308D01*
X148546739Y-113853504D01*
X148450568Y-113647266D01*
X148432996Y-113622171D01*
X148320046Y-113460859D01*
X148159140Y-113299953D01*
X147972736Y-113169433D01*
X147914723Y-113142381D01*
X147862548Y-113096623D01*
X147843129Y-113029997D01*
X147862549Y-112963372D01*
X147914721Y-112917619D01*
X147972734Y-112890568D01*
X148159139Y-112760047D01*
X148320047Y-112599139D01*
X148450568Y-112412734D01*
X148546739Y-112206496D01*
X148605635Y-111986692D01*
X148625468Y-111760000D01*
X148605635Y-111533308D01*
X148593096Y-111486513D01*
X148587319Y-111464951D01*
X148587319Y-111400763D01*
X148619411Y-111345178D01*
X151004964Y-108959626D01*
X151045193Y-108932746D01*
X151092646Y-108923307D01*
X151213530Y-108923307D01*
X151336966Y-108897069D01*
X151398685Y-108883951D01*
X151571612Y-108806958D01*
X151617658Y-108773504D01*
X151724752Y-108695696D01*
X151851415Y-108555023D01*
X151946061Y-108391091D01*
X151956535Y-108358855D01*
X152004556Y-108211063D01*
X152024342Y-108022807D01*
X152004556Y-107834551D01*
X151966846Y-107718491D01*
X151946061Y-107654522D01*
X151851415Y-107490590D01*
X151724752Y-107349917D01*
X151571612Y-107238655D01*
X151398684Y-107161662D01*
X151213530Y-107122307D01*
X151213528Y-107122307D01*
X151024236Y-107122307D01*
X151024234Y-107122307D01*
X150839079Y-107161662D01*
X150666151Y-107238655D01*
X150513011Y-107349917D01*
X150386348Y-107490590D01*
X150291702Y-107654522D01*
X150233208Y-107834549D01*
X150222806Y-107933523D01*
X150211405Y-107973945D01*
X150187166Y-108008242D01*
X148832819Y-109362588D01*
X148781392Y-109393489D01*
X148721477Y-109396629D01*
X148667102Y-109371273D01*
X148630995Y-109323357D01*
X148621610Y-109264099D01*
X148625468Y-109219999D01*
X148608998Y-109031744D01*
X148605635Y-108993308D01*
X148546739Y-108773504D01*
X148450568Y-108567266D01*
X148441995Y-108555023D01*
X148320046Y-108380859D01*
X148159140Y-108219953D01*
X147972732Y-108089430D01*
X147914724Y-108062380D01*
X147862549Y-108016623D01*
X147843130Y-107949997D01*
X147862550Y-107883373D01*
X147914721Y-107837619D01*
X147972734Y-107810568D01*
X148159139Y-107680047D01*
X148320047Y-107519139D01*
X148450568Y-107332734D01*
X148546739Y-107126496D01*
X148605635Y-106906692D01*
X148625468Y-106680000D01*
X148605635Y-106453308D01*
X148546739Y-106233504D01*
X148450568Y-106027266D01*
X148432996Y-106002171D01*
X148320046Y-105840859D01*
X148159140Y-105679953D01*
X147972733Y-105549431D01*
X147914725Y-105522382D01*
X147862549Y-105476625D01*
X147843129Y-105410000D01*
X147862549Y-105343375D01*
X147914725Y-105297618D01*
X147972734Y-105270568D01*
X148159139Y-105140047D01*
X148320047Y-104979139D01*
X148450568Y-104792734D01*
X148546739Y-104586496D01*
X148605635Y-104366692D01*
X148625468Y-104140000D01*
X153634531Y-104140000D01*
X153654364Y-104366689D01*
X153713261Y-104586497D01*
X153809432Y-104792735D01*
X153939953Y-104979140D01*
X154100859Y-105140046D01*
X154287264Y-105270567D01*
X154287265Y-105270567D01*
X154287266Y-105270568D01*
X154345865Y-105297893D01*
X154398040Y-105343650D01*
X154417460Y-105410274D01*
X154398041Y-105476899D01*
X154345866Y-105522656D01*
X154287522Y-105549863D01*
X154101180Y-105680341D01*
X153940341Y-105841180D01*
X153809865Y-106027519D01*
X153713733Y-106233673D01*
X153661128Y-106429999D01*
X153661128Y-106430000D01*
X156218872Y-106430000D01*
X156218871Y-106429999D01*
X156166266Y-106233673D01*
X156070134Y-106027519D01*
X155939658Y-105841180D01*
X155778819Y-105680341D01*
X155592482Y-105549866D01*
X155534133Y-105522657D01*
X155481958Y-105476899D01*
X155462539Y-105410274D01*
X155481959Y-105343649D01*
X155534134Y-105297893D01*
X155592734Y-105270568D01*
X155779139Y-105140047D01*
X155940047Y-104979139D01*
X156070568Y-104792734D01*
X156166739Y-104586496D01*
X156225635Y-104366692D01*
X156245468Y-104140000D01*
X158794531Y-104140000D01*
X158814364Y-104366689D01*
X158873261Y-104586497D01*
X158969432Y-104792735D01*
X159099953Y-104979140D01*
X159260859Y-105140046D01*
X159447264Y-105270567D01*
X159447265Y-105270567D01*
X159447266Y-105270568D01*
X159653504Y-105366739D01*
X159873308Y-105425635D01*
X160100000Y-105445468D01*
X160326692Y-105425635D01*
X160546496Y-105366739D01*
X160752734Y-105270568D01*
X160826344Y-105219026D01*
X164374526Y-105219026D01*
X164447515Y-105270133D01*
X164653673Y-105366266D01*
X164873397Y-105425141D01*
X165100000Y-105444966D01*
X165326602Y-105425141D01*
X165546326Y-105366266D01*
X165752480Y-105270134D01*
X165825472Y-105219025D01*
X165100001Y-104493553D01*
X165100000Y-104493553D01*
X164374526Y-105219025D01*
X164374526Y-105219026D01*
X160826344Y-105219026D01*
X160939139Y-105140047D01*
X161100047Y-104979139D01*
X161230568Y-104792734D01*
X161326739Y-104586496D01*
X161385635Y-104366692D01*
X161405468Y-104140000D01*
X161405468Y-104139999D01*
X163795033Y-104139999D01*
X163814858Y-104366602D01*
X163873733Y-104586326D01*
X163969866Y-104792484D01*
X164020972Y-104865471D01*
X164020974Y-104865472D01*
X164746446Y-104140001D01*
X164746446Y-104140000D01*
X165453553Y-104140000D01*
X166179025Y-104865472D01*
X166230134Y-104792480D01*
X166326266Y-104586326D01*
X166385141Y-104366602D01*
X166404966Y-104139999D01*
X166385141Y-103913397D01*
X166326266Y-103693673D01*
X166230133Y-103487515D01*
X166179025Y-103414526D01*
X165453553Y-104139998D01*
X165453553Y-104140000D01*
X164746446Y-104140000D01*
X164020973Y-103414526D01*
X164020973Y-103414527D01*
X163969865Y-103487516D01*
X163873733Y-103693672D01*
X163814858Y-103913397D01*
X163795033Y-104139999D01*
X161405468Y-104139999D01*
X161385635Y-103913308D01*
X161326739Y-103693504D01*
X161230568Y-103487266D01*
X161220909Y-103473472D01*
X161100046Y-103300859D01*
X160939140Y-103139953D01*
X160826344Y-103060973D01*
X164374526Y-103060973D01*
X165100000Y-103786446D01*
X165100001Y-103786446D01*
X165825472Y-103060974D01*
X165825471Y-103060972D01*
X165752484Y-103009866D01*
X165546326Y-102913733D01*
X165326602Y-102854858D01*
X165100000Y-102835033D01*
X164873397Y-102854858D01*
X164653672Y-102913733D01*
X164447516Y-103009865D01*
X164374527Y-103060973D01*
X164374526Y-103060973D01*
X160826344Y-103060973D01*
X160752735Y-103009432D01*
X160546497Y-102913261D01*
X160326689Y-102854364D01*
X160100000Y-102834531D01*
X159873310Y-102854364D01*
X159653502Y-102913261D01*
X159447264Y-103009432D01*
X159260859Y-103139953D01*
X159099953Y-103300859D01*
X158969432Y-103487264D01*
X158873261Y-103693502D01*
X158814364Y-103913310D01*
X158794531Y-104140000D01*
X156245468Y-104140000D01*
X156225635Y-103913308D01*
X156166739Y-103693504D01*
X156070568Y-103487266D01*
X156060909Y-103473472D01*
X155940046Y-103300859D01*
X155779140Y-103139953D01*
X155592733Y-103009431D01*
X155534725Y-102982382D01*
X155482549Y-102936625D01*
X155463129Y-102870000D01*
X155482549Y-102803375D01*
X155534725Y-102757618D01*
X155535317Y-102757342D01*
X155592734Y-102730568D01*
X155779139Y-102600047D01*
X155940047Y-102439139D01*
X156070568Y-102252734D01*
X156166739Y-102046496D01*
X156225635Y-101826692D01*
X156245468Y-101600000D01*
X156225635Y-101373308D01*
X156166739Y-101153504D01*
X156070568Y-100947266D01*
X156065567Y-100940124D01*
X155940046Y-100760859D01*
X155779140Y-100599953D01*
X155592733Y-100469431D01*
X155534725Y-100442382D01*
X155482549Y-100396625D01*
X155463129Y-100330000D01*
X155482549Y-100263375D01*
X155534725Y-100217618D01*
X155592734Y-100190568D01*
X155666344Y-100139026D01*
X159374526Y-100139026D01*
X159447515Y-100190133D01*
X159653673Y-100286266D01*
X159873397Y-100345141D01*
X160100000Y-100364966D01*
X160326602Y-100345141D01*
X160546326Y-100286266D01*
X160752480Y-100190134D01*
X160825472Y-100139025D01*
X160100001Y-99413553D01*
X160100000Y-99413553D01*
X159374526Y-100139025D01*
X159374526Y-100139026D01*
X155666344Y-100139026D01*
X155779139Y-100060047D01*
X155940047Y-99899139D01*
X156070568Y-99712734D01*
X156166739Y-99506496D01*
X156225635Y-99286692D01*
X156245468Y-99060000D01*
X158795033Y-99060000D01*
X158814858Y-99286602D01*
X158873733Y-99506326D01*
X158969866Y-99712484D01*
X159020972Y-99785471D01*
X159020974Y-99785472D01*
X159746446Y-99060001D01*
X159746446Y-99060000D01*
X160453553Y-99060000D01*
X161179025Y-99785472D01*
X161230134Y-99712480D01*
X161326266Y-99506326D01*
X161385141Y-99286602D01*
X161404966Y-99060000D01*
X161385141Y-98833397D01*
X161326266Y-98613673D01*
X161230133Y-98407515D01*
X161179025Y-98334526D01*
X160453553Y-99059998D01*
X160453553Y-99060000D01*
X159746446Y-99060000D01*
X159020973Y-98334526D01*
X159020973Y-98334527D01*
X158969865Y-98407516D01*
X158873733Y-98613672D01*
X158814858Y-98833397D01*
X158795033Y-99060000D01*
X156245468Y-99060000D01*
X156225635Y-98833308D01*
X156166739Y-98613504D01*
X156070568Y-98407266D01*
X156069507Y-98405751D01*
X155940046Y-98220859D01*
X155779140Y-98059953D01*
X155666343Y-97980973D01*
X159374526Y-97980973D01*
X160100000Y-98706446D01*
X160100001Y-98706446D01*
X160825472Y-97980974D01*
X160825471Y-97980972D01*
X160752484Y-97929866D01*
X160546326Y-97833733D01*
X160326602Y-97774858D01*
X160100000Y-97755033D01*
X159873397Y-97774858D01*
X159653672Y-97833733D01*
X159447516Y-97929865D01*
X159374527Y-97980973D01*
X159374526Y-97980973D01*
X155666343Y-97980973D01*
X155592733Y-97929431D01*
X155551727Y-97910310D01*
X155534724Y-97902381D01*
X155482549Y-97856625D01*
X155463129Y-97790000D01*
X155482549Y-97723375D01*
X155534725Y-97677618D01*
X155592734Y-97650568D01*
X155779139Y-97520047D01*
X155940047Y-97359139D01*
X156070568Y-97172734D01*
X156166739Y-96966496D01*
X156225635Y-96746692D01*
X156245468Y-96520000D01*
X156225635Y-96293308D01*
X156166739Y-96073504D01*
X156070568Y-95867266D01*
X156052996Y-95842171D01*
X155940046Y-95680859D01*
X155779140Y-95519953D01*
X155592733Y-95389431D01*
X155534725Y-95362382D01*
X155482549Y-95316625D01*
X155463129Y-95250000D01*
X155482549Y-95183375D01*
X155534725Y-95137618D01*
X155592734Y-95110568D01*
X155779139Y-94980047D01*
X155940047Y-94819139D01*
X156070568Y-94632734D01*
X156166739Y-94426496D01*
X156184244Y-94361166D01*
X160458283Y-94361166D01*
X160531272Y-94412273D01*
X160737430Y-94508406D01*
X160957154Y-94567281D01*
X161183757Y-94587106D01*
X161410359Y-94567281D01*
X161630083Y-94508406D01*
X161836237Y-94412274D01*
X161909229Y-94361165D01*
X161183758Y-93635693D01*
X161183757Y-93635693D01*
X160458283Y-94361165D01*
X160458283Y-94361166D01*
X156184244Y-94361166D01*
X156225635Y-94206692D01*
X156245468Y-93980000D01*
X156225635Y-93753308D01*
X156166739Y-93533504D01*
X156070568Y-93327266D01*
X156052996Y-93302171D01*
X156038970Y-93282139D01*
X159878790Y-93282139D01*
X159898615Y-93508742D01*
X159957490Y-93728466D01*
X160053623Y-93934624D01*
X160104729Y-94007611D01*
X160104731Y-94007612D01*
X160830203Y-93282141D01*
X160830203Y-93282140D01*
X160104730Y-92556666D01*
X160104730Y-92556667D01*
X160053622Y-92629656D01*
X159957490Y-92835812D01*
X159898615Y-93055537D01*
X159878790Y-93282139D01*
X156038970Y-93282139D01*
X155940046Y-93140859D01*
X155779140Y-92979953D01*
X155592732Y-92849430D01*
X155534724Y-92822380D01*
X155482549Y-92776623D01*
X155463130Y-92709997D01*
X155482550Y-92643373D01*
X155534721Y-92597619D01*
X155592734Y-92570568D01*
X155779139Y-92440047D01*
X155940047Y-92279139D01*
X155993280Y-92203113D01*
X160458283Y-92203113D01*
X161183757Y-92928586D01*
X161183758Y-92928586D01*
X161909229Y-92203114D01*
X161909228Y-92203112D01*
X161836241Y-92152006D01*
X161630083Y-92055873D01*
X161410359Y-91996998D01*
X161183757Y-91977173D01*
X160957154Y-91996998D01*
X160737429Y-92055873D01*
X160531273Y-92152005D01*
X160458284Y-92203113D01*
X160458283Y-92203113D01*
X155993280Y-92203113D01*
X156070568Y-92092734D01*
X156166739Y-91886496D01*
X156225635Y-91666692D01*
X156245468Y-91440000D01*
X156225635Y-91213308D01*
X156166739Y-90993504D01*
X156070568Y-90787266D01*
X156066508Y-90781468D01*
X155940046Y-90600859D01*
X155779140Y-90439953D01*
X155592733Y-90309431D01*
X155551727Y-90290310D01*
X155534724Y-90282381D01*
X155482549Y-90236625D01*
X155463129Y-90170000D01*
X155482549Y-90103375D01*
X155534725Y-90057618D01*
X155592734Y-90030568D01*
X155779139Y-89900047D01*
X155940047Y-89739139D01*
X156070568Y-89552734D01*
X156166739Y-89346496D01*
X156225635Y-89126692D01*
X156245468Y-88900000D01*
X156225635Y-88673308D01*
X156166739Y-88453504D01*
X156070568Y-88247266D01*
X156052996Y-88222171D01*
X155940046Y-88060859D01*
X155779140Y-87899953D01*
X155592736Y-87769433D01*
X155534725Y-87742382D01*
X155534132Y-87742105D01*
X155481958Y-87696348D01*
X155462539Y-87629723D01*
X155481959Y-87563098D01*
X155534135Y-87517342D01*
X155592479Y-87490135D01*
X155778819Y-87359658D01*
X155939658Y-87198819D01*
X156070134Y-87012480D01*
X156166266Y-86806326D01*
X156218872Y-86610000D01*
X153661128Y-86610000D01*
X153713733Y-86806326D01*
X153809865Y-87012480D01*
X153940341Y-87198819D01*
X154101180Y-87359658D01*
X154287519Y-87490134D01*
X154345865Y-87517342D01*
X154398040Y-87563099D01*
X154417460Y-87629723D01*
X154398041Y-87696348D01*
X154345866Y-87742105D01*
X154287267Y-87769430D01*
X154100859Y-87899953D01*
X153939953Y-88060859D01*
X153809432Y-88247264D01*
X153713261Y-88453502D01*
X153654364Y-88673310D01*
X153634531Y-88900000D01*
X153654364Y-89126689D01*
X153713261Y-89346497D01*
X153809432Y-89552735D01*
X153939953Y-89739140D01*
X154100859Y-89900046D01*
X154232656Y-89992330D01*
X154287266Y-90030568D01*
X154345275Y-90057618D01*
X154397450Y-90103375D01*
X154416869Y-90170000D01*
X154397450Y-90236625D01*
X154345275Y-90282381D01*
X154324576Y-90292033D01*
X154287263Y-90309433D01*
X154100859Y-90439953D01*
X153939953Y-90600859D01*
X153809432Y-90787264D01*
X153713261Y-90993502D01*
X153654364Y-91213310D01*
X153634531Y-91440000D01*
X153654364Y-91666689D01*
X153713261Y-91886497D01*
X153809432Y-92092735D01*
X153939953Y-92279140D01*
X154100859Y-92440046D01*
X154155765Y-92478491D01*
X154287266Y-92570568D01*
X154345273Y-92597617D01*
X154397449Y-92643373D01*
X154416869Y-92709997D01*
X154397451Y-92776622D01*
X154345276Y-92822380D01*
X154287266Y-92849431D01*
X154100859Y-92979953D01*
X153939953Y-93140859D01*
X153809432Y-93327264D01*
X153713261Y-93533502D01*
X153654364Y-93753310D01*
X153634531Y-93980000D01*
X153654364Y-94206689D01*
X153713261Y-94426497D01*
X153809432Y-94632735D01*
X153939953Y-94819140D01*
X154100859Y-94980046D01*
X154285261Y-95109164D01*
X154287266Y-95110568D01*
X154345275Y-95137618D01*
X154397450Y-95183375D01*
X154416869Y-95250000D01*
X154397450Y-95316625D01*
X154345275Y-95362382D01*
X154287263Y-95389433D01*
X154100859Y-95519953D01*
X153939953Y-95680859D01*
X153809432Y-95867264D01*
X153713261Y-96073502D01*
X153654364Y-96293310D01*
X153634531Y-96520000D01*
X153654364Y-96746689D01*
X153713261Y-96966497D01*
X153809432Y-97172735D01*
X153939953Y-97359140D01*
X154100859Y-97520046D01*
X154287263Y-97650566D01*
X154287266Y-97650568D01*
X154345275Y-97677618D01*
X154397450Y-97723375D01*
X154416869Y-97790000D01*
X154397450Y-97856625D01*
X154345275Y-97902381D01*
X154324576Y-97912033D01*
X154287263Y-97929433D01*
X154100859Y-98059953D01*
X153939953Y-98220859D01*
X153809432Y-98407264D01*
X153713261Y-98613502D01*
X153654364Y-98833310D01*
X153634531Y-99060000D01*
X153654364Y-99286689D01*
X153713261Y-99506497D01*
X153809432Y-99712735D01*
X153939953Y-99899140D01*
X154100859Y-100060046D01*
X154155765Y-100098491D01*
X154287266Y-100190568D01*
X154345273Y-100217617D01*
X154397449Y-100263373D01*
X154416869Y-100329997D01*
X154397451Y-100396622D01*
X154345276Y-100442380D01*
X154287266Y-100469431D01*
X154100859Y-100599953D01*
X153939953Y-100760859D01*
X153809432Y-100947264D01*
X153713261Y-101153502D01*
X153654364Y-101373310D01*
X153634531Y-101600000D01*
X153654364Y-101826689D01*
X153713261Y-102046497D01*
X153809432Y-102252735D01*
X153939953Y-102439140D01*
X154100859Y-102600046D01*
X154287263Y-102730566D01*
X154287266Y-102730568D01*
X154344683Y-102757342D01*
X154345275Y-102757618D01*
X154397450Y-102803375D01*
X154416869Y-102870000D01*
X154397450Y-102936625D01*
X154345275Y-102982382D01*
X154287263Y-103009433D01*
X154100859Y-103139953D01*
X153939953Y-103300859D01*
X153809432Y-103487264D01*
X153713261Y-103693502D01*
X153654364Y-103913310D01*
X153634531Y-104140000D01*
X148625468Y-104140000D01*
X148605635Y-103913308D01*
X148546739Y-103693504D01*
X148450568Y-103487266D01*
X148440909Y-103473472D01*
X148320046Y-103300859D01*
X148159140Y-103139953D01*
X147972736Y-103009433D01*
X147914725Y-102982382D01*
X147914132Y-102982105D01*
X147861958Y-102936348D01*
X147842539Y-102869723D01*
X147861959Y-102803098D01*
X147914135Y-102757342D01*
X147972479Y-102730135D01*
X148158819Y-102599658D01*
X148319658Y-102438819D01*
X148450134Y-102252480D01*
X148546266Y-102046326D01*
X148598872Y-101850000D01*
X146041128Y-101850000D01*
X146093733Y-102046326D01*
X146189865Y-102252480D01*
X146320341Y-102438819D01*
X146481180Y-102599658D01*
X146667519Y-102730134D01*
X146725865Y-102757342D01*
X146778040Y-102803099D01*
X146797460Y-102869723D01*
X146778041Y-102936348D01*
X146725866Y-102982105D01*
X146667267Y-103009430D01*
X146480859Y-103139953D01*
X146319953Y-103300859D01*
X146189432Y-103487264D01*
X146093261Y-103693502D01*
X146034364Y-103913310D01*
X146014531Y-104140000D01*
X146034364Y-104366689D01*
X146093261Y-104586497D01*
X146189432Y-104792735D01*
X146319953Y-104979140D01*
X146480859Y-105140046D01*
X146666645Y-105270133D01*
X146667266Y-105270568D01*
X146725275Y-105297618D01*
X146777450Y-105343375D01*
X146796869Y-105410000D01*
X146777450Y-105476625D01*
X146725275Y-105522382D01*
X146667263Y-105549433D01*
X146480859Y-105679953D01*
X146319953Y-105840859D01*
X146189432Y-106027264D01*
X146093261Y-106233502D01*
X146034364Y-106453310D01*
X146014531Y-106680000D01*
X146034364Y-106906689D01*
X146093261Y-107126497D01*
X146189432Y-107332735D01*
X146319953Y-107519140D01*
X146480859Y-107680046D01*
X146667262Y-107810565D01*
X146667266Y-107810568D01*
X146725275Y-107837618D01*
X146777450Y-107883375D01*
X146796869Y-107950000D01*
X146777450Y-108016625D01*
X146725275Y-108062382D01*
X146667263Y-108089433D01*
X146480859Y-108219953D01*
X146319953Y-108380859D01*
X146189432Y-108567264D01*
X146093261Y-108773502D01*
X146034364Y-108993310D01*
X146014531Y-109220000D01*
X146034364Y-109446689D01*
X146093261Y-109666497D01*
X146189432Y-109872735D01*
X146319953Y-110059140D01*
X146480859Y-110220046D01*
X146667263Y-110350566D01*
X146667266Y-110350568D01*
X146725275Y-110377618D01*
X146777450Y-110423375D01*
X146796869Y-110490000D01*
X146777450Y-110556625D01*
X146725275Y-110602382D01*
X146667263Y-110629433D01*
X146480859Y-110759953D01*
X146319953Y-110920859D01*
X146189432Y-111107264D01*
X146093261Y-111313502D01*
X146034365Y-111533307D01*
X146014531Y-111760000D01*
X146034364Y-111986689D01*
X146093261Y-112206497D01*
X146189432Y-112412735D01*
X146319953Y-112599140D01*
X146480859Y-112760046D01*
X146576486Y-112827004D01*
X146667266Y-112890568D01*
X146725275Y-112917618D01*
X146777450Y-112963375D01*
X146796869Y-113030000D01*
X146777450Y-113096625D01*
X146725275Y-113142382D01*
X146667263Y-113169433D01*
X146480859Y-113299953D01*
X146319953Y-113460859D01*
X146189432Y-113647264D01*
X146093261Y-113853502D01*
X146034364Y-114073310D01*
X146014531Y-114299999D01*
X146034364Y-114526689D01*
X146093261Y-114746497D01*
X146189432Y-114952735D01*
X146319953Y-115139140D01*
X146480859Y-115300046D01*
X146633757Y-115407105D01*
X146667266Y-115430568D01*
X146725275Y-115457618D01*
X146777450Y-115503375D01*
X146796869Y-115570000D01*
X146777450Y-115636625D01*
X146725275Y-115682382D01*
X146667263Y-115709433D01*
X146480859Y-115839953D01*
X146319953Y-116000859D01*
X146189432Y-116187264D01*
X146093261Y-116393502D01*
X146034364Y-116613310D01*
X146014531Y-116839999D01*
X139049398Y-116839999D01*
X139049398Y-115646642D01*
X139051662Y-115626134D01*
X139049898Y-115570000D01*
X139049459Y-115556011D01*
X139049398Y-115552117D01*
X139049398Y-115524552D01*
X139049398Y-115524548D01*
X139048895Y-115520568D01*
X139047979Y-115508926D01*
X139047805Y-115503375D01*
X139046608Y-115465271D01*
X139041016Y-115446024D01*
X139037072Y-115426983D01*
X139034562Y-115407106D01*
X139018477Y-115366481D01*
X139014706Y-115355466D01*
X139002516Y-115313508D01*
X138992312Y-115296253D01*
X138983759Y-115278793D01*
X138976384Y-115260167D01*
X138976384Y-115260166D01*
X138950706Y-115224823D01*
X138944299Y-115215069D01*
X138922067Y-115177477D01*
X138907904Y-115163314D01*
X138895265Y-115148515D01*
X138883493Y-115132311D01*
X138849839Y-115104471D01*
X138841197Y-115096607D01*
X138459413Y-114714822D01*
X138427319Y-114659234D01*
X138427319Y-114595047D01*
X138445635Y-114526692D01*
X138465468Y-114300000D01*
X138445635Y-114073308D01*
X138386739Y-113853504D01*
X138290568Y-113647266D01*
X138272996Y-113622171D01*
X138160046Y-113460859D01*
X137999140Y-113299953D01*
X137812735Y-113169432D01*
X137606497Y-113073261D01*
X137386689Y-113014364D01*
X137160000Y-112994531D01*
X136933310Y-113014364D01*
X136713502Y-113073261D01*
X136507264Y-113169432D01*
X136320859Y-113299953D01*
X136159953Y-113460859D01*
X136029432Y-113647264D01*
X135933261Y-113853502D01*
X135874364Y-114073310D01*
X135854531Y-114299999D01*
X135245500Y-114299999D01*
X135245500Y-109220000D01*
X136254540Y-109220000D01*
X136259175Y-109264099D01*
X136274326Y-109408257D01*
X136332820Y-109588284D01*
X136427466Y-109752216D01*
X136554129Y-109892889D01*
X136707269Y-110004151D01*
X136880197Y-110081144D01*
X137065352Y-110120500D01*
X137065354Y-110120500D01*
X137124548Y-110120500D01*
X137172001Y-110129939D01*
X137212229Y-110156819D01*
X139199196Y-112143787D01*
X139212096Y-112159888D01*
X139263223Y-112207900D01*
X139266019Y-112210610D01*
X139285529Y-112230120D01*
X139288711Y-112232588D01*
X139297571Y-112240155D01*
X139329417Y-112270061D01*
X139329418Y-112270062D01*
X139346970Y-112279711D01*
X139363238Y-112290397D01*
X139379064Y-112302673D01*
X139419146Y-112320017D01*
X139429633Y-112325155D01*
X139467907Y-112346197D01*
X139476410Y-112348379D01*
X139487308Y-112351178D01*
X139505713Y-112357478D01*
X139524104Y-112365437D01*
X139567250Y-112372270D01*
X139578668Y-112374635D01*
X139620981Y-112385500D01*
X139641016Y-112385500D01*
X139660415Y-112387027D01*
X139680196Y-112390160D01*
X139723674Y-112386050D01*
X139735344Y-112385500D01*
X144076253Y-112385500D01*
X144126688Y-112396220D01*
X144168401Y-112426526D01*
X144174129Y-112432888D01*
X144327270Y-112544151D01*
X144327271Y-112544151D01*
X144327272Y-112544152D01*
X144500197Y-112621144D01*
X144685352Y-112660500D01*
X144685354Y-112660500D01*
X144874646Y-112660500D01*
X144874648Y-112660500D01*
X145011547Y-112631401D01*
X145059803Y-112621144D01*
X145232730Y-112544151D01*
X145385871Y-112432888D01*
X145512533Y-112292216D01*
X145607179Y-112128284D01*
X145665674Y-111948256D01*
X145685460Y-111760000D01*
X145665674Y-111571744D01*
X145621374Y-111435404D01*
X145607179Y-111391715D01*
X145512533Y-111227783D01*
X145385870Y-111087110D01*
X145232730Y-110975848D01*
X145059802Y-110898855D01*
X144874648Y-110859500D01*
X144874646Y-110859500D01*
X144685354Y-110859500D01*
X144685352Y-110859500D01*
X144500197Y-110898855D01*
X144327272Y-110975847D01*
X144225176Y-111050024D01*
X144174129Y-111087112D01*
X144168401Y-111093473D01*
X144126688Y-111123780D01*
X144076253Y-111134500D01*
X140010453Y-111134500D01*
X139963000Y-111125061D01*
X139922772Y-111098181D01*
X138098960Y-109274369D01*
X138074720Y-109240071D01*
X138063321Y-109199655D01*
X138045674Y-109031744D01*
X138013507Y-108932746D01*
X137987179Y-108851715D01*
X137892533Y-108687783D01*
X137765870Y-108547110D01*
X137612730Y-108435848D01*
X137439802Y-108358855D01*
X137254648Y-108319500D01*
X137254646Y-108319500D01*
X137065354Y-108319500D01*
X137065352Y-108319500D01*
X136880197Y-108358855D01*
X136707269Y-108435848D01*
X136554129Y-108547110D01*
X136427466Y-108687783D01*
X136332820Y-108851715D01*
X136274326Y-109031742D01*
X136274325Y-109031744D01*
X136274326Y-109031744D01*
X136254540Y-109220000D01*
X135245500Y-109220000D01*
X135245500Y-106680000D01*
X135854531Y-106680000D01*
X135874364Y-106906689D01*
X135933261Y-107126497D01*
X136029432Y-107332735D01*
X136159953Y-107519140D01*
X136320859Y-107680046D01*
X136507264Y-107810567D01*
X136507265Y-107810567D01*
X136507266Y-107810568D01*
X136713504Y-107906739D01*
X136933308Y-107965635D01*
X137160000Y-107985468D01*
X137386692Y-107965635D01*
X137606496Y-107906739D01*
X137812734Y-107810568D01*
X137999139Y-107680047D01*
X138160047Y-107519139D01*
X138290568Y-107332734D01*
X138386739Y-107126496D01*
X138445635Y-106906692D01*
X138465468Y-106680000D01*
X138445635Y-106453308D01*
X138386739Y-106233504D01*
X138290568Y-106027266D01*
X138272996Y-106002171D01*
X138160046Y-105840859D01*
X137999140Y-105679953D01*
X137812735Y-105549432D01*
X137606497Y-105453261D01*
X137386689Y-105394364D01*
X137160000Y-105374531D01*
X136933310Y-105394364D01*
X136713502Y-105453261D01*
X136507264Y-105549432D01*
X136320859Y-105679953D01*
X136159953Y-105840859D01*
X136029432Y-106027264D01*
X135933261Y-106233502D01*
X135874364Y-106453310D01*
X135854531Y-106680000D01*
X135245500Y-106680000D01*
X135245500Y-101910452D01*
X135254939Y-101862999D01*
X135281819Y-101822771D01*
X135637348Y-101467242D01*
X136704353Y-100400235D01*
X136759939Y-100368143D01*
X136824126Y-100368143D01*
X136924592Y-100395063D01*
X137160000Y-100415659D01*
X137395408Y-100395063D01*
X137623663Y-100333903D01*
X137837830Y-100234035D01*
X138031401Y-100098495D01*
X138198495Y-99931401D01*
X138334035Y-99737830D01*
X138433903Y-99523663D01*
X138495063Y-99295408D01*
X138515659Y-99060000D01*
X138515659Y-99059999D01*
X141334540Y-99059999D01*
X141354326Y-99248257D01*
X141412820Y-99428284D01*
X141507466Y-99592216D01*
X141634129Y-99732889D01*
X141787269Y-99844151D01*
X141960197Y-99921144D01*
X142145352Y-99960500D01*
X142145354Y-99960500D01*
X142334646Y-99960500D01*
X142334648Y-99960500D01*
X142471547Y-99931401D01*
X142519803Y-99921144D01*
X142692730Y-99844151D01*
X142773495Y-99785472D01*
X142845870Y-99732889D01*
X142972533Y-99592216D01*
X143067179Y-99428284D01*
X143110353Y-99295408D01*
X143125674Y-99248256D01*
X143145460Y-99060000D01*
X143125674Y-98871744D01*
X143067179Y-98691716D01*
X143067179Y-98691715D01*
X142972535Y-98527786D01*
X142939761Y-98491387D01*
X142897347Y-98444282D01*
X142873736Y-98405751D01*
X142865500Y-98361313D01*
X142865500Y-90121935D01*
X143835085Y-90121935D01*
X143854871Y-90310192D01*
X143913365Y-90490219D01*
X144008009Y-90654148D01*
X144008012Y-90654151D01*
X144122651Y-90781471D01*
X144146264Y-90820003D01*
X144154500Y-90864441D01*
X144154500Y-98361313D01*
X144146264Y-98405751D01*
X144122652Y-98444282D01*
X144089545Y-98481051D01*
X144047464Y-98527786D01*
X143952820Y-98691715D01*
X143894326Y-98871742D01*
X143874540Y-99059999D01*
X143894326Y-99248257D01*
X143952820Y-99428284D01*
X144047466Y-99592216D01*
X144174129Y-99732889D01*
X144327269Y-99844151D01*
X144500197Y-99921144D01*
X144685352Y-99960500D01*
X144685354Y-99960500D01*
X144874646Y-99960500D01*
X144874648Y-99960500D01*
X145011547Y-99931401D01*
X145059803Y-99921144D01*
X145232730Y-99844151D01*
X145313495Y-99785472D01*
X145385870Y-99732889D01*
X145512533Y-99592216D01*
X145607179Y-99428284D01*
X145650353Y-99295408D01*
X145665674Y-99248256D01*
X145685460Y-99060000D01*
X145665674Y-98871744D01*
X145607179Y-98691716D01*
X145607179Y-98691715D01*
X145512535Y-98527786D01*
X145479761Y-98491387D01*
X145437347Y-98444282D01*
X145413736Y-98405751D01*
X145405500Y-98361313D01*
X145405500Y-90776803D01*
X145413736Y-90732365D01*
X145437351Y-90693830D01*
X145473078Y-90654151D01*
X145567724Y-90490219D01*
X145581873Y-90446673D01*
X145626219Y-90310191D01*
X145646005Y-90121935D01*
X145626219Y-89933679D01*
X145582093Y-89797873D01*
X145567724Y-89753650D01*
X145473078Y-89589718D01*
X145346415Y-89449045D01*
X145193275Y-89337783D01*
X145020347Y-89260790D01*
X144835193Y-89221435D01*
X144835191Y-89221435D01*
X144645899Y-89221435D01*
X144645897Y-89221435D01*
X144460742Y-89260790D01*
X144287814Y-89337783D01*
X144134674Y-89449045D01*
X144008011Y-89589718D01*
X143913365Y-89753650D01*
X143854871Y-89933677D01*
X143835085Y-90121935D01*
X142865500Y-90121935D01*
X142865500Y-89210452D01*
X142874939Y-89162999D01*
X142901819Y-89122771D01*
X144351329Y-87673261D01*
X145807183Y-86217406D01*
X145858608Y-86186507D01*
X145918522Y-86183367D01*
X145972898Y-86208723D01*
X146009005Y-86256638D01*
X146018390Y-86315896D01*
X146014531Y-86359999D01*
X146034364Y-86586689D01*
X146093261Y-86806497D01*
X146189432Y-87012735D01*
X146319953Y-87199140D01*
X146480859Y-87360046D01*
X146667263Y-87490566D01*
X146667266Y-87490568D01*
X146724683Y-87517342D01*
X146725275Y-87517618D01*
X146777450Y-87563375D01*
X146796869Y-87630000D01*
X146777450Y-87696625D01*
X146725275Y-87742382D01*
X146667263Y-87769433D01*
X146480859Y-87899953D01*
X146319953Y-88060859D01*
X146189432Y-88247264D01*
X146093261Y-88453502D01*
X146034364Y-88673310D01*
X146014531Y-88900000D01*
X146034364Y-89126689D01*
X146093261Y-89346497D01*
X146189432Y-89552735D01*
X146319953Y-89739140D01*
X146480859Y-89900046D01*
X146612656Y-89992330D01*
X146667266Y-90030568D01*
X146725275Y-90057618D01*
X146777450Y-90103375D01*
X146796869Y-90170000D01*
X146777450Y-90236625D01*
X146725275Y-90282381D01*
X146704576Y-90292033D01*
X146667263Y-90309433D01*
X146480859Y-90439953D01*
X146319953Y-90600859D01*
X146189432Y-90787264D01*
X146093261Y-90993502D01*
X146034364Y-91213310D01*
X146014531Y-91440000D01*
X146034364Y-91666689D01*
X146093261Y-91886497D01*
X146189432Y-92092735D01*
X146319953Y-92279140D01*
X146480859Y-92440046D01*
X146535765Y-92478491D01*
X146667266Y-92570568D01*
X146725273Y-92597617D01*
X146777449Y-92643373D01*
X146796869Y-92709997D01*
X146777451Y-92776622D01*
X146725276Y-92822380D01*
X146667266Y-92849431D01*
X146480859Y-92979953D01*
X146319953Y-93140859D01*
X146189432Y-93327264D01*
X146093261Y-93533502D01*
X146034364Y-93753310D01*
X146014531Y-93980000D01*
X146034364Y-94206689D01*
X146093261Y-94426497D01*
X146189432Y-94632735D01*
X146319953Y-94819140D01*
X146480859Y-94980046D01*
X146665261Y-95109164D01*
X146667266Y-95110568D01*
X146725275Y-95137618D01*
X146777450Y-95183375D01*
X146796869Y-95250000D01*
X146777450Y-95316625D01*
X146725275Y-95362382D01*
X146667263Y-95389433D01*
X146480859Y-95519953D01*
X146319953Y-95680859D01*
X146189432Y-95867264D01*
X146093261Y-96073502D01*
X146034364Y-96293310D01*
X146014531Y-96520000D01*
X146034364Y-96746689D01*
X146093261Y-96966497D01*
X146189432Y-97172735D01*
X146319953Y-97359140D01*
X146480859Y-97520046D01*
X146667263Y-97650566D01*
X146667266Y-97650568D01*
X146725275Y-97677618D01*
X146777450Y-97723375D01*
X146796869Y-97790000D01*
X146777450Y-97856625D01*
X146725275Y-97902381D01*
X146704576Y-97912033D01*
X146667263Y-97929433D01*
X146480859Y-98059953D01*
X146319953Y-98220859D01*
X146189432Y-98407264D01*
X146093261Y-98613502D01*
X146034364Y-98833310D01*
X146014531Y-99060000D01*
X146034364Y-99286689D01*
X146093261Y-99506497D01*
X146189432Y-99712735D01*
X146319953Y-99899140D01*
X146480859Y-100060046D01*
X146667264Y-100190567D01*
X146667265Y-100190567D01*
X146667266Y-100190568D01*
X146725865Y-100217893D01*
X146778040Y-100263650D01*
X146797460Y-100330274D01*
X146778041Y-100396899D01*
X146725866Y-100442656D01*
X146667522Y-100469863D01*
X146481180Y-100600341D01*
X146320341Y-100761180D01*
X146189865Y-100947519D01*
X146093733Y-101153673D01*
X146041128Y-101349999D01*
X146041128Y-101350000D01*
X148598872Y-101350000D01*
X148598871Y-101349999D01*
X148546266Y-101153673D01*
X148450134Y-100947519D01*
X148319658Y-100761180D01*
X148158819Y-100600341D01*
X147972482Y-100469866D01*
X147914133Y-100442657D01*
X147861958Y-100396899D01*
X147842539Y-100330274D01*
X147861959Y-100263649D01*
X147914134Y-100217893D01*
X147972734Y-100190568D01*
X148159139Y-100060047D01*
X148320047Y-99899139D01*
X148450568Y-99712734D01*
X148546739Y-99506496D01*
X148605635Y-99286692D01*
X148625468Y-99060000D01*
X148605635Y-98833308D01*
X148546739Y-98613504D01*
X148450568Y-98407266D01*
X148449507Y-98405751D01*
X148320046Y-98220859D01*
X148159140Y-98059953D01*
X147972733Y-97929431D01*
X147931727Y-97910310D01*
X147914724Y-97902381D01*
X147862549Y-97856625D01*
X147843129Y-97790000D01*
X147862549Y-97723375D01*
X147914725Y-97677618D01*
X147972734Y-97650568D01*
X148159139Y-97520047D01*
X148320047Y-97359139D01*
X148450568Y-97172734D01*
X148546739Y-96966496D01*
X148605635Y-96746692D01*
X148625468Y-96520000D01*
X148605635Y-96293308D01*
X148546739Y-96073504D01*
X148450568Y-95867266D01*
X148432996Y-95842171D01*
X148320046Y-95680859D01*
X148159140Y-95519953D01*
X147972733Y-95389431D01*
X147914725Y-95362382D01*
X147862549Y-95316625D01*
X147843129Y-95250000D01*
X147862549Y-95183375D01*
X147914725Y-95137618D01*
X147972734Y-95110568D01*
X148159139Y-94980047D01*
X148320047Y-94819139D01*
X148450568Y-94632734D01*
X148546739Y-94426496D01*
X148605635Y-94206692D01*
X148625468Y-93980000D01*
X148605635Y-93753308D01*
X148546739Y-93533504D01*
X148450568Y-93327266D01*
X148432996Y-93302171D01*
X148320046Y-93140859D01*
X148159140Y-92979953D01*
X147972732Y-92849430D01*
X147914724Y-92822380D01*
X147862549Y-92776623D01*
X147843130Y-92709997D01*
X147862550Y-92643373D01*
X147914721Y-92597619D01*
X147972734Y-92570568D01*
X148159139Y-92440047D01*
X148320047Y-92279139D01*
X148450568Y-92092734D01*
X148546739Y-91886496D01*
X148605635Y-91666692D01*
X148625468Y-91440000D01*
X148605635Y-91213308D01*
X148546739Y-90993504D01*
X148450568Y-90787266D01*
X148446508Y-90781468D01*
X148320046Y-90600859D01*
X148159140Y-90439953D01*
X147972733Y-90309431D01*
X147931727Y-90290310D01*
X147914724Y-90282381D01*
X147862549Y-90236625D01*
X147843129Y-90170000D01*
X147862549Y-90103375D01*
X147914725Y-90057618D01*
X147972734Y-90030568D01*
X148159139Y-89900047D01*
X148320047Y-89739139D01*
X148450568Y-89552734D01*
X148546739Y-89346496D01*
X148605635Y-89126692D01*
X148625468Y-88900000D01*
X148605635Y-88673308D01*
X148546739Y-88453504D01*
X148450568Y-88247266D01*
X148432996Y-88222171D01*
X148320046Y-88060859D01*
X148159140Y-87899953D01*
X147972733Y-87769431D01*
X147914725Y-87742382D01*
X147862549Y-87696625D01*
X147843129Y-87630000D01*
X147862549Y-87563375D01*
X147914725Y-87517618D01*
X147915317Y-87517342D01*
X147972734Y-87490568D01*
X148159139Y-87360047D01*
X148320047Y-87199139D01*
X148450568Y-87012734D01*
X148546739Y-86806496D01*
X148605635Y-86586692D01*
X148625468Y-86360000D01*
X148605635Y-86133308D01*
X148546739Y-85913504D01*
X148546738Y-85913502D01*
X148545275Y-85908041D01*
X148546628Y-85839176D01*
X148584519Y-85781657D01*
X148647257Y-85753230D01*
X148715486Y-85762668D01*
X148813135Y-85806144D01*
X148998290Y-85845500D01*
X148998292Y-85845500D01*
X149187584Y-85845500D01*
X149187586Y-85845500D01*
X149311022Y-85819262D01*
X149372741Y-85806144D01*
X149545668Y-85729151D01*
X149575790Y-85707266D01*
X149698808Y-85617889D01*
X149785886Y-85521180D01*
X149825471Y-85477216D01*
X149920117Y-85313284D01*
X149978612Y-85133256D01*
X149996259Y-84965344D01*
X150007659Y-84924925D01*
X150031896Y-84890630D01*
X151102526Y-83820000D01*
X153634531Y-83820000D01*
X153654364Y-84046689D01*
X153713261Y-84266497D01*
X153809432Y-84472735D01*
X153939953Y-84659140D01*
X154100859Y-84820046D01*
X154287264Y-84950567D01*
X154287265Y-84950567D01*
X154287266Y-84950568D01*
X154345865Y-84977893D01*
X154398040Y-85023650D01*
X154417460Y-85090274D01*
X154398041Y-85156899D01*
X154345866Y-85202656D01*
X154287522Y-85229863D01*
X154101180Y-85360341D01*
X153940341Y-85521180D01*
X153809865Y-85707519D01*
X153713733Y-85913673D01*
X153661128Y-86109999D01*
X153661128Y-86110000D01*
X156218872Y-86110000D01*
X156218871Y-86109999D01*
X156166266Y-85913673D01*
X156070134Y-85707519D01*
X155939658Y-85521180D01*
X155778819Y-85360341D01*
X155592482Y-85229866D01*
X155534133Y-85202657D01*
X155481958Y-85156899D01*
X155462539Y-85090274D01*
X155481959Y-85023649D01*
X155534134Y-84977893D01*
X155592734Y-84950568D01*
X155779139Y-84820047D01*
X155940047Y-84659139D01*
X156052612Y-84498377D01*
X156096931Y-84459511D01*
X156154188Y-84445500D01*
X157169548Y-84445500D01*
X157217001Y-84454939D01*
X157257229Y-84481819D01*
X163021938Y-90246529D01*
X163048818Y-90286757D01*
X163058257Y-90334210D01*
X163058257Y-92067952D01*
X163044246Y-92125209D01*
X163005380Y-92169527D01*
X162844616Y-92282093D01*
X162683710Y-92442999D01*
X162553186Y-92629408D01*
X162545861Y-92645118D01*
X162500104Y-92697292D01*
X162433479Y-92716710D01*
X162366855Y-92697290D01*
X162321099Y-92645115D01*
X162313890Y-92629655D01*
X162262782Y-92556666D01*
X161537310Y-93282140D01*
X161537310Y-93282141D01*
X162262782Y-94007612D01*
X162313888Y-93934624D01*
X162321097Y-93919166D01*
X162366854Y-93866989D01*
X162433479Y-93847568D01*
X162500105Y-93866987D01*
X162545863Y-93919163D01*
X162553189Y-93934875D01*
X162683710Y-94121280D01*
X162844616Y-94282186D01*
X163031021Y-94412707D01*
X163031022Y-94412707D01*
X163031023Y-94412708D01*
X163237261Y-94508879D01*
X163457065Y-94567775D01*
X163683757Y-94587608D01*
X163910449Y-94567775D01*
X163978805Y-94549459D01*
X164042991Y-94549459D01*
X164098579Y-94581553D01*
X164438181Y-94921155D01*
X164465061Y-94961383D01*
X164474500Y-95008836D01*
X164474500Y-97845812D01*
X164460489Y-97903069D01*
X164421623Y-97947387D01*
X164260859Y-98059953D01*
X164099953Y-98220859D01*
X163969432Y-98407264D01*
X163873261Y-98613502D01*
X163814364Y-98833310D01*
X163794531Y-99060000D01*
X163814364Y-99286689D01*
X163873261Y-99506497D01*
X163969432Y-99712735D01*
X164099953Y-99899140D01*
X164260859Y-100060046D01*
X164447264Y-100190567D01*
X164447265Y-100190567D01*
X164447266Y-100190568D01*
X164653504Y-100286739D01*
X164873308Y-100345635D01*
X165100000Y-100365468D01*
X165326692Y-100345635D01*
X165546496Y-100286739D01*
X165752734Y-100190568D01*
X165939139Y-100060047D01*
X166100047Y-99899139D01*
X166171666Y-99796856D01*
X167476761Y-99796856D01*
X167496594Y-100023545D01*
X167555491Y-100243353D01*
X167651662Y-100449591D01*
X167782183Y-100635996D01*
X167943089Y-100796902D01*
X168103853Y-100909469D01*
X168142719Y-100953787D01*
X168156730Y-101011044D01*
X168156730Y-110195561D01*
X168154465Y-110216067D01*
X168156669Y-110286178D01*
X168156730Y-110290073D01*
X168156730Y-110317654D01*
X168157233Y-110321639D01*
X168158148Y-110333272D01*
X168159520Y-110376931D01*
X168165109Y-110396165D01*
X168169055Y-110415221D01*
X168171565Y-110435097D01*
X168187644Y-110475709D01*
X168191427Y-110486756D01*
X168203612Y-110528696D01*
X168213810Y-110545940D01*
X168222366Y-110563405D01*
X168229744Y-110582037D01*
X168229745Y-110582038D01*
X168255410Y-110617364D01*
X168261823Y-110627127D01*
X168284056Y-110664721D01*
X168284059Y-110664724D01*
X168284060Y-110664725D01*
X168298225Y-110678890D01*
X168310857Y-110693680D01*
X168322636Y-110709892D01*
X168356288Y-110737731D01*
X168364929Y-110745594D01*
X168738499Y-111119164D01*
X168770593Y-111174751D01*
X168770593Y-111238938D01*
X168738500Y-111294526D01*
X168682912Y-111326620D01*
X168637454Y-111338800D01*
X168431216Y-111434971D01*
X168244811Y-111565492D01*
X168083905Y-111726398D01*
X167953384Y-111912803D01*
X167857213Y-112119041D01*
X167798316Y-112338849D01*
X167778483Y-112565539D01*
X167798316Y-112792228D01*
X167857213Y-113012036D01*
X167953384Y-113218274D01*
X168083905Y-113404679D01*
X168244811Y-113565585D01*
X168431216Y-113696106D01*
X168431217Y-113696106D01*
X168431218Y-113696107D01*
X168637456Y-113792278D01*
X168857260Y-113851174D01*
X169083952Y-113871007D01*
X169310644Y-113851174D01*
X169530448Y-113792278D01*
X169736686Y-113696107D01*
X169923091Y-113565586D01*
X170083999Y-113404678D01*
X170214520Y-113218273D01*
X170310691Y-113012035D01*
X170310692Y-113012030D01*
X170311140Y-113011070D01*
X170348035Y-112965098D01*
X170401989Y-112941358D01*
X170460809Y-112945213D01*
X170511203Y-112975793D01*
X171379762Y-113844352D01*
X171411856Y-113899939D01*
X171411856Y-113964126D01*
X171384936Y-114064593D01*
X171364340Y-114300000D01*
X171384936Y-114535407D01*
X171419446Y-114664199D01*
X171446097Y-114763663D01*
X171545965Y-114977830D01*
X171681505Y-115171401D01*
X171848599Y-115338495D01*
X172034597Y-115468732D01*
X172073460Y-115513048D01*
X172087471Y-115570305D01*
X172073461Y-115627561D01*
X172034595Y-115671880D01*
X171848919Y-115801892D01*
X171681890Y-115968921D01*
X171546400Y-116162421D01*
X171446569Y-116376507D01*
X171389364Y-116589999D01*
X171389364Y-116590000D01*
X174050636Y-116590000D01*
X174050635Y-116589999D01*
X173993430Y-116376507D01*
X173893599Y-116162421D01*
X173758109Y-115968921D01*
X173591081Y-115801893D01*
X173405404Y-115671880D01*
X173366539Y-115627562D01*
X173352528Y-115570305D01*
X173366539Y-115513048D01*
X173405402Y-115468732D01*
X173591401Y-115338495D01*
X173758495Y-115171401D01*
X173894035Y-114977830D01*
X173993903Y-114763663D01*
X174055063Y-114535408D01*
X174075659Y-114300000D01*
X174055063Y-114064592D01*
X173993903Y-113836337D01*
X173894035Y-113622171D01*
X173758495Y-113428599D01*
X173591401Y-113261505D01*
X173405839Y-113131573D01*
X173366975Y-113087257D01*
X173352964Y-113030000D01*
X173366975Y-112972743D01*
X173405839Y-112928426D01*
X173591401Y-112798495D01*
X173758495Y-112631401D01*
X173894035Y-112437830D01*
X173993903Y-112223663D01*
X174055063Y-111995408D01*
X174075659Y-111760000D01*
X174055063Y-111524592D01*
X173993903Y-111296337D01*
X173894035Y-111082171D01*
X173758495Y-110888599D01*
X173591401Y-110721505D01*
X173405839Y-110591573D01*
X173366975Y-110547257D01*
X173352964Y-110490000D01*
X173366975Y-110432743D01*
X173405839Y-110388426D01*
X173591401Y-110258495D01*
X173758495Y-110091401D01*
X173894035Y-109897830D01*
X173993903Y-109683663D01*
X174055063Y-109455408D01*
X174075659Y-109220000D01*
X174073878Y-109199649D01*
X174055063Y-108984592D01*
X174038642Y-108923307D01*
X173993903Y-108756337D01*
X173894035Y-108542171D01*
X173758495Y-108348599D01*
X173591401Y-108181505D01*
X173405839Y-108051573D01*
X173366975Y-108007257D01*
X173352964Y-107950000D01*
X173366975Y-107892743D01*
X173405839Y-107848426D01*
X173591401Y-107718495D01*
X173758495Y-107551401D01*
X173894035Y-107357830D01*
X173993903Y-107143663D01*
X174055063Y-106915408D01*
X174075659Y-106680000D01*
X174055063Y-106444592D01*
X173993903Y-106216337D01*
X173894035Y-106002171D01*
X173758495Y-105808599D01*
X173591401Y-105641505D01*
X173405839Y-105511573D01*
X173366975Y-105467257D01*
X173352964Y-105410000D01*
X173366975Y-105352743D01*
X173405839Y-105308426D01*
X173591401Y-105178495D01*
X173758495Y-105011401D01*
X173894035Y-104817830D01*
X173993903Y-104603663D01*
X174055063Y-104375408D01*
X174075659Y-104140000D01*
X174055063Y-103904592D01*
X173993903Y-103676337D01*
X173894035Y-103462171D01*
X173758495Y-103268599D01*
X173591401Y-103101505D01*
X173405839Y-102971573D01*
X173366974Y-102927255D01*
X173352964Y-102869999D01*
X173366975Y-102812742D01*
X173405837Y-102768428D01*
X173591401Y-102638495D01*
X173758495Y-102471401D01*
X173894035Y-102277830D01*
X173993903Y-102063663D01*
X174055063Y-101835408D01*
X174075659Y-101600000D01*
X174055063Y-101364592D01*
X173993903Y-101136337D01*
X173894035Y-100922171D01*
X173758495Y-100728599D01*
X173591401Y-100561505D01*
X173405839Y-100431573D01*
X173366974Y-100387255D01*
X173352964Y-100329999D01*
X173366975Y-100272742D01*
X173405837Y-100228428D01*
X173591401Y-100098495D01*
X173758495Y-99931401D01*
X173894035Y-99737830D01*
X173993903Y-99523663D01*
X174055063Y-99295408D01*
X174075659Y-99060000D01*
X174055063Y-98824592D01*
X173993903Y-98596337D01*
X173894035Y-98382171D01*
X173758495Y-98188599D01*
X173591401Y-98021505D01*
X173405839Y-97891573D01*
X173366976Y-97847257D01*
X173352965Y-97790000D01*
X173366976Y-97732743D01*
X173405839Y-97688426D01*
X173591401Y-97558495D01*
X173758495Y-97391401D01*
X173894035Y-97197830D01*
X173993903Y-96983663D01*
X174055063Y-96755408D01*
X174075659Y-96520000D01*
X174055063Y-96284592D01*
X173993903Y-96056337D01*
X173894035Y-95842171D01*
X173758495Y-95648599D01*
X173591401Y-95481505D01*
X173405839Y-95351573D01*
X173366975Y-95307257D01*
X173352964Y-95250000D01*
X173366975Y-95192743D01*
X173405839Y-95148426D01*
X173591401Y-95018495D01*
X173758495Y-94851401D01*
X173894035Y-94657830D01*
X173993903Y-94443663D01*
X174055063Y-94215408D01*
X174075659Y-93980000D01*
X174055063Y-93744592D01*
X173993903Y-93516337D01*
X173894035Y-93302171D01*
X173758495Y-93108599D01*
X173591401Y-92941505D01*
X173405839Y-92811573D01*
X173366974Y-92767255D01*
X173352964Y-92709999D01*
X173366975Y-92652742D01*
X173405837Y-92608428D01*
X173591401Y-92478495D01*
X173758495Y-92311401D01*
X173894035Y-92117830D01*
X173993903Y-91903663D01*
X174055063Y-91675408D01*
X174075659Y-91440000D01*
X174055063Y-91204592D01*
X173993903Y-90976337D01*
X173894035Y-90762171D01*
X173758495Y-90568599D01*
X173636569Y-90446673D01*
X173605273Y-90393927D01*
X173603084Y-90332634D01*
X173630537Y-90277789D01*
X173680916Y-90242810D01*
X173812331Y-90193796D01*
X173927546Y-90107546D01*
X174013796Y-89992331D01*
X174064091Y-89857483D01*
X174070500Y-89797873D01*
X174070499Y-88002128D01*
X174064091Y-87942517D01*
X174013796Y-87807669D01*
X173927546Y-87692454D01*
X173812331Y-87606204D01*
X173677483Y-87555909D01*
X173617873Y-87549500D01*
X173617869Y-87549500D01*
X171822130Y-87549500D01*
X171762515Y-87555909D01*
X171627669Y-87606204D01*
X171512454Y-87692454D01*
X171426204Y-87807668D01*
X171375909Y-87942516D01*
X171369500Y-88002130D01*
X171369500Y-89797869D01*
X171375909Y-89857484D01*
X171386857Y-89886836D01*
X171426204Y-89992331D01*
X171512454Y-90107546D01*
X171627669Y-90193796D01*
X171717383Y-90227257D01*
X171759082Y-90242810D01*
X171809462Y-90277789D01*
X171836915Y-90332634D01*
X171834726Y-90393926D01*
X171803431Y-90446673D01*
X171681503Y-90568601D01*
X171545965Y-90762170D01*
X171446097Y-90976336D01*
X171384936Y-91204592D01*
X171364340Y-91439999D01*
X171384936Y-91675407D01*
X171421712Y-91812655D01*
X171446097Y-91903663D01*
X171545965Y-92117830D01*
X171681505Y-92311401D01*
X171848599Y-92478495D01*
X172034160Y-92608426D01*
X172073024Y-92652743D01*
X172087035Y-92710000D01*
X172073024Y-92767257D01*
X172034160Y-92811574D01*
X171867050Y-92928586D01*
X171848595Y-92941508D01*
X171681505Y-93108598D01*
X171545965Y-93302170D01*
X171446097Y-93516336D01*
X171384936Y-93744592D01*
X171364340Y-93980000D01*
X171384936Y-94215407D01*
X171420881Y-94349554D01*
X171446097Y-94443663D01*
X171545965Y-94657830D01*
X171681505Y-94851401D01*
X171848599Y-95018495D01*
X172034160Y-95148426D01*
X172073024Y-95192743D01*
X172087035Y-95250000D01*
X172073024Y-95307257D01*
X172034159Y-95351575D01*
X171848595Y-95481508D01*
X171681505Y-95648598D01*
X171545965Y-95842170D01*
X171446097Y-96056336D01*
X171384936Y-96284592D01*
X171364340Y-96519999D01*
X171384936Y-96755407D01*
X171422354Y-96895051D01*
X171446097Y-96983663D01*
X171545965Y-97197830D01*
X171681505Y-97391401D01*
X171848599Y-97558495D01*
X172034160Y-97688426D01*
X172073024Y-97732743D01*
X172087035Y-97790000D01*
X172073024Y-97847257D01*
X172034158Y-97891575D01*
X171906487Y-97980972D01*
X171848595Y-98021508D01*
X171681505Y-98188598D01*
X171545965Y-98382170D01*
X171446097Y-98596336D01*
X171384936Y-98824592D01*
X171364340Y-99060000D01*
X171384936Y-99295407D01*
X171429055Y-99460059D01*
X171446097Y-99523663D01*
X171545965Y-99737830D01*
X171681505Y-99931401D01*
X171848599Y-100098495D01*
X172034160Y-100228426D01*
X172073024Y-100272743D01*
X172087035Y-100330000D01*
X172073024Y-100387257D01*
X172034159Y-100431575D01*
X171848595Y-100561508D01*
X171681505Y-100728598D01*
X171545965Y-100922170D01*
X171446097Y-101136336D01*
X171384936Y-101364592D01*
X171364340Y-101600000D01*
X171384936Y-101835407D01*
X171429709Y-102002501D01*
X171446097Y-102063663D01*
X171545965Y-102277830D01*
X171681505Y-102471401D01*
X171848599Y-102638495D01*
X172034160Y-102768426D01*
X172073024Y-102812743D01*
X172087035Y-102870000D01*
X172073024Y-102927257D01*
X172034160Y-102971574D01*
X171906487Y-103060972D01*
X171848595Y-103101508D01*
X171681505Y-103268598D01*
X171545965Y-103462170D01*
X171446097Y-103676336D01*
X171384936Y-103904592D01*
X171364340Y-104140000D01*
X171384936Y-104375407D01*
X171429709Y-104542501D01*
X171446097Y-104603663D01*
X171545965Y-104817830D01*
X171681505Y-105011401D01*
X171848599Y-105178495D01*
X172034160Y-105308426D01*
X172073024Y-105352743D01*
X172087035Y-105410000D01*
X172073024Y-105467257D01*
X172034159Y-105511575D01*
X171848595Y-105641508D01*
X171681505Y-105808598D01*
X171545965Y-106002170D01*
X171446097Y-106216336D01*
X171384936Y-106444592D01*
X171364340Y-106679999D01*
X171384936Y-106915407D01*
X171429709Y-107082502D01*
X171446097Y-107143663D01*
X171545965Y-107357830D01*
X171681505Y-107551401D01*
X171848599Y-107718495D01*
X172034160Y-107848426D01*
X172073024Y-107892743D01*
X172087035Y-107950000D01*
X172073024Y-108007257D01*
X172034159Y-108051575D01*
X171848595Y-108181508D01*
X171681505Y-108348598D01*
X171545965Y-108542170D01*
X171446097Y-108756336D01*
X171384936Y-108984592D01*
X171364340Y-109219999D01*
X171384936Y-109455407D01*
X171429709Y-109622501D01*
X171446097Y-109683663D01*
X171545965Y-109897830D01*
X171681505Y-110091401D01*
X171848599Y-110258495D01*
X172034160Y-110388426D01*
X172073024Y-110432743D01*
X172087035Y-110490000D01*
X172073024Y-110547257D01*
X172034158Y-110591575D01*
X171888338Y-110693680D01*
X171848595Y-110721508D01*
X171681505Y-110888598D01*
X171545965Y-111082170D01*
X171446097Y-111296336D01*
X171384936Y-111524592D01*
X171370153Y-111693555D01*
X171345000Y-111758234D01*
X171289035Y-111799269D01*
X171219786Y-111803808D01*
X171158944Y-111770428D01*
X169444049Y-110055533D01*
X169417169Y-110015305D01*
X169407730Y-109967852D01*
X169407730Y-101011044D01*
X169421741Y-100953787D01*
X169460607Y-100909469D01*
X169621370Y-100796902D01*
X169782276Y-100635996D01*
X169807513Y-100599953D01*
X169912798Y-100449590D01*
X170008969Y-100243352D01*
X170067865Y-100023548D01*
X170087698Y-99796856D01*
X170067865Y-99570164D01*
X170008969Y-99350360D01*
X169912798Y-99144122D01*
X169853896Y-99060001D01*
X169782276Y-98957715D01*
X169621370Y-98796809D01*
X169434965Y-98666288D01*
X169228727Y-98570117D01*
X169008919Y-98511220D01*
X168782230Y-98491387D01*
X168555540Y-98511220D01*
X168335732Y-98570117D01*
X168129494Y-98666288D01*
X167943089Y-98796809D01*
X167782183Y-98957715D01*
X167651662Y-99144120D01*
X167555491Y-99350358D01*
X167496594Y-99570166D01*
X167476761Y-99796856D01*
X166171666Y-99796856D01*
X166230568Y-99712734D01*
X166326739Y-99506496D01*
X166385635Y-99286692D01*
X166405468Y-99060000D01*
X166385635Y-98833308D01*
X166326739Y-98613504D01*
X166230568Y-98407266D01*
X166229507Y-98405751D01*
X166100046Y-98220859D01*
X165939140Y-98059953D01*
X165778377Y-97947387D01*
X165739511Y-97903069D01*
X165725500Y-97845812D01*
X165725500Y-94781124D01*
X165727763Y-94760620D01*
X165725561Y-94690528D01*
X165725500Y-94686634D01*
X165725500Y-94659040D01*
X165725500Y-94659033D01*
X165724995Y-94655036D01*
X165724080Y-94643406D01*
X165723745Y-94632734D01*
X165722709Y-94599756D01*
X165717120Y-94580523D01*
X165713174Y-94561465D01*
X165710664Y-94541589D01*
X165694588Y-94500987D01*
X165690804Y-94489936D01*
X165684881Y-94469551D01*
X165678618Y-94447993D01*
X165668414Y-94430738D01*
X165659861Y-94413278D01*
X165659635Y-94412707D01*
X165652486Y-94394651D01*
X165626808Y-94359308D01*
X165620401Y-94349554D01*
X165598169Y-94311962D01*
X165584006Y-94297799D01*
X165571367Y-94283000D01*
X165559595Y-94266796D01*
X165525941Y-94238956D01*
X165517299Y-94231092D01*
X164983170Y-93696962D01*
X164951076Y-93641374D01*
X164951076Y-93577187D01*
X164962781Y-93533504D01*
X164969392Y-93508832D01*
X164989225Y-93282140D01*
X164969392Y-93055448D01*
X164910496Y-92835644D01*
X164814325Y-92629406D01*
X164803562Y-92614035D01*
X164683803Y-92442999D01*
X164522897Y-92282093D01*
X164362134Y-92169527D01*
X164323268Y-92125209D01*
X164309257Y-92067952D01*
X164309257Y-90106497D01*
X164311520Y-90085993D01*
X164311144Y-90074035D01*
X164309318Y-90015901D01*
X164309257Y-90012007D01*
X164309257Y-89984414D01*
X164309257Y-89984407D01*
X164308752Y-89980410D01*
X164307837Y-89968780D01*
X164306466Y-89925130D01*
X164300877Y-89905894D01*
X164296933Y-89886850D01*
X164294421Y-89866965D01*
X164278339Y-89826348D01*
X164274555Y-89815297D01*
X164269493Y-89797873D01*
X164262374Y-89773367D01*
X164252178Y-89756126D01*
X164243620Y-89738659D01*
X164236243Y-89720025D01*
X164210555Y-89684669D01*
X164204166Y-89674941D01*
X164181927Y-89637336D01*
X164167763Y-89623172D01*
X164155126Y-89608377D01*
X164143352Y-89592171D01*
X164140387Y-89589718D01*
X164109692Y-89564325D01*
X164101062Y-89556471D01*
X160879388Y-86334797D01*
X163137134Y-86334797D01*
X163157730Y-86570205D01*
X163202503Y-86737300D01*
X163218891Y-86798461D01*
X163318759Y-87012628D01*
X163454299Y-87206199D01*
X163621393Y-87373293D01*
X163814419Y-87508451D01*
X163853283Y-87552768D01*
X163867294Y-87610025D01*
X163867294Y-87804676D01*
X163865029Y-87825182D01*
X163867233Y-87895293D01*
X163867294Y-87899188D01*
X163867294Y-87926769D01*
X163867797Y-87930754D01*
X163868712Y-87942387D01*
X163870084Y-87986046D01*
X163875673Y-88005280D01*
X163879619Y-88024336D01*
X163882129Y-88044212D01*
X163898208Y-88084824D01*
X163901991Y-88095871D01*
X163914176Y-88137811D01*
X163924374Y-88155055D01*
X163932930Y-88172520D01*
X163940308Y-88191152D01*
X163940309Y-88191153D01*
X163965974Y-88226479D01*
X163972387Y-88236242D01*
X163994620Y-88273836D01*
X163994623Y-88273839D01*
X163994624Y-88273840D01*
X164008789Y-88288005D01*
X164021421Y-88302795D01*
X164033200Y-88319007D01*
X164066852Y-88346846D01*
X164075493Y-88354709D01*
X167482816Y-91762032D01*
X167514910Y-91817619D01*
X167514910Y-91881805D01*
X167496594Y-91950163D01*
X167476761Y-92176856D01*
X167496594Y-92403545D01*
X167555491Y-92623353D01*
X167651662Y-92829591D01*
X167782183Y-93015996D01*
X167943089Y-93176902D01*
X168129494Y-93307423D01*
X168129495Y-93307423D01*
X168129496Y-93307424D01*
X168335734Y-93403595D01*
X168555538Y-93462491D01*
X168782230Y-93482324D01*
X169008922Y-93462491D01*
X169228726Y-93403595D01*
X169434964Y-93307424D01*
X169621369Y-93176903D01*
X169782277Y-93015995D01*
X169912798Y-92829590D01*
X170008969Y-92623352D01*
X170067865Y-92403548D01*
X170087698Y-92176856D01*
X170067865Y-91950164D01*
X170008969Y-91730360D01*
X169912798Y-91524122D01*
X169782277Y-91337717D01*
X169782276Y-91337715D01*
X169621370Y-91176809D01*
X169434965Y-91046288D01*
X169228727Y-90950117D01*
X169008919Y-90891220D01*
X168782230Y-90871387D01*
X168555537Y-90891220D01*
X168487180Y-90909536D01*
X168422994Y-90909536D01*
X168367407Y-90877442D01*
X165174056Y-87684091D01*
X165145215Y-87638820D01*
X165138209Y-87585603D01*
X165154350Y-87534410D01*
X165190611Y-87494837D01*
X165364195Y-87373293D01*
X165531289Y-87206199D01*
X165666829Y-87012628D01*
X165766697Y-86798461D01*
X165827857Y-86570206D01*
X165848453Y-86334798D01*
X165838182Y-86217408D01*
X165827857Y-86099390D01*
X165784574Y-85937854D01*
X165766697Y-85871135D01*
X165666829Y-85656969D01*
X165531289Y-85463397D01*
X165364195Y-85296303D01*
X165170624Y-85160763D01*
X164956457Y-85060895D01*
X164895296Y-85044507D01*
X164728201Y-84999734D01*
X164492794Y-84979138D01*
X164257386Y-84999734D01*
X164029130Y-85060895D01*
X163814964Y-85160763D01*
X163621392Y-85296303D01*
X163454299Y-85463396D01*
X163318759Y-85656968D01*
X163218891Y-85871134D01*
X163157730Y-86099390D01*
X163137134Y-86334797D01*
X160879388Y-86334797D01*
X157980802Y-83436211D01*
X157967906Y-83420113D01*
X157916775Y-83372098D01*
X157913978Y-83369387D01*
X157894470Y-83349879D01*
X157891290Y-83347412D01*
X157882424Y-83339839D01*
X157850582Y-83309938D01*
X157833024Y-83300285D01*
X157816764Y-83289604D01*
X157800936Y-83277327D01*
X157760851Y-83259980D01*
X157750361Y-83254841D01*
X157712091Y-83233802D01*
X157692691Y-83228821D01*
X157674284Y-83222519D01*
X157655897Y-83214562D01*
X157612758Y-83207729D01*
X157601324Y-83205361D01*
X157559019Y-83194500D01*
X157538984Y-83194500D01*
X157519586Y-83192973D01*
X157510973Y-83191609D01*
X157499805Y-83189840D01*
X157499804Y-83189840D01*
X157466751Y-83192964D01*
X157456325Y-83193950D01*
X157444656Y-83194500D01*
X156154188Y-83194500D01*
X156096931Y-83180489D01*
X156052613Y-83141623D01*
X155940046Y-82980859D01*
X155779140Y-82819953D01*
X155592735Y-82689432D01*
X155386497Y-82593261D01*
X155166689Y-82534364D01*
X154940000Y-82514531D01*
X154713310Y-82534364D01*
X154493502Y-82593261D01*
X154287264Y-82689432D01*
X154100859Y-82819953D01*
X153939953Y-82980859D01*
X153809432Y-83167264D01*
X153713261Y-83373502D01*
X153654364Y-83593310D01*
X153634531Y-83820000D01*
X151102526Y-83820000D01*
X153417729Y-81504798D01*
X163142794Y-81504798D01*
X163142794Y-82152622D01*
X163149196Y-82212173D01*
X163199441Y-82346887D01*
X163285605Y-82461986D01*
X163400704Y-82548150D01*
X163535418Y-82598395D01*
X163594970Y-82604798D01*
X164242794Y-82604798D01*
X164242794Y-81504798D01*
X164742794Y-81504798D01*
X164742794Y-82604798D01*
X165390618Y-82604798D01*
X165450169Y-82598395D01*
X165584883Y-82548150D01*
X165699982Y-82461986D01*
X165786146Y-82346887D01*
X165836391Y-82212173D01*
X165842794Y-82152622D01*
X165842794Y-81504798D01*
X164742794Y-81504798D01*
X164242794Y-81504798D01*
X163142794Y-81504798D01*
X153417729Y-81504798D01*
X153917729Y-81004798D01*
X163142794Y-81004798D01*
X164242794Y-81004798D01*
X164242794Y-79904798D01*
X164742794Y-79904798D01*
X164742794Y-81004798D01*
X165842794Y-81004798D01*
X165842794Y-80356974D01*
X165836391Y-80297422D01*
X165786146Y-80162708D01*
X165699982Y-80047609D01*
X165584883Y-79961445D01*
X165450169Y-79911200D01*
X165390618Y-79904798D01*
X164742794Y-79904798D01*
X164242794Y-79904798D01*
X163594970Y-79904798D01*
X163535418Y-79911200D01*
X163400704Y-79961445D01*
X163285605Y-80047609D01*
X163199441Y-80162708D01*
X163149196Y-80297422D01*
X163142794Y-80356974D01*
X163142794Y-81004798D01*
X153917729Y-81004798D01*
X154887771Y-80034757D01*
X154928000Y-80007877D01*
X154975453Y-79998438D01*
X155034648Y-79998438D01*
X155158083Y-79972200D01*
X155219803Y-79959082D01*
X155392730Y-79882089D01*
X155545871Y-79770826D01*
X155672533Y-79630154D01*
X155767179Y-79466222D01*
X155825674Y-79286194D01*
X155828422Y-79260047D01*
X170978997Y-79260047D01*
X170998163Y-79491347D01*
X170998163Y-79491349D01*
X170998164Y-79491353D01*
X171055141Y-79716348D01*
X171148374Y-79928897D01*
X171275319Y-80123201D01*
X171432514Y-80293961D01*
X171615672Y-80436518D01*
X171819795Y-80546984D01*
X171929555Y-80584664D01*
X172039313Y-80622345D01*
X172039315Y-80622345D01*
X172039317Y-80622346D01*
X172268249Y-80660548D01*
X172500346Y-80660548D01*
X172500347Y-80660548D01*
X172729279Y-80622346D01*
X172948801Y-80546984D01*
X173152924Y-80436518D01*
X173336082Y-80293961D01*
X173493277Y-80123201D01*
X173620222Y-79928897D01*
X173713455Y-79716348D01*
X173770432Y-79491353D01*
X173789598Y-79260048D01*
X173770432Y-79028743D01*
X173713455Y-78803748D01*
X173620222Y-78591199D01*
X173493277Y-78396895D01*
X173398129Y-78293536D01*
X173369357Y-78240785D01*
X173368764Y-78180698D01*
X173396491Y-78127388D01*
X173446027Y-78093373D01*
X173526386Y-78063400D01*
X173641486Y-77977236D01*
X173727650Y-77862137D01*
X173777895Y-77727423D01*
X173784298Y-77667872D01*
X173784298Y-76970048D01*
X170984298Y-76970048D01*
X170984298Y-77667872D01*
X170990700Y-77727423D01*
X171040945Y-77862137D01*
X171127109Y-77977236D01*
X171242208Y-78063400D01*
X171322569Y-78093373D01*
X171372104Y-78127388D01*
X171399831Y-78180698D01*
X171399238Y-78240784D01*
X171370465Y-78293537D01*
X171275320Y-78396892D01*
X171148374Y-78591198D01*
X171055142Y-78803744D01*
X171055140Y-78803748D01*
X171055141Y-78803748D01*
X171005632Y-78999255D01*
X170998163Y-79028748D01*
X170978997Y-79260047D01*
X155828422Y-79260047D01*
X155845460Y-79097938D01*
X155825674Y-78909682D01*
X155776662Y-78758839D01*
X155767179Y-78729653D01*
X155672533Y-78565721D01*
X155545870Y-78425048D01*
X155392730Y-78313786D01*
X155219802Y-78236793D01*
X155034648Y-78197438D01*
X155034646Y-78197438D01*
X154845354Y-78197438D01*
X154845352Y-78197438D01*
X154660197Y-78236793D01*
X154607040Y-78260461D01*
X154546876Y-78270800D01*
X154489069Y-78251177D01*
X154447631Y-78206350D01*
X154432604Y-78147182D01*
X154432604Y-77268336D01*
X158608828Y-77268336D01*
X158628661Y-77495026D01*
X158687558Y-77714834D01*
X158783729Y-77921072D01*
X158914250Y-78107477D01*
X159075156Y-78268383D01*
X159261561Y-78398904D01*
X159261562Y-78398904D01*
X159261563Y-78398905D01*
X159467801Y-78495076D01*
X159687605Y-78553972D01*
X159821897Y-78565721D01*
X159914296Y-78573805D01*
X159914296Y-78573804D01*
X159914297Y-78573805D01*
X160140989Y-78553972D01*
X160360793Y-78495076D01*
X160567031Y-78398905D01*
X160753436Y-78268384D01*
X160914344Y-78107476D01*
X161044865Y-77921071D01*
X161141036Y-77714833D01*
X161199932Y-77495029D01*
X161219765Y-77268337D01*
X161219765Y-77268336D01*
X166228828Y-77268336D01*
X166248661Y-77495026D01*
X166307558Y-77714834D01*
X166403729Y-77921072D01*
X166534250Y-78107477D01*
X166695156Y-78268383D01*
X166881561Y-78398904D01*
X166881562Y-78398904D01*
X166881563Y-78398905D01*
X167087801Y-78495076D01*
X167307605Y-78553972D01*
X167441897Y-78565721D01*
X167534296Y-78573805D01*
X167534296Y-78573804D01*
X167534297Y-78573805D01*
X167760989Y-78553972D01*
X167980793Y-78495076D01*
X168187031Y-78398905D01*
X168373436Y-78268384D01*
X168534344Y-78107476D01*
X168664865Y-77921071D01*
X168761036Y-77714833D01*
X168819932Y-77495029D01*
X168839765Y-77268337D01*
X168819932Y-77041645D01*
X168761036Y-76821841D01*
X168664865Y-76615603D01*
X168661919Y-76611396D01*
X168562947Y-76470048D01*
X170984298Y-76470048D01*
X172134298Y-76470048D01*
X172134298Y-75320048D01*
X172634298Y-75320048D01*
X172634298Y-76470048D01*
X173784298Y-76470048D01*
X173784298Y-75772224D01*
X173777895Y-75712672D01*
X173727650Y-75577958D01*
X173641486Y-75462859D01*
X173526387Y-75376695D01*
X173391673Y-75326450D01*
X173332122Y-75320048D01*
X172634298Y-75320048D01*
X172134298Y-75320048D01*
X171436474Y-75320048D01*
X171376922Y-75326450D01*
X171242208Y-75376695D01*
X171127109Y-75462859D01*
X171040945Y-75577958D01*
X170990700Y-75712672D01*
X170984298Y-75772224D01*
X170984298Y-76470048D01*
X168562947Y-76470048D01*
X168534343Y-76429196D01*
X168373437Y-76268290D01*
X168187032Y-76137769D01*
X167980794Y-76041598D01*
X167760986Y-75982701D01*
X167534297Y-75962868D01*
X167307607Y-75982701D01*
X167087799Y-76041598D01*
X166881561Y-76137769D01*
X166695156Y-76268290D01*
X166534250Y-76429196D01*
X166403729Y-76615601D01*
X166307558Y-76821839D01*
X166248661Y-77041647D01*
X166228828Y-77268336D01*
X161219765Y-77268336D01*
X161199932Y-77041645D01*
X161141036Y-76821841D01*
X161044865Y-76615603D01*
X161041919Y-76611396D01*
X160914343Y-76429196D01*
X160753437Y-76268290D01*
X160567032Y-76137769D01*
X160360794Y-76041598D01*
X160140986Y-75982701D01*
X159914297Y-75962868D01*
X159687607Y-75982701D01*
X159467799Y-76041598D01*
X159261561Y-76137769D01*
X159075156Y-76268290D01*
X158914250Y-76429196D01*
X158783729Y-76615601D01*
X158687558Y-76821839D01*
X158628661Y-77041647D01*
X158608828Y-77268336D01*
X154432604Y-77268336D01*
X154432604Y-76767173D01*
X154432603Y-76767166D01*
X154426196Y-76707560D01*
X154375901Y-76572712D01*
X154289651Y-76457497D01*
X154174436Y-76371247D01*
X154039588Y-76320952D01*
X153979978Y-76314543D01*
X153979974Y-76314543D01*
X152834235Y-76314543D01*
X152774620Y-76320952D01*
X152626196Y-76376310D01*
X152589495Y-76392187D01*
X152532032Y-76388720D01*
X152387105Y-76344757D01*
X152387105Y-76709371D01*
X152386394Y-76722627D01*
X152381605Y-76767166D01*
X152381605Y-78362913D01*
X152386395Y-78407465D01*
X152387105Y-78420718D01*
X152387105Y-78785329D01*
X152532032Y-78741365D01*
X152589501Y-78737898D01*
X152626184Y-78753769D01*
X152639770Y-78758836D01*
X152639774Y-78758839D01*
X152774622Y-78809134D01*
X152834232Y-78815543D01*
X153926504Y-78815542D01*
X153992214Y-78834384D01*
X154037954Y-78885184D01*
X154049825Y-78952503D01*
X154036679Y-79077586D01*
X154025279Y-79118008D01*
X154001039Y-79152306D01*
X149145166Y-84008181D01*
X149104938Y-84035061D01*
X149057485Y-84044500D01*
X148998290Y-84044500D01*
X148813137Y-84083854D01*
X148794936Y-84091959D01*
X148734771Y-84102298D01*
X148676964Y-84082676D01*
X148635526Y-84037848D01*
X148620499Y-83978680D01*
X148620499Y-82972130D01*
X148616460Y-82934556D01*
X148614091Y-82912517D01*
X148563796Y-82777669D01*
X148477546Y-82662454D01*
X148362331Y-82576204D01*
X148227483Y-82525909D01*
X148167873Y-82519500D01*
X148167869Y-82519500D01*
X146472130Y-82519500D01*
X146412515Y-82525909D01*
X146277669Y-82576204D01*
X146162454Y-82662454D01*
X146076204Y-82777668D01*
X146025909Y-82912515D01*
X146025909Y-82912517D01*
X146023540Y-82934556D01*
X146019500Y-82972131D01*
X146019500Y-84184547D01*
X146010061Y-84232000D01*
X145983181Y-84272228D01*
X141856208Y-88399199D01*
X141840110Y-88412096D01*
X141792096Y-88463225D01*
X141789391Y-88466017D01*
X141769874Y-88485534D01*
X141767415Y-88488705D01*
X141759842Y-88497572D01*
X141729935Y-88529420D01*
X141720285Y-88546974D01*
X141709609Y-88563228D01*
X141697326Y-88579063D01*
X141679975Y-88619158D01*
X141674838Y-88629644D01*
X141653802Y-88667907D01*
X141648821Y-88687309D01*
X141642520Y-88705711D01*
X141634561Y-88724102D01*
X141627728Y-88767242D01*
X141625360Y-88778674D01*
X141614500Y-88820978D01*
X141614500Y-88841016D01*
X141612973Y-88860415D01*
X141609840Y-88880194D01*
X141613950Y-88923675D01*
X141614500Y-88935344D01*
X141614500Y-98361313D01*
X141606264Y-98405751D01*
X141582652Y-98444282D01*
X141549545Y-98481051D01*
X141507464Y-98527786D01*
X141412820Y-98691715D01*
X141354326Y-98871742D01*
X141334540Y-99059999D01*
X138515659Y-99059999D01*
X138495063Y-98824592D01*
X138433903Y-98596337D01*
X138334035Y-98382171D01*
X138198495Y-98188599D01*
X138031401Y-98021505D01*
X137837830Y-97885965D01*
X137623663Y-97786097D01*
X137562502Y-97769709D01*
X137395407Y-97724936D01*
X137160000Y-97704340D01*
X136924592Y-97724936D01*
X136696336Y-97786097D01*
X136482170Y-97885965D01*
X136288598Y-98021505D01*
X136121505Y-98188598D01*
X135985965Y-98382170D01*
X135886097Y-98596336D01*
X135824936Y-98824592D01*
X135804340Y-99059999D01*
X135824936Y-99295408D01*
X135851855Y-99395873D01*
X135851855Y-99460059D01*
X135819761Y-99515646D01*
X134236208Y-101099199D01*
X134220110Y-101112096D01*
X134172096Y-101163225D01*
X134169391Y-101166017D01*
X134149874Y-101185534D01*
X134147415Y-101188705D01*
X134139842Y-101197572D01*
X134109935Y-101229420D01*
X134100285Y-101246974D01*
X134089609Y-101263228D01*
X134077326Y-101279063D01*
X134059975Y-101319158D01*
X134054838Y-101329644D01*
X134033802Y-101367907D01*
X134028821Y-101387309D01*
X134022520Y-101405711D01*
X134014561Y-101424102D01*
X134007728Y-101467242D01*
X134005360Y-101478674D01*
X133994500Y-101520978D01*
X133994500Y-101541016D01*
X133992973Y-101560415D01*
X133989840Y-101580194D01*
X133993950Y-101623675D01*
X133994500Y-101635344D01*
X133994500Y-118165812D01*
X133980489Y-118223069D01*
X133941623Y-118267387D01*
X133780859Y-118379953D01*
X133619953Y-118540859D01*
X133489432Y-118727264D01*
X133393261Y-118933502D01*
X133334364Y-119153310D01*
X133314531Y-119379999D01*
X128305468Y-119379999D01*
X128285635Y-119153308D01*
X128226739Y-118933504D01*
X128130568Y-118727266D01*
X128000047Y-118540861D01*
X128000046Y-118540859D01*
X127839140Y-118379953D01*
X127652735Y-118249432D01*
X127446497Y-118153261D01*
X127226689Y-118094364D01*
X127000000Y-118074531D01*
X126773310Y-118094364D01*
X126553502Y-118153261D01*
X126347264Y-118249432D01*
X126160859Y-118379953D01*
X125999953Y-118540859D01*
X125869432Y-118727264D01*
X125773261Y-118933502D01*
X125714364Y-119153310D01*
X125694531Y-119379999D01*
X125000500Y-119379999D01*
X125000500Y-114550000D01*
X128209364Y-114550000D01*
X128266569Y-114763492D01*
X128366399Y-114977576D01*
X128501893Y-115171081D01*
X128668918Y-115338106D01*
X128862423Y-115473600D01*
X129076507Y-115573430D01*
X129289999Y-115630635D01*
X129290000Y-115630636D01*
X129290000Y-114550000D01*
X129790000Y-114550000D01*
X129790000Y-115630635D01*
X130003492Y-115573430D01*
X130217576Y-115473600D01*
X130411081Y-115338106D01*
X130578106Y-115171081D01*
X130713600Y-114977576D01*
X130813430Y-114763492D01*
X130870636Y-114550000D01*
X129790000Y-114550000D01*
X129290000Y-114550000D01*
X128209364Y-114550000D01*
X125000500Y-114550000D01*
X125000500Y-105067781D01*
X125015527Y-105008613D01*
X125056965Y-104963786D01*
X125114771Y-104944163D01*
X125174935Y-104954501D01*
X125279699Y-105001145D01*
X125464852Y-105040500D01*
X125464854Y-105040500D01*
X125654146Y-105040500D01*
X125654148Y-105040500D01*
X125791047Y-105011401D01*
X125839303Y-105001144D01*
X126012230Y-104924151D01*
X126165371Y-104812888D01*
X126171098Y-104806526D01*
X126212812Y-104776220D01*
X126263247Y-104765500D01*
X128264773Y-104765500D01*
X128322030Y-104779511D01*
X128366346Y-104818374D01*
X128501505Y-105011401D01*
X128668599Y-105178495D01*
X128854160Y-105308426D01*
X128893024Y-105352743D01*
X128907035Y-105410000D01*
X128893024Y-105467257D01*
X128854159Y-105511575D01*
X128668595Y-105641508D01*
X128501505Y-105808598D01*
X128365965Y-106002170D01*
X128266097Y-106216336D01*
X128204936Y-106444592D01*
X128184340Y-106679999D01*
X128204936Y-106915407D01*
X128249709Y-107082502D01*
X128266097Y-107143663D01*
X128365965Y-107357830D01*
X128501505Y-107551401D01*
X128668599Y-107718495D01*
X128854160Y-107848426D01*
X128893024Y-107892743D01*
X128907035Y-107950000D01*
X128893024Y-108007257D01*
X128854159Y-108051575D01*
X128668595Y-108181508D01*
X128501505Y-108348598D01*
X128365965Y-108542170D01*
X128266097Y-108756336D01*
X128204936Y-108984592D01*
X128184340Y-109220000D01*
X128204936Y-109455407D01*
X128249709Y-109622502D01*
X128266097Y-109683663D01*
X128365965Y-109897830D01*
X128501505Y-110091401D01*
X128668599Y-110258495D01*
X128854160Y-110388426D01*
X128893024Y-110432743D01*
X128907035Y-110490000D01*
X128893024Y-110547257D01*
X128854158Y-110591575D01*
X128708338Y-110693680D01*
X128668595Y-110721508D01*
X128501505Y-110888598D01*
X128365965Y-111082170D01*
X128266097Y-111296336D01*
X128204936Y-111524592D01*
X128184340Y-111759999D01*
X128204936Y-111995407D01*
X128247289Y-112153469D01*
X128266097Y-112223663D01*
X128365965Y-112437830D01*
X128501505Y-112631401D01*
X128668599Y-112798495D01*
X128854597Y-112928732D01*
X128893460Y-112973048D01*
X128907471Y-113030305D01*
X128893461Y-113087561D01*
X128854595Y-113131880D01*
X128668919Y-113261892D01*
X128501890Y-113428921D01*
X128366400Y-113622421D01*
X128266569Y-113836507D01*
X128209364Y-114049999D01*
X128209364Y-114050000D01*
X130870636Y-114050000D01*
X130870635Y-114049999D01*
X130813430Y-113836507D01*
X130713599Y-113622421D01*
X130578109Y-113428921D01*
X130411081Y-113261893D01*
X130225404Y-113131880D01*
X130186539Y-113087562D01*
X130172528Y-113030305D01*
X130186539Y-112973048D01*
X130225402Y-112928732D01*
X130411401Y-112798495D01*
X130578495Y-112631401D01*
X130714035Y-112437830D01*
X130813903Y-112223663D01*
X130875063Y-111995408D01*
X130895659Y-111760000D01*
X130875063Y-111524592D01*
X130813903Y-111296337D01*
X130714035Y-111082171D01*
X130578495Y-110888599D01*
X130411401Y-110721505D01*
X130225839Y-110591573D01*
X130186975Y-110547257D01*
X130172964Y-110490000D01*
X130186975Y-110432743D01*
X130225839Y-110388426D01*
X130411401Y-110258495D01*
X130578495Y-110091401D01*
X130714035Y-109897830D01*
X130813903Y-109683663D01*
X130875063Y-109455408D01*
X130895659Y-109220000D01*
X130893878Y-109199649D01*
X130875063Y-108984592D01*
X130858642Y-108923307D01*
X130813903Y-108756337D01*
X130714035Y-108542171D01*
X130578495Y-108348599D01*
X130411401Y-108181505D01*
X130225839Y-108051573D01*
X130186975Y-108007257D01*
X130172964Y-107950000D01*
X130186975Y-107892743D01*
X130225839Y-107848426D01*
X130411401Y-107718495D01*
X130578495Y-107551401D01*
X130714035Y-107357830D01*
X130813903Y-107143663D01*
X130875063Y-106915408D01*
X130895659Y-106680000D01*
X130875063Y-106444592D01*
X130813903Y-106216337D01*
X130714035Y-106002171D01*
X130578495Y-105808599D01*
X130411401Y-105641505D01*
X130225839Y-105511573D01*
X130186975Y-105467257D01*
X130172964Y-105410000D01*
X130186975Y-105352743D01*
X130225839Y-105308426D01*
X130411401Y-105178495D01*
X130578495Y-105011401D01*
X130714035Y-104817830D01*
X130813903Y-104603663D01*
X130875063Y-104375408D01*
X130895659Y-104140000D01*
X130875063Y-103904592D01*
X130813903Y-103676337D01*
X130714035Y-103462171D01*
X130578495Y-103268599D01*
X130411401Y-103101505D01*
X130225839Y-102971573D01*
X130186974Y-102927255D01*
X130172964Y-102869999D01*
X130186975Y-102812742D01*
X130225837Y-102768428D01*
X130411401Y-102638495D01*
X130578495Y-102471401D01*
X130714035Y-102277830D01*
X130813903Y-102063663D01*
X130875063Y-101835408D01*
X130895659Y-101600000D01*
X130875063Y-101364592D01*
X130813903Y-101136337D01*
X130714035Y-100922171D01*
X130578495Y-100728599D01*
X130411401Y-100561505D01*
X130225839Y-100431573D01*
X130186974Y-100387255D01*
X130172964Y-100329999D01*
X130186975Y-100272742D01*
X130225837Y-100228428D01*
X130411401Y-100098495D01*
X130578495Y-99931401D01*
X130714035Y-99737830D01*
X130813903Y-99523663D01*
X130875063Y-99295408D01*
X130895659Y-99060000D01*
X130895659Y-99059998D01*
X130896598Y-99049271D01*
X130921750Y-98984592D01*
X130977716Y-98943556D01*
X131046965Y-98939017D01*
X131107807Y-98972397D01*
X131141038Y-99005628D01*
X131165277Y-99039925D01*
X131176678Y-99080347D01*
X131194326Y-99248257D01*
X131252820Y-99428284D01*
X131347466Y-99592216D01*
X131474129Y-99732889D01*
X131627269Y-99844151D01*
X131800197Y-99921144D01*
X131985352Y-99960500D01*
X131985354Y-99960500D01*
X132174646Y-99960500D01*
X132174648Y-99960500D01*
X132311547Y-99931401D01*
X132359803Y-99921144D01*
X132532730Y-99844151D01*
X132613495Y-99785472D01*
X132685870Y-99732889D01*
X132812533Y-99592216D01*
X132907179Y-99428284D01*
X132950353Y-99295408D01*
X132965674Y-99248256D01*
X132985460Y-99060000D01*
X132965674Y-98871744D01*
X132907179Y-98691716D01*
X132907179Y-98691715D01*
X132812533Y-98527783D01*
X132685870Y-98387110D01*
X132532730Y-98275848D01*
X132359802Y-98198855D01*
X132174648Y-98159500D01*
X132174646Y-98159500D01*
X132115453Y-98159500D01*
X132068000Y-98150061D01*
X132027772Y-98123181D01*
X131215802Y-97311211D01*
X131202906Y-97295113D01*
X131151775Y-97247098D01*
X131148978Y-97244387D01*
X131129470Y-97224879D01*
X131126290Y-97222412D01*
X131117424Y-97214839D01*
X131085582Y-97184938D01*
X131068024Y-97175285D01*
X131051764Y-97164604D01*
X131035936Y-97152327D01*
X130995851Y-97134980D01*
X130985361Y-97129841D01*
X130947091Y-97108802D01*
X130927691Y-97103821D01*
X130909283Y-97097519D01*
X130894705Y-97091210D01*
X130848133Y-97056116D01*
X130822752Y-97003613D01*
X130824176Y-96945319D01*
X130875063Y-96755408D01*
X130895659Y-96520000D01*
X130875063Y-96284592D01*
X130813903Y-96056337D01*
X130714035Y-95842171D01*
X130578495Y-95648599D01*
X130411401Y-95481505D01*
X130225839Y-95351573D01*
X130186975Y-95307257D01*
X130172964Y-95250000D01*
X130186975Y-95192743D01*
X130225839Y-95148426D01*
X130411401Y-95018495D01*
X130578495Y-94851401D01*
X130714035Y-94657830D01*
X130813903Y-94443663D01*
X130871153Y-94230000D01*
X135810000Y-94230000D01*
X135810000Y-94877824D01*
X135816402Y-94937375D01*
X135866647Y-95072089D01*
X135952811Y-95187188D01*
X136067910Y-95273352D01*
X136202624Y-95323597D01*
X136262176Y-95330000D01*
X136910000Y-95330000D01*
X136910000Y-94230000D01*
X137410000Y-94230000D01*
X137410000Y-95330000D01*
X138057824Y-95330000D01*
X138117375Y-95323597D01*
X138252089Y-95273352D01*
X138367188Y-95187188D01*
X138453352Y-95072089D01*
X138503597Y-94937375D01*
X138510000Y-94877824D01*
X138510000Y-94230000D01*
X137410000Y-94230000D01*
X136910000Y-94230000D01*
X135810000Y-94230000D01*
X130871153Y-94230000D01*
X130875063Y-94215408D01*
X130895659Y-93980000D01*
X130875063Y-93744592D01*
X130871153Y-93730000D01*
X135810000Y-93730000D01*
X136910000Y-93730000D01*
X136910000Y-92630000D01*
X137410000Y-92630000D01*
X137410000Y-93730000D01*
X138510000Y-93730000D01*
X138510000Y-93082176D01*
X138503597Y-93022624D01*
X138453352Y-92887910D01*
X138367188Y-92772811D01*
X138252089Y-92686647D01*
X138117375Y-92636402D01*
X138057824Y-92630000D01*
X137410000Y-92630000D01*
X136910000Y-92630000D01*
X136262176Y-92630000D01*
X136202624Y-92636402D01*
X136067910Y-92686647D01*
X135952811Y-92772811D01*
X135866647Y-92887910D01*
X135816402Y-93022624D01*
X135810000Y-93082176D01*
X135810000Y-93730000D01*
X130871153Y-93730000D01*
X130813903Y-93516337D01*
X130714035Y-93302171D01*
X130578495Y-93108599D01*
X130411401Y-92941505D01*
X130225839Y-92811573D01*
X130186974Y-92767255D01*
X130172964Y-92709999D01*
X130186975Y-92652742D01*
X130225837Y-92608428D01*
X130411401Y-92478495D01*
X130578495Y-92311401D01*
X130714035Y-92117830D01*
X130813903Y-91903663D01*
X130875063Y-91675408D01*
X130895659Y-91440000D01*
X130875063Y-91204592D01*
X130813903Y-90976337D01*
X130714035Y-90762171D01*
X130578495Y-90568599D01*
X130411401Y-90401505D01*
X130225839Y-90271573D01*
X130186975Y-90227257D01*
X130172964Y-90170000D01*
X130186975Y-90112743D01*
X130225839Y-90068426D01*
X130411401Y-89938495D01*
X130578495Y-89771401D01*
X130714035Y-89577830D01*
X130813903Y-89363663D01*
X130875063Y-89135408D01*
X130895659Y-88900000D01*
X130890498Y-88841016D01*
X130875063Y-88664592D01*
X130845839Y-88555525D01*
X130813903Y-88436337D01*
X130714035Y-88222171D01*
X130578495Y-88028599D01*
X130456569Y-87906673D01*
X130425273Y-87853927D01*
X130423084Y-87792634D01*
X130450537Y-87737789D01*
X130500916Y-87702810D01*
X130632331Y-87653796D01*
X130747546Y-87567546D01*
X130833796Y-87452331D01*
X130884091Y-87317483D01*
X130890500Y-87257873D01*
X130890499Y-85462128D01*
X130884091Y-85402517D01*
X130833796Y-85267669D01*
X130747546Y-85152454D01*
X130632331Y-85066204D01*
X130497483Y-85015909D01*
X130437873Y-85009500D01*
X130437869Y-85009500D01*
X128642130Y-85009500D01*
X128582515Y-85015909D01*
X128447669Y-85066204D01*
X128332454Y-85152454D01*
X128246204Y-85267668D01*
X128195909Y-85402516D01*
X128189500Y-85462130D01*
X128189500Y-87257869D01*
X128195909Y-87317483D01*
X128246204Y-87452331D01*
X128332454Y-87567546D01*
X128447669Y-87653796D01*
X128551317Y-87692454D01*
X128579082Y-87702810D01*
X128629462Y-87737789D01*
X128656915Y-87792634D01*
X128654726Y-87853926D01*
X128623431Y-87906673D01*
X128501503Y-88028601D01*
X128365965Y-88222170D01*
X128266097Y-88436336D01*
X128204936Y-88664592D01*
X128184340Y-88899999D01*
X128204936Y-89135407D01*
X128238533Y-89260791D01*
X128266097Y-89363663D01*
X128365965Y-89577830D01*
X128501505Y-89771401D01*
X128668599Y-89938495D01*
X128854160Y-90068426D01*
X128893024Y-90112743D01*
X128907035Y-90170000D01*
X128893024Y-90227257D01*
X128854159Y-90271575D01*
X128838725Y-90282382D01*
X128766958Y-90332634D01*
X128668595Y-90401508D01*
X128501505Y-90568598D01*
X128365965Y-90762170D01*
X128266097Y-90976336D01*
X128204936Y-91204592D01*
X128184340Y-91440000D01*
X128204936Y-91675407D01*
X128241712Y-91812655D01*
X128266097Y-91903663D01*
X128365965Y-92117830D01*
X128501505Y-92311401D01*
X128668599Y-92478495D01*
X128854160Y-92608426D01*
X128893024Y-92652743D01*
X128907035Y-92710000D01*
X128893024Y-92767257D01*
X128854160Y-92811574D01*
X128687050Y-92928586D01*
X128668595Y-92941508D01*
X128501505Y-93108598D01*
X128365965Y-93302170D01*
X128266097Y-93516336D01*
X128204936Y-93744592D01*
X128184340Y-93979999D01*
X128204936Y-94215407D01*
X128240881Y-94349554D01*
X128266097Y-94443663D01*
X128365965Y-94657830D01*
X128501505Y-94851401D01*
X128668599Y-95018495D01*
X128854160Y-95148426D01*
X128893024Y-95192743D01*
X128907035Y-95250000D01*
X128893024Y-95307257D01*
X128854159Y-95351575D01*
X128668595Y-95481508D01*
X128501505Y-95648598D01*
X128365965Y-95842170D01*
X128266097Y-96056336D01*
X128204936Y-96284592D01*
X128184340Y-96519999D01*
X128204936Y-96755407D01*
X128247272Y-96913407D01*
X128249114Y-96969691D01*
X128225873Y-97020986D01*
X128182341Y-97056712D01*
X128127497Y-97069500D01*
X127046516Y-97069500D01*
X126999063Y-97060061D01*
X126958835Y-97033181D01*
X126558584Y-96632929D01*
X126531704Y-96592701D01*
X126522265Y-96545248D01*
X126522265Y-96379432D01*
X126530501Y-96334994D01*
X126554112Y-96296462D01*
X126629298Y-96212961D01*
X126723944Y-96049029D01*
X126782439Y-95869001D01*
X126802225Y-95680745D01*
X126782439Y-95492489D01*
X126748953Y-95389431D01*
X126723944Y-95312460D01*
X126629298Y-95148528D01*
X126502635Y-95007855D01*
X126349495Y-94896593D01*
X126176567Y-94819600D01*
X125991413Y-94780245D01*
X125991411Y-94780245D01*
X125802119Y-94780245D01*
X125802117Y-94780245D01*
X125616962Y-94819600D01*
X125444034Y-94896593D01*
X125290894Y-95007855D01*
X125216650Y-95090313D01*
X125167723Y-95123564D01*
X125108959Y-95130363D01*
X125053732Y-95109164D01*
X125014611Y-95064790D01*
X125000500Y-95007341D01*
X125000500Y-82871508D01*
X129526568Y-82871508D01*
X129532977Y-82931123D01*
X129548271Y-82972127D01*
X129583272Y-83065970D01*
X129669522Y-83181185D01*
X129784737Y-83267435D01*
X129919585Y-83317730D01*
X129979195Y-83324139D01*
X131774940Y-83324138D01*
X131834551Y-83317730D01*
X131969399Y-83267435D01*
X132084614Y-83181185D01*
X132170864Y-83065970D01*
X132219878Y-82934555D01*
X132254857Y-82884176D01*
X132309702Y-82856723D01*
X132370995Y-82858912D01*
X132423741Y-82890208D01*
X132545667Y-83012134D01*
X132738693Y-83147292D01*
X132777557Y-83191609D01*
X132791568Y-83248866D01*
X132791568Y-89332144D01*
X132783332Y-89376582D01*
X132759720Y-89415113D01*
X132729168Y-89449045D01*
X132678068Y-89505796D01*
X132583424Y-89669725D01*
X132524930Y-89849752D01*
X132505144Y-90038010D01*
X132524930Y-90226267D01*
X132583424Y-90406294D01*
X132678070Y-90570226D01*
X132804733Y-90710899D01*
X132957873Y-90822161D01*
X133130801Y-90899154D01*
X133315956Y-90938510D01*
X133315958Y-90938510D01*
X133505250Y-90938510D01*
X133505252Y-90938510D01*
X133641563Y-90909536D01*
X133690407Y-90899154D01*
X133863334Y-90822161D01*
X133925764Y-90776803D01*
X134016474Y-90710899D01*
X134143137Y-90570226D01*
X134237783Y-90406294D01*
X134241802Y-90393926D01*
X134296278Y-90226266D01*
X134316064Y-90038010D01*
X134296278Y-89849754D01*
X134254126Y-89720025D01*
X134237783Y-89669725D01*
X134143139Y-89505796D01*
X134131194Y-89492530D01*
X134074415Y-89429471D01*
X134050804Y-89390940D01*
X134042568Y-89346502D01*
X134042568Y-83248866D01*
X134056579Y-83191609D01*
X134095442Y-83147292D01*
X134288469Y-83012134D01*
X134455563Y-82845040D01*
X134585494Y-82659478D01*
X134629811Y-82620614D01*
X134687068Y-82606603D01*
X134744325Y-82620614D01*
X134788641Y-82659478D01*
X134918573Y-82845040D01*
X135085667Y-83012134D01*
X135279238Y-83147674D01*
X135493405Y-83247542D01*
X135721660Y-83308702D01*
X135957068Y-83329298D01*
X136192476Y-83308702D01*
X136420731Y-83247542D01*
X136634898Y-83147674D01*
X136828469Y-83012134D01*
X136995563Y-82845040D01*
X137125494Y-82659478D01*
X137169811Y-82620614D01*
X137227068Y-82606603D01*
X137284325Y-82620614D01*
X137328641Y-82659478D01*
X137458573Y-82845040D01*
X137625667Y-83012134D01*
X137819238Y-83147674D01*
X138033405Y-83247542D01*
X138261660Y-83308702D01*
X138497068Y-83329298D01*
X138732476Y-83308702D01*
X138960731Y-83247542D01*
X139174898Y-83147674D01*
X139368469Y-83012134D01*
X139535563Y-82845040D01*
X139665494Y-82659478D01*
X139709811Y-82620614D01*
X139767068Y-82606603D01*
X139824325Y-82620614D01*
X139868641Y-82659478D01*
X139998573Y-82845040D01*
X140165667Y-83012134D01*
X140359238Y-83147674D01*
X140573405Y-83247542D01*
X140801660Y-83308702D01*
X141037068Y-83329298D01*
X141272476Y-83308702D01*
X141500731Y-83247542D01*
X141714898Y-83147674D01*
X141908469Y-83012134D01*
X142075563Y-82845040D01*
X142205800Y-82659041D01*
X142250116Y-82620178D01*
X142307373Y-82606167D01*
X142364630Y-82620178D01*
X142408948Y-82659043D01*
X142538961Y-82844720D01*
X142705986Y-83011745D01*
X142899491Y-83147239D01*
X143113575Y-83247069D01*
X143327067Y-83304274D01*
X143327068Y-83304275D01*
X143327068Y-82223639D01*
X143827068Y-82223639D01*
X143827068Y-83304274D01*
X144040560Y-83247069D01*
X144254644Y-83147239D01*
X144448149Y-83011745D01*
X144615174Y-82844720D01*
X144750668Y-82651215D01*
X144850498Y-82437131D01*
X144907704Y-82223639D01*
X143827068Y-82223639D01*
X143327068Y-82223639D01*
X143327068Y-80643003D01*
X143827068Y-80643003D01*
X143827068Y-81723639D01*
X144907704Y-81723639D01*
X144907703Y-81723638D01*
X144850498Y-81510146D01*
X144750667Y-81296060D01*
X144615177Y-81102560D01*
X144448149Y-80935532D01*
X144254644Y-80800038D01*
X144040560Y-80700208D01*
X143827068Y-80643003D01*
X143327068Y-80643003D01*
X143327067Y-80643003D01*
X143113575Y-80700208D01*
X142899489Y-80800039D01*
X142705989Y-80935529D01*
X142538961Y-81102557D01*
X142408948Y-81288235D01*
X142364630Y-81327100D01*
X142307373Y-81341111D01*
X142250116Y-81327100D01*
X142205798Y-81288234D01*
X142075562Y-81102237D01*
X141908472Y-80935147D01*
X141908469Y-80935144D01*
X141714898Y-80799604D01*
X141500731Y-80699736D01*
X141439569Y-80683348D01*
X141272475Y-80638575D01*
X141037068Y-80617979D01*
X140801660Y-80638575D01*
X140573404Y-80699736D01*
X140359238Y-80799604D01*
X140165666Y-80935144D01*
X139998573Y-81102237D01*
X139868643Y-81287798D01*
X139824325Y-81326664D01*
X139767068Y-81340675D01*
X139709811Y-81326664D01*
X139665493Y-81287798D01*
X139535562Y-81102237D01*
X139368472Y-80935147D01*
X139368469Y-80935144D01*
X139174898Y-80799604D01*
X138960731Y-80699736D01*
X138899569Y-80683348D01*
X138732475Y-80638575D01*
X138497068Y-80617979D01*
X138261660Y-80638575D01*
X138033404Y-80699736D01*
X137819238Y-80799604D01*
X137625666Y-80935144D01*
X137458573Y-81102237D01*
X137328643Y-81287798D01*
X137284325Y-81326664D01*
X137227068Y-81340675D01*
X137169811Y-81326664D01*
X137125493Y-81287798D01*
X136995562Y-81102237D01*
X136828472Y-80935147D01*
X136828469Y-80935144D01*
X136634898Y-80799604D01*
X136420731Y-80699736D01*
X136359569Y-80683348D01*
X136192475Y-80638575D01*
X135957068Y-80617979D01*
X135721660Y-80638575D01*
X135493404Y-80699736D01*
X135279238Y-80799604D01*
X135085666Y-80935144D01*
X134918573Y-81102237D01*
X134788643Y-81287798D01*
X134744325Y-81326664D01*
X134687068Y-81340675D01*
X134629811Y-81326664D01*
X134585493Y-81287798D01*
X134455562Y-81102237D01*
X134288472Y-80935147D01*
X134288469Y-80935144D01*
X134094898Y-80799604D01*
X133880731Y-80699736D01*
X133819569Y-80683348D01*
X133652475Y-80638575D01*
X133417068Y-80617979D01*
X133181660Y-80638575D01*
X132953404Y-80699736D01*
X132739238Y-80799604D01*
X132545669Y-80935142D01*
X132423741Y-81057070D01*
X132370994Y-81088365D01*
X132309702Y-81090554D01*
X132254857Y-81063101D01*
X132219878Y-81012721D01*
X132191087Y-80935529D01*
X132170864Y-80881308D01*
X132084614Y-80766093D01*
X131969399Y-80679843D01*
X131834551Y-80629548D01*
X131774941Y-80623139D01*
X131774937Y-80623139D01*
X129979198Y-80623139D01*
X129919583Y-80629548D01*
X129784737Y-80679843D01*
X129669522Y-80766093D01*
X129583272Y-80881307D01*
X129532977Y-81016155D01*
X129526568Y-81075769D01*
X129526568Y-82871508D01*
X125000500Y-82871508D01*
X125000500Y-80989455D01*
X125649500Y-80989455D01*
X125655909Y-81049070D01*
X125665867Y-81075769D01*
X125706204Y-81183917D01*
X125792454Y-81299132D01*
X125907669Y-81385382D01*
X126042517Y-81435677D01*
X126102127Y-81442086D01*
X127897872Y-81442085D01*
X127957483Y-81435677D01*
X128092331Y-81385382D01*
X128207546Y-81299132D01*
X128293796Y-81183917D01*
X128344091Y-81049069D01*
X128350500Y-80989459D01*
X128350499Y-79193714D01*
X128344091Y-79134103D01*
X128293796Y-78999255D01*
X128207546Y-78884040D01*
X128092331Y-78797790D01*
X127960399Y-78748582D01*
X127910021Y-78713604D01*
X127882568Y-78658759D01*
X127884757Y-78597466D01*
X127916053Y-78544719D01*
X128038109Y-78422663D01*
X128173600Y-78229162D01*
X128273430Y-78015078D01*
X128330636Y-77801586D01*
X125669364Y-77801586D01*
X125726569Y-78015078D01*
X125826399Y-78229162D01*
X125961893Y-78422667D01*
X126083946Y-78544720D01*
X126115242Y-78597466D01*
X126117431Y-78658759D01*
X126089978Y-78713604D01*
X126039599Y-78748583D01*
X125907669Y-78797790D01*
X125792454Y-78884040D01*
X125706204Y-78999254D01*
X125655909Y-79134102D01*
X125649500Y-79193716D01*
X125649500Y-80989455D01*
X125000500Y-80989455D01*
X125000500Y-77553563D01*
X134411321Y-77553563D01*
X134431917Y-77788970D01*
X134467314Y-77921071D01*
X134493078Y-78017226D01*
X134592946Y-78231393D01*
X134728486Y-78424964D01*
X134895580Y-78592058D01*
X135089151Y-78727598D01*
X135303318Y-78827466D01*
X135514458Y-78884040D01*
X135531573Y-78888626D01*
X135766980Y-78909222D01*
X135766980Y-78909221D01*
X135766981Y-78909222D01*
X136002389Y-78888626D01*
X136230644Y-78827466D01*
X136444811Y-78727598D01*
X136638382Y-78592058D01*
X136805476Y-78424964D01*
X136935407Y-78239402D01*
X136979724Y-78200538D01*
X137036981Y-78186527D01*
X137094238Y-78200538D01*
X137138554Y-78239402D01*
X137268486Y-78424964D01*
X137435580Y-78592058D01*
X137629151Y-78727598D01*
X137843318Y-78827466D01*
X138054458Y-78884040D01*
X138071573Y-78888626D01*
X138306980Y-78909222D01*
X138306980Y-78909221D01*
X138306981Y-78909222D01*
X138542389Y-78888626D01*
X138770644Y-78827466D01*
X138984811Y-78727598D01*
X139178382Y-78592058D01*
X139345476Y-78424964D01*
X139475407Y-78239402D01*
X139519724Y-78200538D01*
X139576981Y-78186527D01*
X139634238Y-78200538D01*
X139678554Y-78239402D01*
X139808486Y-78424964D01*
X139975580Y-78592058D01*
X140169151Y-78727598D01*
X140383318Y-78827466D01*
X140594458Y-78884040D01*
X140611573Y-78888626D01*
X140846980Y-78909222D01*
X140846980Y-78909221D01*
X140846981Y-78909222D01*
X141082389Y-78888626D01*
X141310644Y-78827466D01*
X141524811Y-78727598D01*
X141718382Y-78592058D01*
X141885476Y-78424964D01*
X142021016Y-78231393D01*
X142120884Y-78017226D01*
X142168258Y-77840422D01*
X149841605Y-77840422D01*
X149856442Y-77991074D01*
X149915083Y-78184386D01*
X149945229Y-78240785D01*
X150010307Y-78362537D01*
X150047178Y-78407465D01*
X150138457Y-78518690D01*
X150195767Y-78565722D01*
X150294611Y-78646841D01*
X150472764Y-78742066D01*
X150666072Y-78800705D01*
X150867105Y-78820505D01*
X151068138Y-78800705D01*
X151261446Y-78742066D01*
X151439599Y-78646841D01*
X151439600Y-78646840D01*
X151444182Y-78644391D01*
X151502635Y-78629749D01*
X151561089Y-78644391D01*
X151742955Y-78741601D01*
X151887105Y-78785328D01*
X151887105Y-77902358D01*
X151887702Y-77890204D01*
X151892605Y-77840423D01*
X151892605Y-77289663D01*
X151887702Y-77239882D01*
X151887105Y-77227728D01*
X151887105Y-76344758D01*
X151742952Y-76388485D01*
X151561088Y-76485694D01*
X151502635Y-76500336D01*
X151444182Y-76485694D01*
X151261448Y-76388021D01*
X151261447Y-76388020D01*
X151261446Y-76388020D01*
X151164792Y-76358700D01*
X151068136Y-76329380D01*
X150867105Y-76309581D01*
X150666073Y-76329380D01*
X150472761Y-76388021D01*
X150294612Y-76483244D01*
X150138457Y-76611395D01*
X150010306Y-76767550D01*
X149915083Y-76945699D01*
X149856442Y-77139011D01*
X149841605Y-77289664D01*
X149841605Y-77840422D01*
X142168258Y-77840422D01*
X142182044Y-77788971D01*
X142202640Y-77553563D01*
X142182044Y-77318155D01*
X142120884Y-77089900D01*
X142021016Y-76875734D01*
X141885476Y-76682162D01*
X141718382Y-76515068D01*
X141524811Y-76379528D01*
X141310644Y-76279660D01*
X141249482Y-76263272D01*
X141082388Y-76218499D01*
X140846980Y-76197903D01*
X140611573Y-76218499D01*
X140383317Y-76279660D01*
X140169151Y-76379528D01*
X139975579Y-76515068D01*
X139808486Y-76682161D01*
X139678556Y-76867722D01*
X139634238Y-76906588D01*
X139576981Y-76920599D01*
X139519724Y-76906588D01*
X139475406Y-76867722D01*
X139345475Y-76682161D01*
X139178385Y-76515071D01*
X139178382Y-76515068D01*
X138984811Y-76379528D01*
X138770644Y-76279660D01*
X138709482Y-76263272D01*
X138542388Y-76218499D01*
X138306980Y-76197903D01*
X138071573Y-76218499D01*
X137843317Y-76279660D01*
X137629151Y-76379528D01*
X137435579Y-76515068D01*
X137268486Y-76682161D01*
X137138556Y-76867722D01*
X137094238Y-76906588D01*
X137036981Y-76920599D01*
X136979724Y-76906588D01*
X136935406Y-76867722D01*
X136805475Y-76682161D01*
X136638385Y-76515071D01*
X136638382Y-76515068D01*
X136444811Y-76379528D01*
X136230644Y-76279660D01*
X136169482Y-76263272D01*
X136002388Y-76218499D01*
X135766980Y-76197903D01*
X135531573Y-76218499D01*
X135303317Y-76279660D01*
X135089151Y-76379528D01*
X134895579Y-76515068D01*
X134728486Y-76682161D01*
X134592946Y-76875733D01*
X134493078Y-77089899D01*
X134431917Y-77318155D01*
X134411321Y-77553563D01*
X125000500Y-77553563D01*
X125000500Y-77301586D01*
X125669364Y-77301586D01*
X126750000Y-77301586D01*
X126750000Y-76220950D01*
X127250000Y-76220950D01*
X127250000Y-77301586D01*
X128330636Y-77301586D01*
X128330635Y-77301585D01*
X128273430Y-77088093D01*
X128173599Y-76874007D01*
X128038109Y-76680507D01*
X127871081Y-76513479D01*
X127677576Y-76377985D01*
X127463492Y-76278155D01*
X127250000Y-76220950D01*
X126750000Y-76220950D01*
X126749999Y-76220950D01*
X126536507Y-76278155D01*
X126322421Y-76377986D01*
X126128921Y-76513476D01*
X125961890Y-76680507D01*
X125826400Y-76874007D01*
X125726569Y-77088093D01*
X125669364Y-77301585D01*
X125669364Y-77301586D01*
X125000500Y-77301586D01*
X125000500Y-75124500D01*
X125017113Y-75062500D01*
X125062500Y-75017113D01*
X125124500Y-75000500D01*
X174875500Y-75000500D01*
X174937500Y-75017113D01*
G37*
%TD.AperFunction*%
%TD*%
D22*
X175000000Y-125000000D02*
X125000000Y-125000000D01*
X175000000Y-75000000D02*
X175000000Y-125000000D01*
X125000000Y-75000000D02*
X175000000Y-75000000D01*
X125000000Y-125000000D02*
X125000000Y-75000000D01*
M02*
