%TF.GenerationSoftware,KiCad,Pcbnew,7.0.1*%
%TF.CreationDate,2023-04-17T16:28:37-05:00*%
%TF.ProjectId,MechCirc,4d656368-4369-4726-932e-6b696361645f,rev?*%
%TF.SameCoordinates,Original*%
%TF.FileFunction,Legend,Top*%
%TF.FilePolarity,Positive*%
%FSLAX46Y46*%
G04 Gerber Fmt 4.6, Leading zero omitted, Abs format (unit mm)*
G04 Created by KiCad (PCBNEW 7.0.1) date 2023-04-17 16:28:37*
%MOMM*%
%LPD*%
G01*
G04 APERTURE LIST*
%ADD10C,0.150000*%
%ADD11C,0.120000*%
%ADD12C,0.400000*%
%TA.AperFunction,Profile*%
%ADD13C,0.100000*%
%TD*%
G04 APERTURE END LIST*
D10*
%TO.C,R4*%
X148422190Y-123832408D02*
X148088857Y-123356217D01*
X147850762Y-123832408D02*
X147850762Y-122832408D01*
X147850762Y-122832408D02*
X148231714Y-122832408D01*
X148231714Y-122832408D02*
X148326952Y-122880027D01*
X148326952Y-122880027D02*
X148374571Y-122927646D01*
X148374571Y-122927646D02*
X148422190Y-123022884D01*
X148422190Y-123022884D02*
X148422190Y-123165741D01*
X148422190Y-123165741D02*
X148374571Y-123260979D01*
X148374571Y-123260979D02*
X148326952Y-123308598D01*
X148326952Y-123308598D02*
X148231714Y-123356217D01*
X148231714Y-123356217D02*
X147850762Y-123356217D01*
X149279333Y-123165741D02*
X149279333Y-123832408D01*
X149041238Y-122784789D02*
X148803143Y-123499074D01*
X148803143Y-123499074D02*
X149422190Y-123499074D01*
X152662562Y-122862183D02*
X153281609Y-122862183D01*
X153281609Y-122862183D02*
X152948276Y-123243135D01*
X152948276Y-123243135D02*
X153091133Y-123243135D01*
X153091133Y-123243135D02*
X153186371Y-123290754D01*
X153186371Y-123290754D02*
X153233990Y-123338373D01*
X153233990Y-123338373D02*
X153281609Y-123433611D01*
X153281609Y-123433611D02*
X153281609Y-123671706D01*
X153281609Y-123671706D02*
X153233990Y-123766944D01*
X153233990Y-123766944D02*
X153186371Y-123814564D01*
X153186371Y-123814564D02*
X153091133Y-123862183D01*
X153091133Y-123862183D02*
X152805419Y-123862183D01*
X152805419Y-123862183D02*
X152710181Y-123814564D01*
X152710181Y-123814564D02*
X152662562Y-123766944D01*
X153614943Y-122862183D02*
X154233990Y-122862183D01*
X154233990Y-122862183D02*
X153900657Y-123243135D01*
X153900657Y-123243135D02*
X154043514Y-123243135D01*
X154043514Y-123243135D02*
X154138752Y-123290754D01*
X154138752Y-123290754D02*
X154186371Y-123338373D01*
X154186371Y-123338373D02*
X154233990Y-123433611D01*
X154233990Y-123433611D02*
X154233990Y-123671706D01*
X154233990Y-123671706D02*
X154186371Y-123766944D01*
X154186371Y-123766944D02*
X154138752Y-123814564D01*
X154138752Y-123814564D02*
X154043514Y-123862183D01*
X154043514Y-123862183D02*
X153757800Y-123862183D01*
X153757800Y-123862183D02*
X153662562Y-123814564D01*
X153662562Y-123814564D02*
X153614943Y-123766944D01*
X154853038Y-122862183D02*
X154948276Y-122862183D01*
X154948276Y-122862183D02*
X155043514Y-122909802D01*
X155043514Y-122909802D02*
X155091133Y-122957421D01*
X155091133Y-122957421D02*
X155138752Y-123052659D01*
X155138752Y-123052659D02*
X155186371Y-123243135D01*
X155186371Y-123243135D02*
X155186371Y-123481230D01*
X155186371Y-123481230D02*
X155138752Y-123671706D01*
X155138752Y-123671706D02*
X155091133Y-123766944D01*
X155091133Y-123766944D02*
X155043514Y-123814564D01*
X155043514Y-123814564D02*
X154948276Y-123862183D01*
X154948276Y-123862183D02*
X154853038Y-123862183D01*
X154853038Y-123862183D02*
X154757800Y-123814564D01*
X154757800Y-123814564D02*
X154710181Y-123766944D01*
X154710181Y-123766944D02*
X154662562Y-123671706D01*
X154662562Y-123671706D02*
X154614943Y-123481230D01*
X154614943Y-123481230D02*
X154614943Y-123243135D01*
X154614943Y-123243135D02*
X154662562Y-123052659D01*
X154662562Y-123052659D02*
X154710181Y-122957421D01*
X154710181Y-122957421D02*
X154757800Y-122909802D01*
X154757800Y-122909802D02*
X154853038Y-122862183D01*
%TO.C,C4*%
X162267090Y-91349520D02*
X162219471Y-91397140D01*
X162219471Y-91397140D02*
X162076614Y-91444759D01*
X162076614Y-91444759D02*
X161981376Y-91444759D01*
X161981376Y-91444759D02*
X161838519Y-91397140D01*
X161838519Y-91397140D02*
X161743281Y-91301901D01*
X161743281Y-91301901D02*
X161695662Y-91206663D01*
X161695662Y-91206663D02*
X161648043Y-91016187D01*
X161648043Y-91016187D02*
X161648043Y-90873330D01*
X161648043Y-90873330D02*
X161695662Y-90682854D01*
X161695662Y-90682854D02*
X161743281Y-90587616D01*
X161743281Y-90587616D02*
X161838519Y-90492378D01*
X161838519Y-90492378D02*
X161981376Y-90444759D01*
X161981376Y-90444759D02*
X162076614Y-90444759D01*
X162076614Y-90444759D02*
X162219471Y-90492378D01*
X162219471Y-90492378D02*
X162267090Y-90539997D01*
X163124233Y-90778092D02*
X163124233Y-91444759D01*
X162886138Y-90397140D02*
X162648043Y-91111425D01*
X162648043Y-91111425D02*
X163267090Y-91111425D01*
X160790900Y-95044759D02*
X160886138Y-95044759D01*
X160886138Y-95044759D02*
X160981376Y-95092378D01*
X160981376Y-95092378D02*
X161028995Y-95139997D01*
X161028995Y-95139997D02*
X161076614Y-95235235D01*
X161076614Y-95235235D02*
X161124233Y-95425711D01*
X161124233Y-95425711D02*
X161124233Y-95663806D01*
X161124233Y-95663806D02*
X161076614Y-95854282D01*
X161076614Y-95854282D02*
X161028995Y-95949520D01*
X161028995Y-95949520D02*
X160981376Y-95997140D01*
X160981376Y-95997140D02*
X160886138Y-96044759D01*
X160886138Y-96044759D02*
X160790900Y-96044759D01*
X160790900Y-96044759D02*
X160695662Y-95997140D01*
X160695662Y-95997140D02*
X160648043Y-95949520D01*
X160648043Y-95949520D02*
X160600424Y-95854282D01*
X160600424Y-95854282D02*
X160552805Y-95663806D01*
X160552805Y-95663806D02*
X160552805Y-95425711D01*
X160552805Y-95425711D02*
X160600424Y-95235235D01*
X160600424Y-95235235D02*
X160648043Y-95139997D01*
X160648043Y-95139997D02*
X160695662Y-95092378D01*
X160695662Y-95092378D02*
X160790900Y-95044759D01*
X161552805Y-95949520D02*
X161600424Y-95997140D01*
X161600424Y-95997140D02*
X161552805Y-96044759D01*
X161552805Y-96044759D02*
X161505186Y-95997140D01*
X161505186Y-95997140D02*
X161552805Y-95949520D01*
X161552805Y-95949520D02*
X161552805Y-96044759D01*
X162552804Y-96044759D02*
X161981376Y-96044759D01*
X162267090Y-96044759D02*
X162267090Y-95044759D01*
X162267090Y-95044759D02*
X162171852Y-95187616D01*
X162171852Y-95187616D02*
X162076614Y-95282854D01*
X162076614Y-95282854D02*
X161981376Y-95330473D01*
X163409947Y-95378092D02*
X163409947Y-96044759D01*
X162981376Y-95378092D02*
X162981376Y-95901901D01*
X162981376Y-95901901D02*
X163028995Y-95997140D01*
X163028995Y-95997140D02*
X163124233Y-96044759D01*
X163124233Y-96044759D02*
X163267090Y-96044759D01*
X163267090Y-96044759D02*
X163362328Y-95997140D01*
X163362328Y-95997140D02*
X163409947Y-95949520D01*
X164219471Y-95520949D02*
X163886138Y-95520949D01*
X163886138Y-96044759D02*
X163886138Y-95044759D01*
X163886138Y-95044759D02*
X164362328Y-95044759D01*
%TO.C,R2*%
X128161739Y-122265044D02*
X127828406Y-121788853D01*
X127590311Y-122265044D02*
X127590311Y-121265044D01*
X127590311Y-121265044D02*
X127971263Y-121265044D01*
X127971263Y-121265044D02*
X128066501Y-121312663D01*
X128066501Y-121312663D02*
X128114120Y-121360282D01*
X128114120Y-121360282D02*
X128161739Y-121455520D01*
X128161739Y-121455520D02*
X128161739Y-121598377D01*
X128161739Y-121598377D02*
X128114120Y-121693615D01*
X128114120Y-121693615D02*
X128066501Y-121741234D01*
X128066501Y-121741234D02*
X127971263Y-121788853D01*
X127971263Y-121788853D02*
X127590311Y-121788853D01*
X128542692Y-121360282D02*
X128590311Y-121312663D01*
X128590311Y-121312663D02*
X128685549Y-121265044D01*
X128685549Y-121265044D02*
X128923644Y-121265044D01*
X128923644Y-121265044D02*
X129018882Y-121312663D01*
X129018882Y-121312663D02*
X129066501Y-121360282D01*
X129066501Y-121360282D02*
X129114120Y-121455520D01*
X129114120Y-121455520D02*
X129114120Y-121550758D01*
X129114120Y-121550758D02*
X129066501Y-121693615D01*
X129066501Y-121693615D02*
X128495073Y-122265044D01*
X128495073Y-122265044D02*
X129114120Y-122265044D01*
X132397847Y-122185645D02*
X131826419Y-122185645D01*
X132112133Y-122185645D02*
X132112133Y-121185645D01*
X132112133Y-121185645D02*
X132016895Y-121328502D01*
X132016895Y-121328502D02*
X131921657Y-121423740D01*
X131921657Y-121423740D02*
X131826419Y-121471359D01*
X133016895Y-121185645D02*
X133112133Y-121185645D01*
X133112133Y-121185645D02*
X133207371Y-121233264D01*
X133207371Y-121233264D02*
X133254990Y-121280883D01*
X133254990Y-121280883D02*
X133302609Y-121376121D01*
X133302609Y-121376121D02*
X133350228Y-121566597D01*
X133350228Y-121566597D02*
X133350228Y-121804692D01*
X133350228Y-121804692D02*
X133302609Y-121995168D01*
X133302609Y-121995168D02*
X133254990Y-122090406D01*
X133254990Y-122090406D02*
X133207371Y-122138026D01*
X133207371Y-122138026D02*
X133112133Y-122185645D01*
X133112133Y-122185645D02*
X133016895Y-122185645D01*
X133016895Y-122185645D02*
X132921657Y-122138026D01*
X132921657Y-122138026D02*
X132874038Y-122090406D01*
X132874038Y-122090406D02*
X132826419Y-121995168D01*
X132826419Y-121995168D02*
X132778800Y-121804692D01*
X132778800Y-121804692D02*
X132778800Y-121566597D01*
X132778800Y-121566597D02*
X132826419Y-121376121D01*
X132826419Y-121376121D02*
X132874038Y-121280883D01*
X132874038Y-121280883D02*
X132921657Y-121233264D01*
X132921657Y-121233264D02*
X133016895Y-121185645D01*
X133778800Y-122185645D02*
X133778800Y-121185645D01*
X133874038Y-121804692D02*
X134159752Y-122185645D01*
X134159752Y-121518978D02*
X133778800Y-121899930D01*
%TO.C,R5*%
X166952859Y-96251776D02*
X166952859Y-96823204D01*
X166952859Y-96537490D02*
X165952859Y-96537490D01*
X165952859Y-96537490D02*
X166095716Y-96632728D01*
X166095716Y-96632728D02*
X166190954Y-96727966D01*
X166190954Y-96727966D02*
X166238573Y-96823204D01*
X165952859Y-95632728D02*
X165952859Y-95537490D01*
X165952859Y-95537490D02*
X166000478Y-95442252D01*
X166000478Y-95442252D02*
X166048097Y-95394633D01*
X166048097Y-95394633D02*
X166143335Y-95347014D01*
X166143335Y-95347014D02*
X166333811Y-95299395D01*
X166333811Y-95299395D02*
X166571906Y-95299395D01*
X166571906Y-95299395D02*
X166762382Y-95347014D01*
X166762382Y-95347014D02*
X166857620Y-95394633D01*
X166857620Y-95394633D02*
X166905240Y-95442252D01*
X166905240Y-95442252D02*
X166952859Y-95537490D01*
X166952859Y-95537490D02*
X166952859Y-95632728D01*
X166952859Y-95632728D02*
X166905240Y-95727966D01*
X166905240Y-95727966D02*
X166857620Y-95775585D01*
X166857620Y-95775585D02*
X166762382Y-95823204D01*
X166762382Y-95823204D02*
X166571906Y-95870823D01*
X166571906Y-95870823D02*
X166333811Y-95870823D01*
X166333811Y-95870823D02*
X166143335Y-95823204D01*
X166143335Y-95823204D02*
X166048097Y-95775585D01*
X166048097Y-95775585D02*
X166000478Y-95727966D01*
X166000478Y-95727966D02*
X165952859Y-95632728D01*
X166952859Y-94870823D02*
X165952859Y-94870823D01*
X166571906Y-94775585D02*
X166952859Y-94489871D01*
X166286192Y-94489871D02*
X166667144Y-94870823D01*
%TO.C,SW1*%
X144910105Y-76046200D02*
X144862485Y-76189057D01*
X144862485Y-76189057D02*
X144862485Y-76427152D01*
X144862485Y-76427152D02*
X144910105Y-76522390D01*
X144910105Y-76522390D02*
X144957724Y-76570009D01*
X144957724Y-76570009D02*
X145052962Y-76617628D01*
X145052962Y-76617628D02*
X145148200Y-76617628D01*
X145148200Y-76617628D02*
X145243438Y-76570009D01*
X145243438Y-76570009D02*
X145291057Y-76522390D01*
X145291057Y-76522390D02*
X145338676Y-76427152D01*
X145338676Y-76427152D02*
X145386295Y-76236676D01*
X145386295Y-76236676D02*
X145433914Y-76141438D01*
X145433914Y-76141438D02*
X145481533Y-76093819D01*
X145481533Y-76093819D02*
X145576771Y-76046200D01*
X145576771Y-76046200D02*
X145672009Y-76046200D01*
X145672009Y-76046200D02*
X145767247Y-76093819D01*
X145767247Y-76093819D02*
X145814866Y-76141438D01*
X145814866Y-76141438D02*
X145862485Y-76236676D01*
X145862485Y-76236676D02*
X145862485Y-76474771D01*
X145862485Y-76474771D02*
X145814866Y-76617628D01*
X145862485Y-76950962D02*
X144862485Y-77189057D01*
X144862485Y-77189057D02*
X145576771Y-77379533D01*
X145576771Y-77379533D02*
X144862485Y-77570009D01*
X144862485Y-77570009D02*
X145862485Y-77808105D01*
X144862485Y-78712866D02*
X144862485Y-78141438D01*
X144862485Y-78427152D02*
X145862485Y-78427152D01*
X145862485Y-78427152D02*
X145719628Y-78331914D01*
X145719628Y-78331914D02*
X145624390Y-78236676D01*
X145624390Y-78236676D02*
X145576771Y-78141438D01*
%TO.C,D2*%
X136765237Y-116628133D02*
X136669999Y-116580514D01*
X136669999Y-116580514D02*
X136527142Y-116580514D01*
X136527142Y-116580514D02*
X136384285Y-116628133D01*
X136384285Y-116628133D02*
X136289047Y-116723371D01*
X136289047Y-116723371D02*
X136241428Y-116818609D01*
X136241428Y-116818609D02*
X136193809Y-117009085D01*
X136193809Y-117009085D02*
X136193809Y-117151942D01*
X136193809Y-117151942D02*
X136241428Y-117342418D01*
X136241428Y-117342418D02*
X136289047Y-117437656D01*
X136289047Y-117437656D02*
X136384285Y-117532895D01*
X136384285Y-117532895D02*
X136527142Y-117580514D01*
X136527142Y-117580514D02*
X136622380Y-117580514D01*
X136622380Y-117580514D02*
X136765237Y-117532895D01*
X136765237Y-117532895D02*
X136812856Y-117485275D01*
X136812856Y-117485275D02*
X136812856Y-117151942D01*
X136812856Y-117151942D02*
X136622380Y-117151942D01*
X137812856Y-117580514D02*
X137479523Y-117104323D01*
X137241428Y-117580514D02*
X137241428Y-116580514D01*
X137241428Y-116580514D02*
X137622380Y-116580514D01*
X137622380Y-116580514D02*
X137717618Y-116628133D01*
X137717618Y-116628133D02*
X137765237Y-116675752D01*
X137765237Y-116675752D02*
X137812856Y-116770990D01*
X137812856Y-116770990D02*
X137812856Y-116913847D01*
X137812856Y-116913847D02*
X137765237Y-117009085D01*
X137765237Y-117009085D02*
X137717618Y-117056704D01*
X137717618Y-117056704D02*
X137622380Y-117104323D01*
X137622380Y-117104323D02*
X137241428Y-117104323D01*
X138241428Y-117056704D02*
X138574761Y-117056704D01*
X138717618Y-117580514D02*
X138241428Y-117580514D01*
X138241428Y-117580514D02*
X138241428Y-116580514D01*
X138241428Y-116580514D02*
X138717618Y-116580514D01*
X139146190Y-117056704D02*
X139479523Y-117056704D01*
X139622380Y-117580514D02*
X139146190Y-117580514D01*
X139146190Y-117580514D02*
X139146190Y-116580514D01*
X139146190Y-116580514D02*
X139622380Y-116580514D01*
X140050952Y-117580514D02*
X140050952Y-116580514D01*
X140050952Y-116580514D02*
X140622380Y-117580514D01*
X140622380Y-117580514D02*
X140622380Y-116580514D01*
%TO.C,SW2*%
X135826667Y-91625000D02*
X135969524Y-91672619D01*
X135969524Y-91672619D02*
X136207619Y-91672619D01*
X136207619Y-91672619D02*
X136302857Y-91625000D01*
X136302857Y-91625000D02*
X136350476Y-91577380D01*
X136350476Y-91577380D02*
X136398095Y-91482142D01*
X136398095Y-91482142D02*
X136398095Y-91386904D01*
X136398095Y-91386904D02*
X136350476Y-91291666D01*
X136350476Y-91291666D02*
X136302857Y-91244047D01*
X136302857Y-91244047D02*
X136207619Y-91196428D01*
X136207619Y-91196428D02*
X136017143Y-91148809D01*
X136017143Y-91148809D02*
X135921905Y-91101190D01*
X135921905Y-91101190D02*
X135874286Y-91053571D01*
X135874286Y-91053571D02*
X135826667Y-90958333D01*
X135826667Y-90958333D02*
X135826667Y-90863095D01*
X135826667Y-90863095D02*
X135874286Y-90767857D01*
X135874286Y-90767857D02*
X135921905Y-90720238D01*
X135921905Y-90720238D02*
X136017143Y-90672619D01*
X136017143Y-90672619D02*
X136255238Y-90672619D01*
X136255238Y-90672619D02*
X136398095Y-90720238D01*
X136731429Y-90672619D02*
X136969524Y-91672619D01*
X136969524Y-91672619D02*
X137160000Y-90958333D01*
X137160000Y-90958333D02*
X137350476Y-91672619D01*
X137350476Y-91672619D02*
X137588572Y-90672619D01*
X137921905Y-90767857D02*
X137969524Y-90720238D01*
X137969524Y-90720238D02*
X138064762Y-90672619D01*
X138064762Y-90672619D02*
X138302857Y-90672619D01*
X138302857Y-90672619D02*
X138398095Y-90720238D01*
X138398095Y-90720238D02*
X138445714Y-90767857D01*
X138445714Y-90767857D02*
X138493333Y-90863095D01*
X138493333Y-90863095D02*
X138493333Y-90958333D01*
X138493333Y-90958333D02*
X138445714Y-91101190D01*
X138445714Y-91101190D02*
X137874286Y-91672619D01*
X137874286Y-91672619D02*
X138493333Y-91672619D01*
X135421905Y-102292619D02*
X135421905Y-101292619D01*
X135421905Y-101292619D02*
X135755238Y-102006904D01*
X135755238Y-102006904D02*
X136088571Y-101292619D01*
X136088571Y-101292619D02*
X136088571Y-102292619D01*
X137136190Y-102197380D02*
X137088571Y-102245000D01*
X137088571Y-102245000D02*
X136945714Y-102292619D01*
X136945714Y-102292619D02*
X136850476Y-102292619D01*
X136850476Y-102292619D02*
X136707619Y-102245000D01*
X136707619Y-102245000D02*
X136612381Y-102149761D01*
X136612381Y-102149761D02*
X136564762Y-102054523D01*
X136564762Y-102054523D02*
X136517143Y-101864047D01*
X136517143Y-101864047D02*
X136517143Y-101721190D01*
X136517143Y-101721190D02*
X136564762Y-101530714D01*
X136564762Y-101530714D02*
X136612381Y-101435476D01*
X136612381Y-101435476D02*
X136707619Y-101340238D01*
X136707619Y-101340238D02*
X136850476Y-101292619D01*
X136850476Y-101292619D02*
X136945714Y-101292619D01*
X136945714Y-101292619D02*
X137088571Y-101340238D01*
X137088571Y-101340238D02*
X137136190Y-101387857D01*
X138040952Y-102292619D02*
X137564762Y-102292619D01*
X137564762Y-102292619D02*
X137564762Y-101292619D01*
X138945714Y-102292619D02*
X138612381Y-101816428D01*
X138374286Y-102292619D02*
X138374286Y-101292619D01*
X138374286Y-101292619D02*
X138755238Y-101292619D01*
X138755238Y-101292619D02*
X138850476Y-101340238D01*
X138850476Y-101340238D02*
X138898095Y-101387857D01*
X138898095Y-101387857D02*
X138945714Y-101483095D01*
X138945714Y-101483095D02*
X138945714Y-101625952D01*
X138945714Y-101625952D02*
X138898095Y-101721190D01*
X138898095Y-101721190D02*
X138850476Y-101768809D01*
X138850476Y-101768809D02*
X138755238Y-101816428D01*
X138755238Y-101816428D02*
X138374286Y-101816428D01*
%TO.C,D1*%
X171770233Y-82466371D02*
X171436900Y-81990180D01*
X171198805Y-82466371D02*
X171198805Y-81466371D01*
X171198805Y-81466371D02*
X171579757Y-81466371D01*
X171579757Y-81466371D02*
X171674995Y-81513990D01*
X171674995Y-81513990D02*
X171722614Y-81561609D01*
X171722614Y-81561609D02*
X171770233Y-81656847D01*
X171770233Y-81656847D02*
X171770233Y-81799704D01*
X171770233Y-81799704D02*
X171722614Y-81894942D01*
X171722614Y-81894942D02*
X171674995Y-81942561D01*
X171674995Y-81942561D02*
X171579757Y-81990180D01*
X171579757Y-81990180D02*
X171198805Y-81990180D01*
X172198805Y-81942561D02*
X172532138Y-81942561D01*
X172674995Y-82466371D02*
X172198805Y-82466371D01*
X172198805Y-82466371D02*
X172198805Y-81466371D01*
X172198805Y-81466371D02*
X172674995Y-81466371D01*
X173103567Y-82466371D02*
X173103567Y-81466371D01*
X173103567Y-81466371D02*
X173341662Y-81466371D01*
X173341662Y-81466371D02*
X173484519Y-81513990D01*
X173484519Y-81513990D02*
X173579757Y-81609228D01*
X173579757Y-81609228D02*
X173627376Y-81704466D01*
X173627376Y-81704466D02*
X173674995Y-81894942D01*
X173674995Y-81894942D02*
X173674995Y-82037799D01*
X173674995Y-82037799D02*
X173627376Y-82228275D01*
X173627376Y-82228275D02*
X173579757Y-82323513D01*
X173579757Y-82323513D02*
X173484519Y-82418752D01*
X173484519Y-82418752D02*
X173341662Y-82466371D01*
X173341662Y-82466371D02*
X173103567Y-82466371D01*
%TO.C,J2*%
X136113748Y-84892806D02*
X136066129Y-84940426D01*
X136066129Y-84940426D02*
X135923272Y-84988045D01*
X135923272Y-84988045D02*
X135828034Y-84988045D01*
X135828034Y-84988045D02*
X135685177Y-84940426D01*
X135685177Y-84940426D02*
X135589939Y-84845187D01*
X135589939Y-84845187D02*
X135542320Y-84749949D01*
X135542320Y-84749949D02*
X135494701Y-84559473D01*
X135494701Y-84559473D02*
X135494701Y-84416616D01*
X135494701Y-84416616D02*
X135542320Y-84226140D01*
X135542320Y-84226140D02*
X135589939Y-84130902D01*
X135589939Y-84130902D02*
X135685177Y-84035664D01*
X135685177Y-84035664D02*
X135828034Y-83988045D01*
X135828034Y-83988045D02*
X135923272Y-83988045D01*
X135923272Y-83988045D02*
X136066129Y-84035664D01*
X136066129Y-84035664D02*
X136113748Y-84083283D01*
X136542320Y-84988045D02*
X136542320Y-83988045D01*
X136542320Y-83988045D02*
X136923272Y-83988045D01*
X136923272Y-83988045D02*
X137018510Y-84035664D01*
X137018510Y-84035664D02*
X137066129Y-84083283D01*
X137066129Y-84083283D02*
X137113748Y-84178521D01*
X137113748Y-84178521D02*
X137113748Y-84321378D01*
X137113748Y-84321378D02*
X137066129Y-84416616D01*
X137066129Y-84416616D02*
X137018510Y-84464235D01*
X137018510Y-84464235D02*
X136923272Y-84511854D01*
X136923272Y-84511854D02*
X136542320Y-84511854D01*
X137494701Y-84083283D02*
X137542320Y-84035664D01*
X137542320Y-84035664D02*
X137637558Y-83988045D01*
X137637558Y-83988045D02*
X137875653Y-83988045D01*
X137875653Y-83988045D02*
X137970891Y-84035664D01*
X137970891Y-84035664D02*
X138018510Y-84083283D01*
X138018510Y-84083283D02*
X138066129Y-84178521D01*
X138066129Y-84178521D02*
X138066129Y-84273759D01*
X138066129Y-84273759D02*
X138018510Y-84416616D01*
X138018510Y-84416616D02*
X137447082Y-84988045D01*
X137447082Y-84988045D02*
X138066129Y-84988045D01*
X139018510Y-84988045D02*
X138447082Y-84988045D01*
X138732796Y-84988045D02*
X138732796Y-83988045D01*
X138732796Y-83988045D02*
X138637558Y-84130902D01*
X138637558Y-84130902D02*
X138542320Y-84226140D01*
X138542320Y-84226140D02*
X138447082Y-84273759D01*
X139637558Y-83988045D02*
X139732796Y-83988045D01*
X139732796Y-83988045D02*
X139828034Y-84035664D01*
X139828034Y-84035664D02*
X139875653Y-84083283D01*
X139875653Y-84083283D02*
X139923272Y-84178521D01*
X139923272Y-84178521D02*
X139970891Y-84368997D01*
X139970891Y-84368997D02*
X139970891Y-84607092D01*
X139970891Y-84607092D02*
X139923272Y-84797568D01*
X139923272Y-84797568D02*
X139875653Y-84892806D01*
X139875653Y-84892806D02*
X139828034Y-84940426D01*
X139828034Y-84940426D02*
X139732796Y-84988045D01*
X139732796Y-84988045D02*
X139637558Y-84988045D01*
X139637558Y-84988045D02*
X139542320Y-84940426D01*
X139542320Y-84940426D02*
X139494701Y-84892806D01*
X139494701Y-84892806D02*
X139447082Y-84797568D01*
X139447082Y-84797568D02*
X139399463Y-84607092D01*
X139399463Y-84607092D02*
X139399463Y-84368997D01*
X139399463Y-84368997D02*
X139447082Y-84178521D01*
X139447082Y-84178521D02*
X139494701Y-84083283D01*
X139494701Y-84083283D02*
X139542320Y-84035664D01*
X139542320Y-84035664D02*
X139637558Y-83988045D01*
X140351844Y-84083283D02*
X140399463Y-84035664D01*
X140399463Y-84035664D02*
X140494701Y-83988045D01*
X140494701Y-83988045D02*
X140732796Y-83988045D01*
X140732796Y-83988045D02*
X140828034Y-84035664D01*
X140828034Y-84035664D02*
X140875653Y-84083283D01*
X140875653Y-84083283D02*
X140923272Y-84178521D01*
X140923272Y-84178521D02*
X140923272Y-84273759D01*
X140923272Y-84273759D02*
X140875653Y-84416616D01*
X140875653Y-84416616D02*
X140304225Y-84988045D01*
X140304225Y-84988045D02*
X140923272Y-84988045D01*
%TO.C,U2*%
X152827222Y-109916887D02*
X151827222Y-109916887D01*
X151827222Y-109916887D02*
X151827222Y-109535935D01*
X151827222Y-109535935D02*
X151874841Y-109440697D01*
X151874841Y-109440697D02*
X151922460Y-109393078D01*
X151922460Y-109393078D02*
X152017698Y-109345459D01*
X152017698Y-109345459D02*
X152160555Y-109345459D01*
X152160555Y-109345459D02*
X152255793Y-109393078D01*
X152255793Y-109393078D02*
X152303412Y-109440697D01*
X152303412Y-109440697D02*
X152351031Y-109535935D01*
X152351031Y-109535935D02*
X152351031Y-109916887D01*
X152827222Y-108916887D02*
X151827222Y-108916887D01*
X152731983Y-107869269D02*
X152779603Y-107916888D01*
X152779603Y-107916888D02*
X152827222Y-108059745D01*
X152827222Y-108059745D02*
X152827222Y-108154983D01*
X152827222Y-108154983D02*
X152779603Y-108297840D01*
X152779603Y-108297840D02*
X152684364Y-108393078D01*
X152684364Y-108393078D02*
X152589126Y-108440697D01*
X152589126Y-108440697D02*
X152398650Y-108488316D01*
X152398650Y-108488316D02*
X152255793Y-108488316D01*
X152255793Y-108488316D02*
X152065317Y-108440697D01*
X152065317Y-108440697D02*
X151970079Y-108393078D01*
X151970079Y-108393078D02*
X151874841Y-108297840D01*
X151874841Y-108297840D02*
X151827222Y-108154983D01*
X151827222Y-108154983D02*
X151827222Y-108059745D01*
X151827222Y-108059745D02*
X151874841Y-107916888D01*
X151874841Y-107916888D02*
X151922460Y-107869269D01*
X151827222Y-107535935D02*
X151827222Y-106916888D01*
X151827222Y-106916888D02*
X152208174Y-107250221D01*
X152208174Y-107250221D02*
X152208174Y-107107364D01*
X152208174Y-107107364D02*
X152255793Y-107012126D01*
X152255793Y-107012126D02*
X152303412Y-106964507D01*
X152303412Y-106964507D02*
X152398650Y-106916888D01*
X152398650Y-106916888D02*
X152636745Y-106916888D01*
X152636745Y-106916888D02*
X152731983Y-106964507D01*
X152731983Y-106964507D02*
X152779603Y-107012126D01*
X152779603Y-107012126D02*
X152827222Y-107107364D01*
X152827222Y-107107364D02*
X152827222Y-107393078D01*
X152827222Y-107393078D02*
X152779603Y-107488316D01*
X152779603Y-107488316D02*
X152731983Y-107535935D01*
X151922460Y-106535935D02*
X151874841Y-106488316D01*
X151874841Y-106488316D02*
X151827222Y-106393078D01*
X151827222Y-106393078D02*
X151827222Y-106154983D01*
X151827222Y-106154983D02*
X151874841Y-106059745D01*
X151874841Y-106059745D02*
X151922460Y-106012126D01*
X151922460Y-106012126D02*
X152017698Y-105964507D01*
X152017698Y-105964507D02*
X152112936Y-105964507D01*
X152112936Y-105964507D02*
X152255793Y-106012126D01*
X152255793Y-106012126D02*
X152827222Y-106583554D01*
X152827222Y-106583554D02*
X152827222Y-105964507D01*
X152827222Y-105535935D02*
X151827222Y-105535935D01*
X151827222Y-105535935D02*
X152541507Y-105202602D01*
X152541507Y-105202602D02*
X151827222Y-104869269D01*
X151827222Y-104869269D02*
X152827222Y-104869269D01*
X151827222Y-104488316D02*
X152827222Y-103821650D01*
X151827222Y-103821650D02*
X152827222Y-104488316D01*
X152827222Y-102916888D02*
X152827222Y-103488316D01*
X152827222Y-103202602D02*
X151827222Y-103202602D01*
X151827222Y-103202602D02*
X151970079Y-103297840D01*
X151970079Y-103297840D02*
X152065317Y-103393078D01*
X152065317Y-103393078D02*
X152112936Y-103488316D01*
X151827222Y-102583554D02*
X151827222Y-101916888D01*
X151827222Y-101916888D02*
X152827222Y-102345459D01*
X151827222Y-101345459D02*
X151827222Y-101250221D01*
X151827222Y-101250221D02*
X151874841Y-101154983D01*
X151874841Y-101154983D02*
X151922460Y-101107364D01*
X151922460Y-101107364D02*
X152017698Y-101059745D01*
X152017698Y-101059745D02*
X152208174Y-101012126D01*
X152208174Y-101012126D02*
X152446269Y-101012126D01*
X152446269Y-101012126D02*
X152636745Y-101059745D01*
X152636745Y-101059745D02*
X152731983Y-101107364D01*
X152731983Y-101107364D02*
X152779603Y-101154983D01*
X152779603Y-101154983D02*
X152827222Y-101250221D01*
X152827222Y-101250221D02*
X152827222Y-101345459D01*
X152827222Y-101345459D02*
X152779603Y-101440697D01*
X152779603Y-101440697D02*
X152731983Y-101488316D01*
X152731983Y-101488316D02*
X152636745Y-101535935D01*
X152636745Y-101535935D02*
X152446269Y-101583554D01*
X152446269Y-101583554D02*
X152208174Y-101583554D01*
X152208174Y-101583554D02*
X152017698Y-101535935D01*
X152017698Y-101535935D02*
X151922460Y-101488316D01*
X151922460Y-101488316D02*
X151874841Y-101440697D01*
X151874841Y-101440697D02*
X151827222Y-101345459D01*
X152303412Y-100250221D02*
X152303412Y-100583554D01*
X152827222Y-100583554D02*
X151827222Y-100583554D01*
X151827222Y-100583554D02*
X151827222Y-100107364D01*
X151922460Y-99774030D02*
X151874841Y-99726411D01*
X151874841Y-99726411D02*
X151827222Y-99631173D01*
X151827222Y-99631173D02*
X151827222Y-99393078D01*
X151827222Y-99393078D02*
X151874841Y-99297840D01*
X151874841Y-99297840D02*
X151922460Y-99250221D01*
X151922460Y-99250221D02*
X152017698Y-99202602D01*
X152017698Y-99202602D02*
X152112936Y-99202602D01*
X152112936Y-99202602D02*
X152255793Y-99250221D01*
X152255793Y-99250221D02*
X152827222Y-99821649D01*
X152827222Y-99821649D02*
X152827222Y-99202602D01*
X151827222Y-98297840D02*
X151827222Y-98774030D01*
X151827222Y-98774030D02*
X152303412Y-98821649D01*
X152303412Y-98821649D02*
X152255793Y-98774030D01*
X152255793Y-98774030D02*
X152208174Y-98678792D01*
X152208174Y-98678792D02*
X152208174Y-98440697D01*
X152208174Y-98440697D02*
X152255793Y-98345459D01*
X152255793Y-98345459D02*
X152303412Y-98297840D01*
X152303412Y-98297840D02*
X152398650Y-98250221D01*
X152398650Y-98250221D02*
X152636745Y-98250221D01*
X152636745Y-98250221D02*
X152731983Y-98297840D01*
X152731983Y-98297840D02*
X152779603Y-98345459D01*
X152779603Y-98345459D02*
X152827222Y-98440697D01*
X152827222Y-98440697D02*
X152827222Y-98678792D01*
X152827222Y-98678792D02*
X152779603Y-98774030D01*
X152779603Y-98774030D02*
X152731983Y-98821649D01*
X151827222Y-97393078D02*
X151827222Y-97583554D01*
X151827222Y-97583554D02*
X151874841Y-97678792D01*
X151874841Y-97678792D02*
X151922460Y-97726411D01*
X151922460Y-97726411D02*
X152065317Y-97821649D01*
X152065317Y-97821649D02*
X152255793Y-97869268D01*
X152255793Y-97869268D02*
X152636745Y-97869268D01*
X152636745Y-97869268D02*
X152731983Y-97821649D01*
X152731983Y-97821649D02*
X152779603Y-97774030D01*
X152779603Y-97774030D02*
X152827222Y-97678792D01*
X152827222Y-97678792D02*
X152827222Y-97488316D01*
X152827222Y-97488316D02*
X152779603Y-97393078D01*
X152779603Y-97393078D02*
X152731983Y-97345459D01*
X152731983Y-97345459D02*
X152636745Y-97297840D01*
X152636745Y-97297840D02*
X152398650Y-97297840D01*
X152398650Y-97297840D02*
X152303412Y-97345459D01*
X152303412Y-97345459D02*
X152255793Y-97393078D01*
X152255793Y-97393078D02*
X152208174Y-97488316D01*
X152208174Y-97488316D02*
X152208174Y-97678792D01*
X152208174Y-97678792D02*
X152255793Y-97774030D01*
X152255793Y-97774030D02*
X152303412Y-97821649D01*
X152303412Y-97821649D02*
X152398650Y-97869268D01*
X152303412Y-96535935D02*
X152351031Y-96393078D01*
X152351031Y-96393078D02*
X152398650Y-96345459D01*
X152398650Y-96345459D02*
X152493888Y-96297840D01*
X152493888Y-96297840D02*
X152636745Y-96297840D01*
X152636745Y-96297840D02*
X152731983Y-96345459D01*
X152731983Y-96345459D02*
X152779603Y-96393078D01*
X152779603Y-96393078D02*
X152827222Y-96488316D01*
X152827222Y-96488316D02*
X152827222Y-96869268D01*
X152827222Y-96869268D02*
X151827222Y-96869268D01*
X151827222Y-96869268D02*
X151827222Y-96535935D01*
X151827222Y-96535935D02*
X151874841Y-96440697D01*
X151874841Y-96440697D02*
X151922460Y-96393078D01*
X151922460Y-96393078D02*
X152017698Y-96345459D01*
X152017698Y-96345459D02*
X152112936Y-96345459D01*
X152112936Y-96345459D02*
X152208174Y-96393078D01*
X152208174Y-96393078D02*
X152255793Y-96440697D01*
X152255793Y-96440697D02*
X152303412Y-96535935D01*
X152303412Y-96535935D02*
X152303412Y-96869268D01*
X152446269Y-95869268D02*
X152446269Y-95107364D01*
X152827222Y-94631173D02*
X151827222Y-94631173D01*
X151779603Y-93440698D02*
X153065317Y-94297840D01*
X152779603Y-93154983D02*
X152827222Y-93012126D01*
X152827222Y-93012126D02*
X152827222Y-92774031D01*
X152827222Y-92774031D02*
X152779603Y-92678793D01*
X152779603Y-92678793D02*
X152731983Y-92631174D01*
X152731983Y-92631174D02*
X152636745Y-92583555D01*
X152636745Y-92583555D02*
X152541507Y-92583555D01*
X152541507Y-92583555D02*
X152446269Y-92631174D01*
X152446269Y-92631174D02*
X152398650Y-92678793D01*
X152398650Y-92678793D02*
X152351031Y-92774031D01*
X152351031Y-92774031D02*
X152303412Y-92964507D01*
X152303412Y-92964507D02*
X152255793Y-93059745D01*
X152255793Y-93059745D02*
X152208174Y-93107364D01*
X152208174Y-93107364D02*
X152112936Y-93154983D01*
X152112936Y-93154983D02*
X152017698Y-93154983D01*
X152017698Y-93154983D02*
X151922460Y-93107364D01*
X151922460Y-93107364D02*
X151874841Y-93059745D01*
X151874841Y-93059745D02*
X151827222Y-92964507D01*
X151827222Y-92964507D02*
X151827222Y-92726412D01*
X151827222Y-92726412D02*
X151874841Y-92583555D01*
X152827222Y-92154983D02*
X151827222Y-92154983D01*
X151827222Y-92154983D02*
X151827222Y-91774031D01*
X151827222Y-91774031D02*
X151874841Y-91678793D01*
X151874841Y-91678793D02*
X151922460Y-91631174D01*
X151922460Y-91631174D02*
X152017698Y-91583555D01*
X152017698Y-91583555D02*
X152160555Y-91583555D01*
X152160555Y-91583555D02*
X152255793Y-91631174D01*
X152255793Y-91631174D02*
X152303412Y-91678793D01*
X152303412Y-91678793D02*
X152351031Y-91774031D01*
X152351031Y-91774031D02*
X152351031Y-92154983D01*
%TO.C,C1*%
X165988713Y-115878158D02*
X165417285Y-115878158D01*
X165702999Y-115878158D02*
X165702999Y-114878158D01*
X165702999Y-114878158D02*
X165607761Y-115021015D01*
X165607761Y-115021015D02*
X165512523Y-115116253D01*
X165512523Y-115116253D02*
X165417285Y-115163872D01*
X166845856Y-115211491D02*
X166845856Y-115878158D01*
X166417285Y-115211491D02*
X166417285Y-115735300D01*
X166417285Y-115735300D02*
X166464904Y-115830539D01*
X166464904Y-115830539D02*
X166560142Y-115878158D01*
X166560142Y-115878158D02*
X166702999Y-115878158D01*
X166702999Y-115878158D02*
X166798237Y-115830539D01*
X166798237Y-115830539D02*
X166845856Y-115782919D01*
X167655380Y-115354348D02*
X167322047Y-115354348D01*
X167322047Y-115878158D02*
X167322047Y-114878158D01*
X167322047Y-114878158D02*
X167798237Y-114878158D01*
%TO.C,U1*%
X147914051Y-78200986D02*
X148723574Y-78200986D01*
X148723574Y-78200986D02*
X148818812Y-78153367D01*
X148818812Y-78153367D02*
X148866432Y-78105748D01*
X148866432Y-78105748D02*
X148914051Y-78010510D01*
X148914051Y-78010510D02*
X148914051Y-77820034D01*
X148914051Y-77820034D02*
X148866432Y-77724796D01*
X148866432Y-77724796D02*
X148818812Y-77677177D01*
X148818812Y-77677177D02*
X148723574Y-77629558D01*
X148723574Y-77629558D02*
X147914051Y-77629558D01*
X148914051Y-76629558D02*
X148914051Y-77200986D01*
X148914051Y-76915272D02*
X147914051Y-76915272D01*
X147914051Y-76915272D02*
X148056908Y-77010510D01*
X148056908Y-77010510D02*
X148152146Y-77105748D01*
X148152146Y-77105748D02*
X148199765Y-77200986D01*
%TO.C,R1*%
X157258690Y-78635472D02*
X157258690Y-78016425D01*
X157258690Y-78016425D02*
X157639642Y-78349758D01*
X157639642Y-78349758D02*
X157639642Y-78206901D01*
X157639642Y-78206901D02*
X157687261Y-78111663D01*
X157687261Y-78111663D02*
X157734880Y-78064044D01*
X157734880Y-78064044D02*
X157830118Y-78016425D01*
X157830118Y-78016425D02*
X158068213Y-78016425D01*
X158068213Y-78016425D02*
X158163451Y-78064044D01*
X158163451Y-78064044D02*
X158211071Y-78111663D01*
X158211071Y-78111663D02*
X158258690Y-78206901D01*
X158258690Y-78206901D02*
X158258690Y-78492615D01*
X158258690Y-78492615D02*
X158211071Y-78587853D01*
X158211071Y-78587853D02*
X158163451Y-78635472D01*
X157258690Y-77683091D02*
X157258690Y-77064044D01*
X157258690Y-77064044D02*
X157639642Y-77397377D01*
X157639642Y-77397377D02*
X157639642Y-77254520D01*
X157639642Y-77254520D02*
X157687261Y-77159282D01*
X157687261Y-77159282D02*
X157734880Y-77111663D01*
X157734880Y-77111663D02*
X157830118Y-77064044D01*
X157830118Y-77064044D02*
X158068213Y-77064044D01*
X158068213Y-77064044D02*
X158163451Y-77111663D01*
X158163451Y-77111663D02*
X158211071Y-77159282D01*
X158211071Y-77159282D02*
X158258690Y-77254520D01*
X158258690Y-77254520D02*
X158258690Y-77540234D01*
X158258690Y-77540234D02*
X158211071Y-77635472D01*
X158211071Y-77635472D02*
X158163451Y-77683091D01*
X157258690Y-76444996D02*
X157258690Y-76349758D01*
X157258690Y-76349758D02*
X157306309Y-76254520D01*
X157306309Y-76254520D02*
X157353928Y-76206901D01*
X157353928Y-76206901D02*
X157449166Y-76159282D01*
X157449166Y-76159282D02*
X157639642Y-76111663D01*
X157639642Y-76111663D02*
X157877737Y-76111663D01*
X157877737Y-76111663D02*
X158068213Y-76159282D01*
X158068213Y-76159282D02*
X158163451Y-76206901D01*
X158163451Y-76206901D02*
X158211071Y-76254520D01*
X158211071Y-76254520D02*
X158258690Y-76349758D01*
X158258690Y-76349758D02*
X158258690Y-76444996D01*
X158258690Y-76444996D02*
X158211071Y-76540234D01*
X158211071Y-76540234D02*
X158163451Y-76587853D01*
X158163451Y-76587853D02*
X158068213Y-76635472D01*
X158068213Y-76635472D02*
X157877737Y-76683091D01*
X157877737Y-76683091D02*
X157639642Y-76683091D01*
X157639642Y-76683091D02*
X157449166Y-76635472D01*
X157449166Y-76635472D02*
X157353928Y-76587853D01*
X157353928Y-76587853D02*
X157306309Y-76540234D01*
X157306309Y-76540234D02*
X157258690Y-76444996D01*
%TO.C,C5*%
X162004761Y-107142619D02*
X161433333Y-107142619D01*
X161719047Y-107142619D02*
X161719047Y-106142619D01*
X161719047Y-106142619D02*
X161623809Y-106285476D01*
X161623809Y-106285476D02*
X161528571Y-106380714D01*
X161528571Y-106380714D02*
X161433333Y-106428333D01*
X162861904Y-106475952D02*
X162861904Y-107142619D01*
X162433333Y-106475952D02*
X162433333Y-106999761D01*
X162433333Y-106999761D02*
X162480952Y-107095000D01*
X162480952Y-107095000D02*
X162576190Y-107142619D01*
X162576190Y-107142619D02*
X162719047Y-107142619D01*
X162719047Y-107142619D02*
X162814285Y-107095000D01*
X162814285Y-107095000D02*
X162861904Y-107047380D01*
X163671428Y-106618809D02*
X163338095Y-106618809D01*
X163338095Y-107142619D02*
X163338095Y-106142619D01*
X163338095Y-106142619D02*
X163814285Y-106142619D01*
%TO.C,R3*%
X139992619Y-110656666D02*
X139516428Y-110989999D01*
X139992619Y-111228094D02*
X138992619Y-111228094D01*
X138992619Y-111228094D02*
X138992619Y-110847142D01*
X138992619Y-110847142D02*
X139040238Y-110751904D01*
X139040238Y-110751904D02*
X139087857Y-110704285D01*
X139087857Y-110704285D02*
X139183095Y-110656666D01*
X139183095Y-110656666D02*
X139325952Y-110656666D01*
X139325952Y-110656666D02*
X139421190Y-110704285D01*
X139421190Y-110704285D02*
X139468809Y-110751904D01*
X139468809Y-110751904D02*
X139516428Y-110847142D01*
X139516428Y-110847142D02*
X139516428Y-111228094D01*
X138992619Y-110323332D02*
X138992619Y-109704285D01*
X138992619Y-109704285D02*
X139373571Y-110037618D01*
X139373571Y-110037618D02*
X139373571Y-109894761D01*
X139373571Y-109894761D02*
X139421190Y-109799523D01*
X139421190Y-109799523D02*
X139468809Y-109751904D01*
X139468809Y-109751904D02*
X139564047Y-109704285D01*
X139564047Y-109704285D02*
X139802142Y-109704285D01*
X139802142Y-109704285D02*
X139897380Y-109751904D01*
X139897380Y-109751904D02*
X139945000Y-109799523D01*
X139945000Y-109799523D02*
X139992619Y-109894761D01*
X139992619Y-109894761D02*
X139992619Y-110180475D01*
X139992619Y-110180475D02*
X139945000Y-110275713D01*
X139945000Y-110275713D02*
X139897380Y-110323332D01*
X134252619Y-111775713D02*
X134252619Y-111156666D01*
X134252619Y-111156666D02*
X134633571Y-111489999D01*
X134633571Y-111489999D02*
X134633571Y-111347142D01*
X134633571Y-111347142D02*
X134681190Y-111251904D01*
X134681190Y-111251904D02*
X134728809Y-111204285D01*
X134728809Y-111204285D02*
X134824047Y-111156666D01*
X134824047Y-111156666D02*
X135062142Y-111156666D01*
X135062142Y-111156666D02*
X135157380Y-111204285D01*
X135157380Y-111204285D02*
X135205000Y-111251904D01*
X135205000Y-111251904D02*
X135252619Y-111347142D01*
X135252619Y-111347142D02*
X135252619Y-111632856D01*
X135252619Y-111632856D02*
X135205000Y-111728094D01*
X135205000Y-111728094D02*
X135157380Y-111775713D01*
X134252619Y-110823332D02*
X134252619Y-110204285D01*
X134252619Y-110204285D02*
X134633571Y-110537618D01*
X134633571Y-110537618D02*
X134633571Y-110394761D01*
X134633571Y-110394761D02*
X134681190Y-110299523D01*
X134681190Y-110299523D02*
X134728809Y-110251904D01*
X134728809Y-110251904D02*
X134824047Y-110204285D01*
X134824047Y-110204285D02*
X135062142Y-110204285D01*
X135062142Y-110204285D02*
X135157380Y-110251904D01*
X135157380Y-110251904D02*
X135205000Y-110299523D01*
X135205000Y-110299523D02*
X135252619Y-110394761D01*
X135252619Y-110394761D02*
X135252619Y-110680475D01*
X135252619Y-110680475D02*
X135205000Y-110775713D01*
X135205000Y-110775713D02*
X135157380Y-110823332D01*
X134252619Y-109585237D02*
X134252619Y-109489999D01*
X134252619Y-109489999D02*
X134300238Y-109394761D01*
X134300238Y-109394761D02*
X134347857Y-109347142D01*
X134347857Y-109347142D02*
X134443095Y-109299523D01*
X134443095Y-109299523D02*
X134633571Y-109251904D01*
X134633571Y-109251904D02*
X134871666Y-109251904D01*
X134871666Y-109251904D02*
X135062142Y-109299523D01*
X135062142Y-109299523D02*
X135157380Y-109347142D01*
X135157380Y-109347142D02*
X135205000Y-109394761D01*
X135205000Y-109394761D02*
X135252619Y-109489999D01*
X135252619Y-109489999D02*
X135252619Y-109585237D01*
X135252619Y-109585237D02*
X135205000Y-109680475D01*
X135205000Y-109680475D02*
X135157380Y-109728094D01*
X135157380Y-109728094D02*
X135062142Y-109775713D01*
X135062142Y-109775713D02*
X134871666Y-109823332D01*
X134871666Y-109823332D02*
X134633571Y-109823332D01*
X134633571Y-109823332D02*
X134443095Y-109775713D01*
X134443095Y-109775713D02*
X134347857Y-109728094D01*
X134347857Y-109728094D02*
X134300238Y-109680475D01*
X134300238Y-109680475D02*
X134252619Y-109585237D01*
%TO.C,J3*%
X128587618Y-117532619D02*
X128111428Y-117532619D01*
X128111428Y-117532619D02*
X128111428Y-116532619D01*
X128920952Y-117008809D02*
X129254285Y-117008809D01*
X129397142Y-117532619D02*
X128920952Y-117532619D01*
X128920952Y-117532619D02*
X128920952Y-116532619D01*
X128920952Y-116532619D02*
X129397142Y-116532619D01*
X130159047Y-117008809D02*
X129825714Y-117008809D01*
X129825714Y-117532619D02*
X129825714Y-116532619D01*
X129825714Y-116532619D02*
X130301904Y-116532619D01*
X130540000Y-116532619D02*
X131111428Y-116532619D01*
X130825714Y-117532619D02*
X130825714Y-116532619D01*
%TO.C,C2*%
X169544761Y-123982619D02*
X168973333Y-123982619D01*
X169259047Y-123982619D02*
X169259047Y-122982619D01*
X169259047Y-122982619D02*
X169163809Y-123125476D01*
X169163809Y-123125476D02*
X169068571Y-123220714D01*
X169068571Y-123220714D02*
X168973333Y-123268333D01*
X170401904Y-123315952D02*
X170401904Y-123982619D01*
X169973333Y-123315952D02*
X169973333Y-123839761D01*
X169973333Y-123839761D02*
X170020952Y-123935000D01*
X170020952Y-123935000D02*
X170116190Y-123982619D01*
X170116190Y-123982619D02*
X170259047Y-123982619D01*
X170259047Y-123982619D02*
X170354285Y-123935000D01*
X170354285Y-123935000D02*
X170401904Y-123887380D01*
X171211428Y-123458809D02*
X170878095Y-123458809D01*
X170878095Y-123982619D02*
X170878095Y-122982619D01*
X170878095Y-122982619D02*
X171354285Y-122982619D01*
%TO.C,D3*%
X160593533Y-123801925D02*
X161069724Y-123801925D01*
X160069724Y-124135258D02*
X160593533Y-123801925D01*
X160593533Y-123801925D02*
X160069724Y-123468592D01*
X160545914Y-123135258D02*
X160545914Y-122801925D01*
X161069724Y-122659068D02*
X161069724Y-123135258D01*
X161069724Y-123135258D02*
X160069724Y-123135258D01*
X160069724Y-123135258D02*
X160069724Y-122659068D01*
X161069724Y-121754306D02*
X161069724Y-122230496D01*
X161069724Y-122230496D02*
X160069724Y-122230496D01*
X161069724Y-120944782D02*
X161069724Y-121420972D01*
X161069724Y-121420972D02*
X160069724Y-121420972D01*
X160069724Y-120420972D02*
X160069724Y-120230496D01*
X160069724Y-120230496D02*
X160117343Y-120135258D01*
X160117343Y-120135258D02*
X160212581Y-120040020D01*
X160212581Y-120040020D02*
X160403057Y-119992401D01*
X160403057Y-119992401D02*
X160736390Y-119992401D01*
X160736390Y-119992401D02*
X160926866Y-120040020D01*
X160926866Y-120040020D02*
X161022105Y-120135258D01*
X161022105Y-120135258D02*
X161069724Y-120230496D01*
X161069724Y-120230496D02*
X161069724Y-120420972D01*
X161069724Y-120420972D02*
X161022105Y-120516210D01*
X161022105Y-120516210D02*
X160926866Y-120611448D01*
X160926866Y-120611448D02*
X160736390Y-120659067D01*
X160736390Y-120659067D02*
X160403057Y-120659067D01*
X160403057Y-120659067D02*
X160212581Y-120611448D01*
X160212581Y-120611448D02*
X160117343Y-120516210D01*
X160117343Y-120516210D02*
X160069724Y-120420972D01*
X160069724Y-119659067D02*
X161069724Y-119420972D01*
X161069724Y-119420972D02*
X160355438Y-119230496D01*
X160355438Y-119230496D02*
X161069724Y-119040020D01*
X161069724Y-119040020D02*
X160069724Y-118801925D01*
%TO.C,C3*%
X161964761Y-102062619D02*
X161393333Y-102062619D01*
X161679047Y-102062619D02*
X161679047Y-101062619D01*
X161679047Y-101062619D02*
X161583809Y-101205476D01*
X161583809Y-101205476D02*
X161488571Y-101300714D01*
X161488571Y-101300714D02*
X161393333Y-101348333D01*
X162821904Y-101395952D02*
X162821904Y-102062619D01*
X162393333Y-101395952D02*
X162393333Y-101919761D01*
X162393333Y-101919761D02*
X162440952Y-102015000D01*
X162440952Y-102015000D02*
X162536190Y-102062619D01*
X162536190Y-102062619D02*
X162679047Y-102062619D01*
X162679047Y-102062619D02*
X162774285Y-102015000D01*
X162774285Y-102015000D02*
X162821904Y-101967380D01*
X163631428Y-101538809D02*
X163298095Y-101538809D01*
X163298095Y-102062619D02*
X163298095Y-101062619D01*
X163298095Y-101062619D02*
X163774285Y-101062619D01*
%TO.C,J1*%
X129657456Y-79140650D02*
X129705075Y-78997793D01*
X129705075Y-78997793D02*
X129752694Y-78950174D01*
X129752694Y-78950174D02*
X129847932Y-78902555D01*
X129847932Y-78902555D02*
X129990789Y-78902555D01*
X129990789Y-78902555D02*
X130086027Y-78950174D01*
X130086027Y-78950174D02*
X130133647Y-78997793D01*
X130133647Y-78997793D02*
X130181266Y-79093031D01*
X130181266Y-79093031D02*
X130181266Y-79473983D01*
X130181266Y-79473983D02*
X129181266Y-79473983D01*
X129181266Y-79473983D02*
X129181266Y-79140650D01*
X129181266Y-79140650D02*
X129228885Y-79045412D01*
X129228885Y-79045412D02*
X129276504Y-78997793D01*
X129276504Y-78997793D02*
X129371742Y-78950174D01*
X129371742Y-78950174D02*
X129466980Y-78950174D01*
X129466980Y-78950174D02*
X129562218Y-78997793D01*
X129562218Y-78997793D02*
X129609837Y-79045412D01*
X129609837Y-79045412D02*
X129657456Y-79140650D01*
X129657456Y-79140650D02*
X129657456Y-79473983D01*
X129895551Y-78521602D02*
X129895551Y-78045412D01*
X130181266Y-78616840D02*
X129181266Y-78283507D01*
X129181266Y-78283507D02*
X130181266Y-77950174D01*
X129181266Y-77759697D02*
X129181266Y-77188269D01*
X130181266Y-77473983D02*
X129181266Y-77473983D01*
%TO.C,SW3*%
X170089237Y-86397746D02*
X170898760Y-86397746D01*
X170898760Y-86397746D02*
X170993998Y-86350127D01*
X170993998Y-86350127D02*
X171041618Y-86302508D01*
X171041618Y-86302508D02*
X171089237Y-86207270D01*
X171089237Y-86207270D02*
X171089237Y-86016794D01*
X171089237Y-86016794D02*
X171041618Y-85921556D01*
X171041618Y-85921556D02*
X170993998Y-85873937D01*
X170993998Y-85873937D02*
X170898760Y-85826318D01*
X170898760Y-85826318D02*
X170089237Y-85826318D01*
X171041618Y-85397746D02*
X171089237Y-85254889D01*
X171089237Y-85254889D02*
X171089237Y-85016794D01*
X171089237Y-85016794D02*
X171041618Y-84921556D01*
X171041618Y-84921556D02*
X170993998Y-84873937D01*
X170993998Y-84873937D02*
X170898760Y-84826318D01*
X170898760Y-84826318D02*
X170803522Y-84826318D01*
X170803522Y-84826318D02*
X170708284Y-84873937D01*
X170708284Y-84873937D02*
X170660665Y-84921556D01*
X170660665Y-84921556D02*
X170613046Y-85016794D01*
X170613046Y-85016794D02*
X170565427Y-85207270D01*
X170565427Y-85207270D02*
X170517808Y-85302508D01*
X170517808Y-85302508D02*
X170470189Y-85350127D01*
X170470189Y-85350127D02*
X170374951Y-85397746D01*
X170374951Y-85397746D02*
X170279713Y-85397746D01*
X170279713Y-85397746D02*
X170184475Y-85350127D01*
X170184475Y-85350127D02*
X170136856Y-85302508D01*
X170136856Y-85302508D02*
X170089237Y-85207270D01*
X170089237Y-85207270D02*
X170089237Y-84969175D01*
X170089237Y-84969175D02*
X170136856Y-84826318D01*
X170565427Y-84397746D02*
X170565427Y-84064413D01*
X171089237Y-83921556D02*
X171089237Y-84397746D01*
X171089237Y-84397746D02*
X170089237Y-84397746D01*
X170089237Y-84397746D02*
X170089237Y-83921556D01*
X171089237Y-82921556D02*
X170613046Y-83254889D01*
X171089237Y-83492984D02*
X170089237Y-83492984D01*
X170089237Y-83492984D02*
X170089237Y-83112032D01*
X170089237Y-83112032D02*
X170136856Y-83016794D01*
X170136856Y-83016794D02*
X170184475Y-82969175D01*
X170184475Y-82969175D02*
X170279713Y-82921556D01*
X170279713Y-82921556D02*
X170422570Y-82921556D01*
X170422570Y-82921556D02*
X170517808Y-82969175D01*
X170517808Y-82969175D02*
X170565427Y-83016794D01*
X170565427Y-83016794D02*
X170613046Y-83112032D01*
X170613046Y-83112032D02*
X170613046Y-83492984D01*
%TO.C,C7*%
X140730236Y-123460982D02*
X140825474Y-123460982D01*
X140825474Y-123460982D02*
X140920712Y-123508601D01*
X140920712Y-123508601D02*
X140968331Y-123556220D01*
X140968331Y-123556220D02*
X141015950Y-123651458D01*
X141015950Y-123651458D02*
X141063569Y-123841934D01*
X141063569Y-123841934D02*
X141063569Y-124080029D01*
X141063569Y-124080029D02*
X141015950Y-124270505D01*
X141015950Y-124270505D02*
X140968331Y-124365743D01*
X140968331Y-124365743D02*
X140920712Y-124413363D01*
X140920712Y-124413363D02*
X140825474Y-124460982D01*
X140825474Y-124460982D02*
X140730236Y-124460982D01*
X140730236Y-124460982D02*
X140634998Y-124413363D01*
X140634998Y-124413363D02*
X140587379Y-124365743D01*
X140587379Y-124365743D02*
X140539760Y-124270505D01*
X140539760Y-124270505D02*
X140492141Y-124080029D01*
X140492141Y-124080029D02*
X140492141Y-123841934D01*
X140492141Y-123841934D02*
X140539760Y-123651458D01*
X140539760Y-123651458D02*
X140587379Y-123556220D01*
X140587379Y-123556220D02*
X140634998Y-123508601D01*
X140634998Y-123508601D02*
X140730236Y-123460982D01*
X141492141Y-124365743D02*
X141539760Y-124413363D01*
X141539760Y-124413363D02*
X141492141Y-124460982D01*
X141492141Y-124460982D02*
X141444522Y-124413363D01*
X141444522Y-124413363D02*
X141492141Y-124365743D01*
X141492141Y-124365743D02*
X141492141Y-124460982D01*
X142492140Y-124460982D02*
X141920712Y-124460982D01*
X142206426Y-124460982D02*
X142206426Y-123460982D01*
X142206426Y-123460982D02*
X142111188Y-123603839D01*
X142111188Y-123603839D02*
X142015950Y-123699077D01*
X142015950Y-123699077D02*
X141920712Y-123746696D01*
X143349283Y-123794315D02*
X143349283Y-124460982D01*
X142920712Y-123794315D02*
X142920712Y-124318124D01*
X142920712Y-124318124D02*
X142968331Y-124413363D01*
X142968331Y-124413363D02*
X143063569Y-124460982D01*
X143063569Y-124460982D02*
X143206426Y-124460982D01*
X143206426Y-124460982D02*
X143301664Y-124413363D01*
X143301664Y-124413363D02*
X143349283Y-124365743D01*
X144158807Y-123937172D02*
X143825474Y-123937172D01*
X143825474Y-124460982D02*
X143825474Y-123460982D01*
X143825474Y-123460982D02*
X144301664Y-123460982D01*
D11*
%TO.C,R4*%
X147802530Y-119613024D02*
X154342530Y-119613024D01*
X147802530Y-119943024D02*
X147802530Y-119613024D01*
X147802530Y-122023024D02*
X147802530Y-122353024D01*
X147802530Y-122353024D02*
X154342530Y-122353024D01*
X154342530Y-119613024D02*
X154342530Y-119943024D01*
X154342530Y-122353024D02*
X154342530Y-122023024D01*
%TO.C,C4*%
X160613757Y-92112140D02*
X160613757Y-92357140D01*
X160613757Y-92112140D02*
X164253757Y-92112140D01*
X160613757Y-94207140D02*
X160613757Y-94452140D01*
X160613757Y-94452140D02*
X164253757Y-94452140D01*
X164253757Y-92112140D02*
X164253757Y-92357140D01*
X164253757Y-94207140D02*
X164253757Y-94452140D01*
%TO.C,R2*%
X127540000Y-118010000D02*
X134080000Y-118010000D01*
X127540000Y-118340000D02*
X127540000Y-118010000D01*
X127540000Y-120420000D02*
X127540000Y-120750000D01*
X127540000Y-120750000D02*
X134080000Y-120750000D01*
X134080000Y-118010000D02*
X134080000Y-118340000D01*
X134080000Y-120750000D02*
X134080000Y-120420000D01*
%TO.C,R5*%
X167412230Y-99256856D02*
X167412230Y-92716856D01*
X167742230Y-99256856D02*
X167412230Y-99256856D01*
X169822230Y-99256856D02*
X170152230Y-99256856D01*
X170152230Y-99256856D02*
X170152230Y-92716856D01*
X167412230Y-92716856D02*
X167742230Y-92716856D01*
X170152230Y-92716856D02*
X169822230Y-92716856D01*
D12*
%TO.C,SW1*%
X144306981Y-79553563D02*
X144306981Y-75553563D01*
X144306981Y-79553563D02*
X132306981Y-79553563D01*
X144306981Y-75553563D02*
X132306981Y-75553563D01*
X132306981Y-75553563D02*
X132306981Y-79553563D01*
D11*
%TO.C,D2*%
X139659898Y-119095739D02*
X139503898Y-119095739D01*
X137343898Y-119095739D02*
X137187898Y-119095739D01*
X139502506Y-122328073D02*
G75*
G03*
X139659413Y-119095740I-1078608J1672334D01*
G01*
X139503734Y-121696868D02*
G75*
G03*
X139503897Y-119614779I-1079836J1041129D01*
G01*
X137343899Y-119614779D02*
G75*
G03*
X137344062Y-121696868I1079999J-1040960D01*
G01*
X137188383Y-119095740D02*
G75*
G03*
X137345290Y-122328073I1235515J-1559999D01*
G01*
%TO.C,SW2*%
X132080000Y-92045000D02*
X132080000Y-100995000D01*
X132080000Y-92045000D02*
X142240000Y-92045000D01*
X132080000Y-100995000D02*
X142240000Y-100995000D01*
X137160000Y-92650000D02*
X138490000Y-92650000D01*
X138490000Y-92650000D02*
X138490000Y-93980000D01*
X142240000Y-92045000D02*
X142240000Y-100995000D01*
%TO.C,D1*%
X173620298Y-76430048D02*
X173464298Y-76430048D01*
X171304298Y-76430048D02*
X171148298Y-76430048D01*
X173462906Y-79662382D02*
G75*
G03*
X173619813Y-76430049I-1078608J1672334D01*
G01*
X173464134Y-79031177D02*
G75*
G03*
X173464297Y-76949088I-1079836J1041129D01*
G01*
X171304299Y-76949088D02*
G75*
G03*
X171304462Y-79031177I1079999J-1040960D01*
G01*
X171148783Y-76430049D02*
G75*
G03*
X171305690Y-79662382I1235515J-1559999D01*
G01*
%TO.C,J2*%
X132147068Y-83303639D02*
X144907068Y-83303639D01*
X132147068Y-83303639D02*
X132147068Y-80643639D01*
X144907068Y-83303639D02*
X144907068Y-80643639D01*
X129547068Y-81973639D02*
X129547068Y-80643639D01*
X129547068Y-80643639D02*
X130877068Y-80643639D01*
X132147068Y-80643639D02*
X144907068Y-80643639D01*
%TO.C,U2*%
X145990000Y-82430000D02*
X145990000Y-118230000D01*
X145990000Y-118230000D02*
X156270000Y-118230000D01*
X148480000Y-82490000D02*
X148480000Y-118170000D01*
X148480000Y-118170000D02*
X153780000Y-118170000D01*
X150130000Y-82490000D02*
X148480000Y-82490000D01*
X153780000Y-82490000D02*
X152130000Y-82490000D01*
X153780000Y-118170000D02*
X153780000Y-82490000D01*
X156270000Y-82430000D02*
X145990000Y-82430000D01*
X156270000Y-118230000D02*
X156270000Y-82430000D01*
X150130000Y-82490000D02*
G75*
G03*
X152130000Y-82490000I1000000J0D01*
G01*
%TO.C,C1*%
X163913952Y-110844539D02*
X163913952Y-111510539D01*
X163913952Y-110844539D02*
X169253952Y-110844539D01*
X163913952Y-113620539D02*
X163913952Y-114286539D01*
X163913952Y-114286539D02*
X169253952Y-114286539D01*
X169253952Y-110844539D02*
X169253952Y-111510539D01*
X169253952Y-113620539D02*
X169253952Y-114286539D01*
%TO.C,U1*%
X153937105Y-75715043D02*
X150337105Y-75715043D01*
X152137105Y-80165043D02*
G75*
G03*
X153975583Y-75726565I0J2600000D01*
G01*
X150298627Y-75726565D02*
G75*
G03*
X152137105Y-80165043I1838478J-1838478D01*
G01*
%TO.C,R1*%
X160454297Y-75898337D02*
X166994297Y-75898337D01*
X160454297Y-76228337D02*
X160454297Y-75898337D01*
X160454297Y-78308337D02*
X160454297Y-78638337D01*
X160454297Y-78638337D02*
X166994297Y-78638337D01*
X166994297Y-75898337D02*
X166994297Y-76228337D01*
X166994297Y-78638337D02*
X166994297Y-78308337D01*
%TO.C,C5*%
X165270000Y-105861000D02*
X165270000Y-105195000D01*
X165270000Y-105861000D02*
X159930000Y-105861000D01*
X165270000Y-103085000D02*
X165270000Y-102419000D01*
X165270000Y-102419000D02*
X159930000Y-102419000D01*
X159930000Y-105861000D02*
X159930000Y-105195000D01*
X159930000Y-103085000D02*
X159930000Y-102419000D01*
%TO.C,R3*%
X138530000Y-107220000D02*
X138530000Y-113760000D01*
X138200000Y-107220000D02*
X138530000Y-107220000D01*
X136120000Y-107220000D02*
X135790000Y-107220000D01*
X135790000Y-107220000D02*
X135790000Y-113760000D01*
X138530000Y-113760000D02*
X138200000Y-113760000D01*
X135790000Y-113760000D02*
X136120000Y-113760000D01*
%TO.C,J3*%
X128210000Y-87630000D02*
X128210000Y-115630000D01*
X128210000Y-87630000D02*
X130870000Y-87630000D01*
X128210000Y-115630000D02*
X130870000Y-115630000D01*
X129540000Y-85030000D02*
X130870000Y-85030000D01*
X130870000Y-85030000D02*
X130870000Y-86360000D01*
X130870000Y-87630000D02*
X130870000Y-115630000D01*
%TO.C,C2*%
X172810000Y-123641000D02*
X172810000Y-122975000D01*
X172810000Y-123641000D02*
X167470000Y-123641000D01*
X172810000Y-120865000D02*
X172810000Y-120199000D01*
X172810000Y-120199000D02*
X167470000Y-120199000D01*
X167470000Y-123641000D02*
X167470000Y-122975000D01*
X167470000Y-120865000D02*
X167470000Y-120199000D01*
%TO.C,D3*%
X164803105Y-119884783D02*
X164647105Y-119884783D01*
X162487105Y-119884783D02*
X162331105Y-119884783D01*
X164645713Y-123117117D02*
G75*
G03*
X164802620Y-119884784I-1078608J1672334D01*
G01*
X164646941Y-122485912D02*
G75*
G03*
X164647104Y-120403823I-1079836J1041129D01*
G01*
X162487106Y-120403823D02*
G75*
G03*
X162487269Y-122485912I1079999J-1040960D01*
G01*
X162331590Y-119884784D02*
G75*
G03*
X162488497Y-123117117I1235515J-1559999D01*
G01*
%TO.C,C3*%
X159930000Y-97339000D02*
X159930000Y-98005000D01*
X159930000Y-97339000D02*
X165270000Y-97339000D01*
X159930000Y-100115000D02*
X159930000Y-100781000D01*
X159930000Y-100781000D02*
X165270000Y-100781000D01*
X165270000Y-97339000D02*
X165270000Y-98005000D01*
X165270000Y-100115000D02*
X165270000Y-100781000D01*
%TO.C,J4*%
X171390000Y-90170000D02*
X171390000Y-118170000D01*
X171390000Y-90170000D02*
X174050000Y-90170000D01*
X171390000Y-118170000D02*
X174050000Y-118170000D01*
X172720000Y-87570000D02*
X174050000Y-87570000D01*
X174050000Y-87570000D02*
X174050000Y-88900000D01*
X174050000Y-90170000D02*
X174050000Y-118170000D01*
%TO.C,J1*%
X128330000Y-78821586D02*
X128330000Y-76221586D01*
X128330000Y-78821586D02*
X125670000Y-78821586D01*
X128330000Y-76221586D02*
X125670000Y-76221586D01*
X127000000Y-81421586D02*
X125670000Y-81421586D01*
X125670000Y-81421586D02*
X125670000Y-80091586D01*
X125670000Y-78821586D02*
X125670000Y-76221586D01*
%TO.C,SW3*%
X159412794Y-79319798D02*
X159412794Y-88269798D01*
X159412794Y-79319798D02*
X169572794Y-79319798D01*
X159412794Y-88269798D02*
X169572794Y-88269798D01*
X164492794Y-79924798D02*
X165822794Y-79924798D01*
X165822794Y-79924798D02*
X165822794Y-81254798D01*
X169572794Y-79319798D02*
X169572794Y-88269798D01*
%TO.C,C7*%
X143410000Y-118810000D02*
X143165000Y-118810000D01*
X143410000Y-118810000D02*
X143410000Y-122450000D01*
X141315000Y-118810000D02*
X141070000Y-118810000D01*
X141070000Y-118810000D02*
X141070000Y-122450000D01*
X143410000Y-122450000D02*
X143165000Y-122450000D01*
X141315000Y-122450000D02*
X141070000Y-122450000D01*
%TD*%
D13*
X175000000Y-125000000D02*
X125000000Y-125000000D01*
X175000000Y-75000000D02*
X175000000Y-125000000D01*
X125000000Y-75000000D02*
X175000000Y-75000000D01*
X125000000Y-125000000D02*
X125000000Y-75000000D01*
M02*
